{"glyphs":{"0":{"ha":476,"x_min":26,"x_max":472,"o":"m 154 -14 q 62 42 97 -14 q 26 219 26 97 q 35 351 26 272 q 63 517 44 429 q 108 692 81 606 q 171 849 135 778 q 252 963 207 921 q 351 1006 297 1006 q 404 993 382 1006 q 442 955 426 981 q 465 890 457 929 q 472 799 472 851 q 463 650 472 735 q 436 474 454 565 q 391 297 418 383 q 328 140 364 210 q 249 28 293 69 q 154 -14 206 -14 m 154 21 q 237 63 199 21 q 306 173 275 104 q 361 326 338 242 q 401 499 385 411 q 426 664 418 586 q 435 797 435 742 q 414 931 435 892 q 349 971 393 971 q 266 931 304 971 q 196 822 228 890 q 140 672 164 754 q 99 506 115 590 q 73 346 82 421 q 64 219 64 271 q 89 64 64 107 q 154 21 114 21 z "},"1":{"ha":476,"x_min":146,"x_max":392,"o":"m 324 842 q 331 875 328 858 q 339 910 335 892 q 349 950 343 929 q 329 931 339 940 q 306 911 319 922 l 181 810 l 158 835 l 353 992 l 392 992 l 182 0 l 146 0 l 324 842 z "},"2":{"ha":476,"x_min":-49,"x_max":478,"o":"m -49 0 l -44 35 l 190 331 q 290 460 244 399 q 369 579 335 521 q 422 697 403 638 q 440 821 440 757 q 403 933 440 894 q 306 971 367 971 q 253 965 276 971 q 212 948 231 958 q 176 925 193 938 l 156 956 q 216 989 178 972 q 310 1006 254 1006 q 396 983 358 1006 q 456 920 433 961 q 478 822 478 879 q 444 653 478 736 q 353 489 410 571 q 225 319 296 407 l 0 39 l 0 35 l 326 35 l 321 0 l -49 0 z "},"3":{"ha":476,"x_min":-32,"x_max":482,"o":"m 108 -15 q 28 -6 67 -15 q -32 17 -10 3 l -32 60 q 28 31 -6 43 q 108 19 63 19 q 217 46 172 19 q 290 115 263 72 q 331 209 318 158 q 344 307 344 260 q 325 420 344 379 q 270 479 306 461 q 186 497 235 497 l 151 497 l 158 532 l 196 532 q 305 558 258 532 q 383 625 351 583 q 429 718 414 667 q 444 819 444 769 q 413 930 444 889 q 311 971 381 971 q 225 951 260 971 q 167 908 190 931 l 143 940 q 212 985 169 964 q 314 1006 254 1006 q 407 981 369 1006 q 463 915 444 957 q 482 818 482 874 q 455 681 482 747 q 381 570 428 615 q 272 514 333 525 l 271 511 q 351 449 319 496 q 382 311 382 401 q 367 195 382 253 q 318 90 351 138 q 233 14 285 43 q 108 -15 182 -15 z "},"4":{"ha":476,"x_min":-28,"x_max":483,"o":"m 233 0 l 283 233 l -28 233 l -24 260 l 425 1004 l 483 1004 l 326 268 l 422 268 l 415 233 l 319 233 l 269 0 l 233 0 m 22 268 l 290 268 l 407 810 q 419 866 414 838 q 431 921 425 894 q 443 971 438 947 l 440 971 q 419 931 429 949 q 399 895 408 913 q 375 856 389 878 l 22 268 z "},"5":{"ha":476,"x_min":-37,"x_max":485,"o":"m 99 -14 q 42 -8 68 -14 q -5 5 15 -3 q -37 19 -25 13 l -37 61 q 18 34 -17 47 q 100 21 53 21 q 222 50 171 21 q 303 128 272 79 q 350 236 335 176 q 365 357 365 296 q 324 503 365 456 q 201 551 283 551 q 146 546 171 551 q 100 532 121 540 l 79 564 l 199 992 l 485 992 l 476 957 l 225 957 l 118 572 q 153 581 132 576 q 204 586 174 586 q 312 558 268 586 q 379 480 356 531 q 403 360 403 429 q 385 226 403 292 q 330 106 367 160 q 235 19 293 51 q 99 -14 178 -14 z "},"6":{"ha":476,"x_min":31,"x_max":506,"o":"m 176 -14 q 101 10 135 -14 q 49 84 68 35 q 31 208 31 133 q 40 372 31 290 q 67 531 50 454 q 108 677 85 608 q 156 800 131 746 q 217 900 181 853 q 305 976 254 947 q 419 1006 356 1006 q 469 1001 449 1006 q 506 990 490 997 l 492 956 q 459 967 478 963 q 418 971 440 971 q 284 919 343 971 q 178 762 225 868 q 94 489 132 656 l 100 489 q 147 551 121 525 q 206 590 174 576 q 276 604 238 604 q 384 553 343 604 q 425 410 425 503 q 410 269 425 343 q 366 131 396 196 q 289 26 336 67 q 176 -14 242 -14 m 179 21 q 274 60 235 21 q 339 160 314 100 q 376 286 364 221 q 388 404 388 351 q 358 528 388 486 q 276 569 328 569 q 192 547 229 569 q 128 484 154 524 q 88 394 103 444 q 76 347 81 372 q 70 288 72 321 q 68 214 68 256 q 76 128 68 164 q 97 67 83 92 q 132 32 111 43 q 179 21 153 21 z "},"7":{"ha":476,"x_min":51,"x_max":528,"o":"m 51 0 l 488 957 l 131 957 l 138 992 l 528 992 l 526 957 l 92 0 l 51 0 z "},"8":{"ha":476,"x_min":-18,"x_max":490,"o":"m 172 -14 q 74 13 117 -14 q 6 85 31 39 q -18 192 -18 132 q 11 336 -18 275 q 94 443 40 397 q 219 525 147 489 q 168 597 190 560 q 133 676 146 635 q 121 765 121 718 q 146 889 121 835 q 218 974 171 943 q 329 1006 265 1006 q 413 983 376 1006 q 469 920 449 960 q 490 828 490 881 q 465 701 490 758 q 392 597 440 643 q 275 517 344 551 q 339 436 311 478 q 383 347 367 394 q 399 242 399 300 q 372 116 399 174 q 295 22 346 58 q 172 -14 244 -14 m 172 22 q 276 51 233 22 q 340 131 318 81 q 361 242 361 181 q 345 342 361 297 q 302 426 329 388 q 242 500 275 464 q 126 426 176 467 q 48 331 76 386 q 19 194 19 275 q 62 70 19 118 q 172 22 104 22 m 253 540 q 365 616 321 574 q 431 710 410 658 q 453 824 453 763 q 417 933 453 894 q 328 971 382 971 q 240 947 279 971 q 180 878 201 924 q 158 768 158 833 q 184 642 158 696 q 253 540 210 589 z "},"9":{"ha":476,"x_min":-7,"x_max":468,"o":"m 79 -14 q 29 -9 50 -14 q -7 1 8 -4 l -7 40 q 31 26 7 32 q 81 21 54 21 q 183 49 136 21 q 270 137 231 78 q 343 287 310 196 q 404 503 376 378 l 401 503 q 353 442 381 468 q 294 401 326 415 q 222 388 261 388 q 144 410 178 388 q 92 477 110 433 q 74 582 74 521 q 88 722 74 649 q 133 860 103 796 q 209 965 163 925 q 319 1006 256 1006 q 397 981 364 1006 q 449 908 431 957 q 468 783 468 858 q 458 620 468 703 q 431 460 449 538 q 391 315 414 383 q 343 192 368 246 q 300 115 325 153 q 242 49 275 78 q 169 3 210 21 q 79 -14 129 -14 m 222 422 q 308 445 271 422 q 371 508 344 468 q 411 597 397 549 q 426 673 422 631 q 431 778 431 715 q 417 888 431 844 q 380 951 404 931 q 319 971 356 971 q 224 931 264 971 q 160 831 185 892 q 123 706 135 771 q 111 588 111 640 q 141 465 111 507 q 222 422 171 422 z "},"\u0000":{"ha":0,"x_min":0,"x_max":0,"o":""},"\r":{"ha":233,"x_min":0,"x_max":0,"o":""}," ":{"ha":233,"x_min":0,"x_max":0,"o":""},"!":{"ha":281,"x_min":21,"x_max":286,"o":"m 81 231 l 247 992 l 286 992 l 114 231 l 81 231 m 46 -1 q 28 8 35 -1 q 21 32 21 17 q 31 73 21 51 q 61 94 40 94 q 79 86 72 94 q 86 60 86 78 q 76 20 86 42 q 46 -1 67 -1 z "},"\"":{"ha":357,"x_min":132,"x_max":401,"o":"m 292 633 l 361 992 l 401 992 l 317 633 l 292 633 m 132 633 l 201 992 l 242 992 l 157 633 l 132 633 z "},"#":{"ha":508,"x_min":3,"x_max":531,"o":"m 3 0 l 103 326 l 4 326 l 4 361 l 114 361 l 208 668 l 103 668 l 103 703 l 219 703 l 308 992 l 344 992 l 256 703 l 403 703 l 492 992 l 528 992 l 439 703 l 531 703 l 531 668 l 428 668 l 333 361 l 432 361 l 432 326 l 322 326 l 222 0 l 186 0 l 286 326 l 139 326 l 39 0 l 3 0 m 150 361 l 297 361 l 392 668 l 244 668 l 150 361 z "},"$":{"ha":474,"x_min":-14,"x_max":504,"o":"m 139 53 q 47 65 85 54 q -14 86 10 76 l -14 124 q 52 98 13 108 q 147 86 92 88 l 233 492 q 174 561 201 528 q 131 632 147 594 q 114 718 114 669 q 140 838 114 790 q 215 912 167 886 q 328 940 263 938 l 353 1056 l 386 1056 l 361 940 q 449 924 413 938 q 504 899 486 910 l 488 867 q 435 892 468 879 q 354 907 403 906 l 268 503 q 331 432 303 467 q 374 362 358 397 q 390 286 390 326 q 365 165 390 215 q 291 85 339 114 q 174 53 243 57 l 144 -81 l 111 -81 l 139 53 m 181 88 q 277 115 239 92 q 335 182 315 139 q 354 286 354 225 q 342 347 354 319 q 310 402 331 375 q 260 461 289 429 l 181 88 m 321 907 q 228 882 267 904 q 170 819 190 860 q 150 721 150 779 q 161 651 150 682 q 193 591 172 619 q 242 532 214 563 l 321 907 z "},"%":{"ha":722,"x_min":65,"x_max":667,"o":"m 103 0 l 593 992 l 629 992 l 142 0 l 103 0 m 151 383 q 89 415 113 383 q 65 528 65 447 q 74 644 65 581 q 99 772 82 708 q 142 888 117 835 q 201 974 167 942 q 278 1006 235 1006 q 340 975 318 1006 q 363 872 363 944 q 354 763 363 826 q 330 634 346 700 q 288 511 314 568 q 228 419 263 454 q 151 383 194 383 m 156 418 q 215 453 188 418 q 263 542 242 488 q 297 658 283 596 q 319 776 311 719 q 326 869 326 833 q 313 949 326 928 q 274 971 299 971 q 217 941 243 971 q 169 861 190 911 q 133 753 147 811 q 110 637 118 694 q 101 533 101 579 q 117 442 101 465 q 156 418 132 418 m 456 -17 q 393 15 417 -17 q 369 128 369 47 q 378 244 369 181 q 403 372 386 308 q 446 488 421 435 q 505 574 471 542 q 582 606 539 606 q 644 575 622 606 q 667 472 667 544 q 658 363 667 426 q 634 234 650 300 q 592 111 618 168 q 533 19 567 54 q 456 -17 499 -17 m 460 18 q 519 53 492 18 q 567 142 546 88 q 601 258 588 196 q 623 376 615 319 q 631 469 631 433 q 617 549 631 528 q 578 571 603 571 q 521 541 547 571 q 473 461 494 511 q 437 353 451 411 q 414 237 422 294 q 406 133 406 179 q 421 42 406 65 q 460 18 436 18 z "},"&":{"ha":449,"x_min":-17,"x_max":421,"o":"m 118 -14 q 19 28 56 -14 q -17 153 -17 71 q 8 297 -17 231 q 79 423 33 364 q 186 538 125 482 q 167 640 174 585 q 160 746 160 694 q 177 881 160 822 q 228 972 194 939 q 308 1006 261 1006 q 356 992 336 1006 q 388 951 376 978 q 399 886 399 925 q 377 750 399 814 q 317 631 356 686 q 229 528 279 575 l 311 200 q 352 300 332 244 q 386 415 372 356 l 421 415 q 398 329 413 374 q 365 240 383 285 q 324 151 346 194 l 358 0 l 326 0 l 297 118 q 228 28 269 69 q 118 -14 188 -14 m 121 21 q 192 41 163 21 q 244 92 222 61 q 286 158 267 124 l 199 503 q 104 397 144 450 q 42 285 64 343 q 21 158 21 226 q 33 83 21 114 q 68 36 46 51 q 121 21 90 21 m 219 565 q 276 631 250 594 q 320 708 301 667 q 349 793 339 749 q 360 885 360 838 q 345 948 360 925 q 304 971 331 971 q 247 939 271 971 q 210 856 222 907 q 197 747 197 806 q 203 649 197 693 q 219 565 208 604 z "},"'":{"ha":199,"x_min":132,"x_max":242,"o":"m 132 633 l 201 992 l 242 992 l 157 633 l 132 633 z "},"(":{"ha":335,"x_min":36,"x_max":411,"o":"m 122 -219 q 78 -100 97 -167 q 47 40 58 -33 q 36 186 36 114 q 58 412 36 306 q 124 615 81 518 q 231 804 168 713 q 378 986 294 896 l 411 986 q 265 794 328 889 q 159 604 201 700 q 95 405 117 508 q 74 185 74 301 q 83 40 74 113 q 111 -99 93 -33 q 156 -219 129 -165 l 122 -219 z "},")":{"ha":336,"x_min":-96,"x_max":279,"o":"m -96 -219 q 51 -28 -12 -122 q 156 163 114 67 q 220 362 199 258 q 242 582 242 465 q 232 728 242 656 q 204 866 222 800 q 160 986 186 932 l 193 986 q 238 867 219 933 q 268 727 257 800 q 279 581 279 654 q 257 355 279 461 q 191 151 235 249 q 84 -38 147 53 q -62 -219 21 -129 l -96 -219 z "},"*":{"ha":440,"x_min":167,"x_max":507,"o":"m 411 681 l 329 839 l 190 718 l 172 738 l 315 856 l 167 940 l 182 963 l 322 872 l 350 1051 l 379 1046 l 343 869 l 503 910 l 507 883 l 346 850 l 436 694 l 411 681 z "},"+":{"ha":554,"x_min":40,"x_max":513,"o":"m 294 504 l 513 504 l 513 471 l 294 471 l 294 171 l 261 171 l 261 471 l 40 471 l 40 504 l 261 504 l 261 810 l 294 810 l 294 504 z "},",":{"ha":217,"x_min":-54,"x_max":111,"o":"m -54 -176 q -6 -83 -31 -136 q 40 26 19 -29 q 72 126 61 81 l 106 126 l 111 111 q 76 18 99 71 q 26 -86 53 -35 q -28 -176 -1 -137 l -54 -176 z "},"-":{"ha":364,"x_min":33,"x_max":326,"o":"m 33 360 l 33 394 l 326 394 l 326 360 l 33 360 z "},".":{"ha":214,"x_min":22,"x_max":88,"o":"m 47 -1 q 29 8 36 -1 q 22 32 22 17 q 32 73 22 51 q 63 94 42 94 q 81 86 74 94 q 88 60 88 78 q 78 20 88 42 q 47 -1 68 -1 z "},"/":{"ha":406,"x_min":-62,"x_max":497,"o":"m -62 3 l 461 989 l 497 989 l -26 3 l -62 3 z "},":":{"ha":213,"x_min":3,"x_max":204,"o":"m 164 639 q 146 648 153 639 q 139 672 139 657 q 143 700 139 686 q 156 724 147 714 q 179 735 165 735 q 197 726 190 735 q 204 700 204 718 q 194 660 204 682 q 164 639 185 639 m 28 -1 q 10 8 17 -1 q 3 32 3 17 q 13 73 3 51 q 43 94 22 94 q 61 86 54 94 q 68 60 68 78 q 58 20 68 42 q 28 -1 49 -1 z "},";":{"ha":217,"x_min":-62,"x_max":213,"o":"m -62 -176 q -14 -83 -39 -136 q 32 26 11 -29 q 64 126 53 81 l 97 126 l 103 111 q 67 18 90 71 q 17 -86 44 -35 q -36 -176 -10 -137 l -62 -176 m 172 639 q 154 648 161 639 q 147 672 147 657 q 151 700 147 686 q 165 724 156 714 q 188 735 174 735 q 206 726 199 735 q 213 700 213 718 q 203 660 213 682 q 172 639 193 639 z "},"<":{"ha":554,"x_min":40,"x_max":513,"o":"m 513 206 l 40 493 l 40 524 l 513 775 l 513 736 l 81 508 l 513 244 l 513 206 z "},"=":{"ha":554,"x_min":40,"x_max":513,"o":"m 40 621 l 40 657 l 513 657 l 513 621 l 40 621 m 40 322 l 40 358 l 513 358 l 513 322 l 40 322 z "},">":{"ha":554,"x_min":40,"x_max":513,"o":"m 40 244 l 475 507 l 40 736 l 40 775 l 513 524 l 513 493 l 40 206 l 40 244 z "},"?":{"ha":335,"x_min":18,"x_max":392,"o":"m 60 231 q 90 353 74 303 q 133 451 106 404 q 207 556 161 499 q 287 660 254 614 q 337 752 319 706 q 354 857 354 799 q 325 941 354 911 q 247 971 296 971 q 185 960 211 971 q 138 935 158 950 l 121 964 q 179 994 146 983 q 251 1006 213 1006 q 354 967 317 1006 q 392 858 392 928 q 372 747 392 799 q 318 647 353 696 q 238 540 283 597 q 163 440 190 483 q 121 348 136 396 q 93 231 106 300 l 60 231 m 43 -1 q 25 8 32 -1 q 18 32 18 17 q 28 73 18 51 q 58 94 38 94 q 76 86 69 94 q 83 60 83 78 q 74 20 83 42 q 43 -1 64 -1 z "},"@":{"ha":707,"x_min":35,"x_max":683,"o":"m 242 -125 q 149 -104 188 -125 q 84 -44 110 -83 q 47 53 58 -4 q 35 183 35 111 q 53 404 35 290 q 107 624 71 518 q 197 814 143 729 q 320 948 250 899 q 476 997 390 997 q 592 965 546 997 q 660 869 638 933 q 683 703 683 804 q 674 570 683 643 q 645 425 664 497 q 600 292 626 353 q 540 196 574 232 q 465 160 506 160 q 410 193 424 160 q 397 285 396 226 l 396 281 q 352 192 381 228 q 283 157 324 157 q 227 188 249 157 q 206 289 206 219 q 215 390 206 333 q 244 502 225 446 q 293 606 264 558 q 359 683 322 654 q 442 713 396 713 q 484 708 461 713 q 525 697 507 704 l 454 418 q 434 323 440 361 q 428 265 428 285 q 437 212 428 229 q 469 194 446 194 q 525 228 499 194 q 573 316 551 261 q 611 438 594 371 q 637 572 628 504 q 646 700 646 640 q 626 852 646 794 q 569 936 607 910 q 474 963 531 963 q 332 915 396 963 q 220 788 268 868 q 139 606 172 707 q 89 396 106 504 q 72 185 72 288 q 90 40 72 103 q 144 -56 107 -22 q 244 -90 182 -90 q 313 -81 281 -90 q 360 -61 344 -71 l 360 -97 q 311 -116 340 -107 q 242 -125 282 -125 m 292 192 q 357 257 322 192 q 425 453 392 322 l 482 672 q 463 676 474 675 q 438 678 451 678 q 356 637 392 678 q 295 534 321 596 q 256 407 269 472 q 243 292 243 342 q 256 215 243 239 q 292 192 268 192 z "},"A":{"ha":453,"x_min":-94,"x_max":360,"o":"m -94 0 l 314 996 l 360 996 l 357 0 l 321 0 l 322 394 l 107 394 l -56 0 l -94 0 m 119 429 l 321 429 l 325 842 q 325 897 325 871 q 326 942 325 924 l 324 942 q 308 899 318 924 q 285 840 299 874 l 119 429 z "},"B":{"ha":519,"x_min":6,"x_max":525,"o":"m 6 0 l 214 992 l 343 992 q 447 969 407 992 q 506 906 486 946 q 525 811 525 865 q 504 685 525 747 q 440 579 483 624 q 328 519 396 535 l 328 517 q 413 460 381 506 q 446 336 446 414 q 415 168 446 244 q 319 46 383 92 q 153 0 254 0 l 6 0 m 154 35 q 306 79 250 35 q 385 192 361 124 q 408 332 408 260 q 361 466 408 428 q 238 504 314 504 l 149 504 l 49 35 l 154 35 m 250 539 q 390 580 338 539 q 465 683 442 621 q 488 808 488 746 q 451 919 488 881 q 336 957 414 957 l 243 957 l 156 539 l 250 539 z "},"C":{"ha":468,"x_min":51,"x_max":578,"o":"m 254 -14 q 142 19 188 -14 q 74 124 97 53 q 51 311 51 196 q 67 475 51 383 q 113 660 82 567 q 193 831 144 753 q 309 958 242 910 q 464 1007 376 1007 q 531 997 504 1007 q 578 972 558 988 l 556 942 q 517 965 542 957 q 461 972 493 972 q 326 927 386 972 q 222 808 267 882 q 148 647 178 735 q 103 470 118 558 q 89 311 89 382 q 131 89 89 157 q 257 21 172 21 q 303 26 279 21 q 358 43 328 32 l 358 6 q 306 -9 331 -4 q 254 -14 281 -14 z "},"D":{"ha":571,"x_min":4,"x_max":544,"o":"m 4 0 l 214 992 l 318 992 q 485 926 426 992 q 544 707 544 860 q 531 533 544 628 q 487 344 517 439 q 407 172 457 250 q 285 47 357 94 q 118 0 214 0 l 4 0 m 117 35 q 267 79 203 35 q 377 197 332 124 q 451 359 422 269 q 492 539 479 449 q 506 707 506 629 q 456 903 506 849 q 311 957 407 957 l 244 957 l 47 35 l 117 35 z "},"E":{"ha":469,"x_min":3,"x_max":526,"o":"m 3 0 l 214 992 l 526 992 l 519 957 l 243 957 l 154 539 l 413 539 l 404 504 l 146 504 l 46 35 l 322 35 l 315 0 l 3 0 z "},"F":{"ha":433,"x_min":3,"x_max":528,"o":"m 3 0 l 214 992 l 528 992 l 521 957 l 243 957 l 143 492 l 404 492 l 397 457 l 136 457 l 39 0 l 3 0 z "},"G":{"ha":628,"x_min":50,"x_max":658,"o":"m 296 -14 q 113 63 175 -14 q 50 299 50 140 q 68 506 50 403 q 122 699 86 608 q 210 858 158 789 q 331 967 263 928 q 485 1007 400 1007 q 587 990 546 1007 q 658 949 628 972 l 636 919 q 569 958 606 943 q 485 972 533 972 q 315 915 389 972 q 191 760 242 857 q 114 544 140 663 q 88 303 88 425 q 112 142 88 204 q 184 50 136 79 q 301 21 232 21 q 372 27 339 21 q 435 44 404 33 l 521 454 l 383 454 l 392 489 l 565 489 l 465 17 q 389 -6 429 3 q 296 -14 349 -14 z "},"H":{"ha":611,"x_min":3,"x_max":631,"o":"m 3 0 l 214 992 l 250 992 l 154 539 l 499 539 l 594 992 l 631 992 l 419 0 l 383 0 l 490 504 l 146 504 l 39 0 l 3 0 z "},"I":{"ha":229,"x_min":-81,"x_max":328,"o":"m -81 0 l -75 26 l 8 31 l 206 960 l 125 965 l 131 992 l 328 992 l 322 965 l 240 960 l 43 31 l 122 26 l 117 0 l -81 0 z "},"J":{"ha":214,"x_min":-197,"x_max":250,"o":"m -128 -239 q -167 -234 -149 -239 q -197 -222 -185 -229 l -186 -190 q -158 -200 -174 -196 q -125 -204 -142 -204 q -72 -189 -93 -204 q -34 -137 -50 -174 q -4 -40 -18 -101 l 214 992 l 250 992 l 29 -51 q -3 -157 17 -115 q -53 -219 -24 -199 q -128 -239 -83 -239 z "},"K":{"ha":481,"x_min":3,"x_max":581,"o":"m 3 0 l 214 992 l 250 992 l 133 442 l 229 575 l 536 992 l 581 992 l 258 556 l 386 0 l 346 0 l 229 524 l 122 392 l 39 0 l 3 0 z "},"L":{"ha":419,"x_min":3,"x_max":307,"o":"m 3 0 l 214 992 l 250 992 l 46 35 l 307 35 l 300 0 l 3 0 z "},"M":{"ha":815,"x_min":3,"x_max":835,"o":"m 3 0 l 214 992 l 267 992 l 318 44 l 322 44 l 776 992 l 835 992 l 624 0 l 588 0 l 757 797 q 765 835 761 817 q 775 876 769 854 q 786 925 781 899 l 783 925 l 340 0 l 283 0 l 236 926 l 233 926 q 225 878 229 899 q 217 841 221 858 q 210 803 214 824 l 39 0 l 3 0 z "},"N":{"ha":640,"x_min":3,"x_max":660,"o":"m 3 0 l 214 992 l 260 992 l 428 82 l 431 82 q 444 145 438 114 q 456 205 450 176 q 465 253 461 233 l 622 992 l 660 992 l 449 0 l 404 0 l 238 921 l 235 921 q 229 891 232 907 q 222 856 226 875 q 213 813 218 836 q 201 760 208 789 l 40 0 l 3 0 z "},"O":{"ha":617,"x_min":47,"x_max":589,"o":"m 222 -14 q 126 15 165 -14 q 67 105 88 44 q 47 258 47 165 q 57 402 47 322 q 86 566 67 482 q 135 728 106 650 q 206 869 165 806 q 300 969 247 932 q 417 1006 353 1006 q 544 947 500 1006 q 589 753 589 888 q 580 610 589 690 q 553 443 571 529 q 506 276 535 357 q 435 129 476 194 q 342 25 394 64 q 222 -14 289 -14 m 226 21 q 329 58 283 21 q 411 157 375 94 q 474 297 447 219 q 517 456 500 374 q 543 614 535 538 q 551 750 551 690 q 518 919 551 868 q 414 971 485 971 q 310 934 357 971 q 228 836 264 897 q 165 699 192 775 q 120 542 138 622 q 94 390 103 463 q 85 261 85 317 q 101 124 85 176 q 149 46 117 71 q 226 21 181 21 z "},"P":{"ha":489,"x_min":4,"x_max":508,"o":"m 4 0 l 214 992 l 304 992 q 419 968 374 992 q 486 899 464 944 q 508 789 508 854 q 488 643 508 710 q 427 528 467 576 q 330 452 388 479 q 197 425 272 425 l 131 425 l 40 0 l 4 0 m 194 460 q 351 503 290 460 q 441 622 413 547 q 469 788 469 697 q 432 911 469 865 q 300 957 394 957 l 244 957 l 138 460 l 194 460 z "},"Q":{"ha":617,"x_min":47,"x_max":589,"o":"m 254 -11 q 239 -13 247 -12 q 222 -14 231 -14 q 126 15 165 -14 q 67 105 88 44 q 47 258 47 165 q 57 402 47 322 q 86 566 67 482 q 135 728 106 650 q 206 869 165 806 q 300 969 247 932 q 417 1006 353 1006 q 544 947 500 1006 q 589 753 589 888 q 578 594 589 685 q 545 410 568 504 q 487 230 522 315 q 402 83 451 144 q 288 -3 353 21 l 356 -236 l 319 -237 l 254 -11 m 226 21 q 329 58 283 21 q 411 157 375 94 q 474 297 447 219 q 517 456 500 374 q 543 614 535 538 q 551 750 551 690 q 518 919 551 868 q 414 971 485 971 q 310 934 357 971 q 228 836 264 897 q 165 699 192 775 q 120 542 138 622 q 94 390 103 463 q 85 261 85 317 q 101 124 85 176 q 149 46 117 71 q 226 21 181 21 z "},"R":{"ha":496,"x_min":4,"x_max":506,"o":"m 4 0 l 214 992 l 318 992 q 453 942 401 992 q 506 790 506 892 q 481 638 506 710 q 409 515 457 565 q 289 451 361 465 l 368 0 l 331 0 l 253 446 l 135 446 l 40 0 l 4 0 m 242 481 q 347 509 304 481 q 417 583 390 538 q 456 683 443 629 q 468 786 468 736 q 427 917 468 876 q 306 957 386 957 l 244 957 l 143 481 l 242 481 z "},"S":{"ha":474,"x_min":-40,"x_max":510,"o":"m 125 -14 q 29 -3 71 -14 q -40 22 -12 8 l -40 63 q 33 33 -8 44 q 128 21 74 21 q 218 36 178 21 q 287 81 258 51 q 330 154 315 111 q 344 253 344 197 q 332 332 344 296 q 294 405 319 368 q 228 488 268 442 q 165 568 192 531 q 122 649 138 606 q 107 750 107 693 q 126 862 107 814 q 177 942 144 910 q 253 990 210 974 q 349 1006 297 1006 q 445 992 403 1006 q 510 963 488 978 l 490 929 q 432 958 468 944 q 346 971 396 971 q 265 957 301 971 q 201 915 228 943 q 159 847 174 888 q 144 753 144 807 q 158 665 144 704 q 197 587 171 625 q 265 501 224 549 q 326 425 300 464 q 367 344 351 386 q 382 254 382 303 q 364 141 382 190 q 313 57 346 92 q 231 4 279 22 q 125 -14 183 -14 z "},"T":{"ha":408,"x_min":90,"x_max":515,"o":"m 90 0 l 294 957 l 118 957 l 125 992 l 515 992 l 508 957 l 331 957 l 126 0 l 90 0 z "},"U":{"ha":588,"x_min":43,"x_max":615,"o":"m 214 -14 q 126 6 165 -14 q 65 66 88 26 q 43 164 43 106 q 47 222 43 189 q 58 290 51 254 l 208 992 l 244 992 l 94 290 q 84 223 88 256 q 81 165 81 190 q 118 57 81 93 q 215 21 156 21 q 322 56 282 21 q 386 156 361 90 q 431 314 411 221 l 579 992 l 615 992 l 467 313 q 417 140 446 214 q 340 26 388 67 q 214 -14 293 -14 z "},"V":{"ha":478,"x_min":117,"x_max":588,"o":"m 117 0 l 117 992 l 153 992 l 150 171 q 150 125 150 146 q 150 85 150 104 q 149 47 150 67 l 151 47 q 178 118 163 79 q 210 194 194 157 l 549 992 l 588 992 l 165 0 l 117 0 z "},"W":{"ha":831,"x_min":103,"x_max":931,"o":"m 103 0 l 117 992 l 153 992 l 140 196 q 138 108 139 144 q 136 47 138 72 l 139 47 q 171 135 154 92 q 200 211 188 179 l 508 992 l 544 992 l 519 238 q 517 171 518 203 q 515 107 515 139 q 511 40 514 75 l 514 40 q 536 101 525 71 q 562 167 547 132 q 594 250 576 203 l 890 992 l 931 992 l 531 0 l 478 0 l 504 779 q 506 822 506 801 q 508 864 507 843 q 510 907 508 885 l 507 907 q 487 849 497 879 q 465 793 476 819 l 156 0 l 103 0 z "},"X":{"ha":421,"x_min":-81,"x_max":519,"o":"m -81 0 l 217 526 l 164 992 l 200 992 l 246 560 l 481 992 l 519 992 l 260 517 l 308 0 l 272 0 l 229 479 l -42 0 l -81 0 z "},"Y":{"ha":401,"x_min":88,"x_max":518,"o":"m 88 0 l 169 386 l 114 992 l 150 992 l 197 443 l 478 992 l 518 992 l 206 386 l 124 0 l 88 0 z "},"Z":{"ha":424,"x_min":-58,"x_max":506,"o":"m -58 0 l -51 33 l 457 956 l 161 956 l 169 992 l 506 992 l 499 957 l -8 35 l 311 35 l 304 0 l -58 0 z "},"[":{"ha":381,"x_min":-24,"x_max":465,"o":"m -24 -219 l 235 992 l 465 992 l 458 958 l 263 958 l 18 -186 l 214 -186 l 207 -219 l -24 -219 z "},"\\":{"ha":443,"x_min":143,"x_max":325,"o":"m 288 0 l 143 992 l 178 992 l 325 0 l 288 0 z "},"]":{"ha":381,"x_min":-85,"x_max":404,"o":"m -85 -219 l -78 -186 l 118 -186 l 363 958 l 167 958 l 174 992 l 404 992 l 146 -219 l -85 -219 z "},"^":{"ha":543,"x_min":35,"x_max":535,"o":"m 35 517 l 278 990 l 311 990 l 535 517 l 490 517 l 293 946 l 78 517 l 35 517 z "},"_":{"ha":363,"x_min":-104,"x_max":251,"o":"m -104 -161 l -104 -126 l 251 -126 l 251 -161 l -104 -161 z "},"`":{"ha":285,"x_min":203,"x_max":331,"o":"m 314 842 q 276 903 296 868 q 236 977 256 939 q 203 1050 217 1015 l 203 1060 l 236 1060 q 266 987 251 1022 q 297 918 281 951 q 331 853 313 885 l 331 842 l 314 842 z "},"a":{"ha":526,"x_min":40,"x_max":513,"o":"m 175 -14 q 102 10 132 -14 q 56 79 72 33 q 40 192 40 125 q 52 332 40 257 q 88 480 64 407 q 146 613 111 553 q 227 708 181 672 q 332 744 274 744 q 396 727 371 744 q 435 681 421 710 q 453 617 449 653 l 457 617 l 483 731 l 513 731 l 358 0 l 329 0 l 351 125 l 349 125 q 301 51 326 82 q 246 3 276 19 q 175 -14 215 -14 m 179 21 q 274 63 235 21 q 340 170 313 104 q 386 311 368 236 q 415 449 403 379 q 428 578 428 519 q 402 674 428 638 q 331 710 376 710 q 242 676 282 710 q 171 585 201 642 q 119 460 140 528 q 88 322 99 392 q 78 194 78 253 q 106 61 78 101 q 179 21 135 21 z "},"b":{"ha":517,"x_min":8,"x_max":481,"o":"m 196 -14 q 126 4 154 -14 q 85 52 99 22 q 68 119 71 82 l 65 119 l 38 0 l 8 0 l 231 1056 l 267 1056 l 186 675 q 179 644 182 657 q 174 623 176 632 q 169 606 172 614 l 172 606 q 215 676 190 644 q 273 726 240 707 q 346 744 306 744 q 419 722 389 744 q 465 654 449 700 q 481 539 481 608 q 469 410 481 483 q 436 263 458 338 q 381 126 414 189 q 301 25 347 64 q 196 -14 254 -14 m 197 21 q 287 58 247 21 q 356 154 326 94 q 404 283 385 214 q 433 419 424 353 q 443 536 443 486 q 415 672 443 633 q 342 710 386 710 q 260 678 296 710 q 197 593 224 646 q 149 478 169 540 q 117 356 129 417 q 99 247 104 296 q 93 175 93 199 q 119 62 93 103 q 197 21 146 21 z "},"c":{"ha":374,"x_min":42,"x_max":414,"o":"m 193 -14 q 109 8 143 -14 q 58 77 75 29 q 42 204 42 125 q 53 343 42 269 q 87 488 64 417 q 144 617 110 558 q 226 710 179 675 q 331 744 272 744 q 376 740 354 744 q 414 729 399 736 l 401 694 q 367 706 385 703 q 331 710 350 710 q 224 662 271 710 q 144 538 176 614 q 94 374 111 461 q 78 207 78 286 q 91 98 78 139 q 131 39 104 57 q 196 21 157 21 q 242 26 219 21 q 285 42 265 32 l 285 6 q 245 -8 268 -1 q 193 -14 222 -14 z "},"d":{"ha":526,"x_min":40,"x_max":581,"o":"m 175 -14 q 102 10 132 -14 q 56 79 72 33 q 40 192 40 125 q 52 332 40 257 q 88 480 64 407 q 146 613 111 553 q 227 708 181 672 q 332 744 274 744 q 393 729 368 744 q 433 687 418 714 q 451 626 447 660 l 456 626 q 465 674 460 649 q 474 724 469 699 q 485 775 479 750 l 544 1056 l 581 1056 l 358 0 l 329 0 l 351 129 l 349 129 q 302 53 328 86 q 246 3 276 21 q 175 -14 215 -14 m 179 21 q 261 54 225 21 q 325 142 297 88 q 372 262 353 197 q 404 390 392 326 q 422 503 417 453 q 428 578 428 553 q 402 674 428 638 q 331 710 376 710 q 242 676 282 710 q 171 585 201 642 q 119 460 140 528 q 88 322 99 392 q 78 194 78 253 q 106 61 78 101 q 179 21 135 21 z "},"e":{"ha":453,"x_min":38,"x_max":429,"o":"m 194 -14 q 109 9 144 -14 q 56 78 74 32 q 38 197 38 125 q 60 407 38 308 q 122 582 83 506 q 213 701 161 658 q 319 744 264 744 q 399 716 368 744 q 429 621 429 688 q 410 524 429 572 q 352 437 392 476 q 249 373 313 397 q 96 349 186 349 l 88 349 q 78 281 82 317 q 75 204 75 244 q 106 65 75 108 q 201 21 136 21 q 263 31 233 21 q 318 57 292 42 l 318 17 q 265 -5 296 4 q 194 -14 235 -14 m 100 383 q 271 419 207 383 q 363 510 335 456 q 392 619 392 564 q 374 686 392 663 q 318 710 356 710 q 225 666 269 710 q 146 549 181 622 q 93 383 111 475 l 100 383 z "},"f":{"ha":256,"x_min":-182,"x_max":419,"o":"m -129 -333 q -160 -331 -147 -333 q -182 -325 -174 -328 l -182 -290 q -159 -297 -171 -294 q -129 -299 -147 -299 q -53 -256 -76 -299 q -15 -144 -29 -212 l 165 696 l 82 696 l 88 724 l 172 732 l 206 882 q 229 962 217 928 q 259 1018 242 996 q 300 1051 276 1040 q 356 1063 324 1063 q 391 1058 372 1063 q 419 1049 410 1053 l 406 1015 q 381 1024 396 1021 q 350 1028 365 1028 q 278 987 301 1028 q 239 871 256 946 l 208 731 l 304 731 l 297 696 l 201 696 l 21 -149 q -7 -241 10 -199 q -52 -308 -24 -283 q -129 -333 -81 -333 z "},"g":{"ha":524,"x_min":-25,"x_max":513,"o":"m 104 -333 q 28 -322 64 -333 q -25 -300 -7 -310 l -25 -260 q 8 -277 -12 -268 q 53 -292 28 -286 q 104 -299 78 -299 q 242 -239 199 -299 q 311 -57 285 -179 l 331 33 q 340 73 333 47 q 351 125 346 99 l 349 125 q 301 51 326 82 q 246 3 276 19 q 175 -14 215 -14 q 102 10 132 -14 q 56 79 72 33 q 40 192 40 125 q 52 332 40 257 q 88 480 64 407 q 146 613 111 553 q 227 708 181 672 q 332 744 274 744 q 396 727 371 744 q 435 681 421 710 q 453 617 449 653 l 457 617 l 483 731 l 513 731 l 343 -68 q 297 -211 325 -151 q 222 -302 268 -271 q 104 -333 176 -333 m 179 21 q 261 55 225 21 q 325 144 297 89 q 372 265 353 200 q 404 393 392 331 q 422 506 417 456 q 428 578 428 556 q 402 674 428 638 q 331 710 376 710 q 242 676 282 710 q 171 585 201 642 q 119 460 140 528 q 88 322 99 392 q 78 194 78 253 q 105 61 78 101 q 179 21 132 21 z "},"h":{"ha":497,"x_min":10,"x_max":456,"o":"m 10 0 l 233 1056 l 269 1056 l 197 726 q 190 692 194 708 q 182 658 186 675 q 174 622 178 640 l 176 622 q 217 688 193 661 q 274 730 242 715 q 342 744 306 744 q 401 732 376 744 q 441 694 426 719 q 456 632 456 669 q 447 550 456 600 q 428 457 438 500 l 331 0 l 294 0 l 394 471 q 411 553 403 511 q 419 629 419 594 q 397 690 419 669 q 338 710 375 710 q 247 675 286 710 q 181 572 208 640 q 131 399 153 503 l 46 0 l 10 0 z "},"i":{"ha":215,"x_min":8,"x_max":260,"o":"m 8 0 l 164 731 l 200 731 l 44 0 l 8 0 m 219 893 q 201 902 208 893 q 194 926 194 911 q 199 954 194 940 q 212 978 203 968 q 235 989 221 989 q 253 981 246 989 q 260 954 260 972 q 250 915 260 936 q 219 893 240 893 z "},"j":{"ha":224,"x_min":-185,"x_max":268,"o":"m -137 -333 q -165 -331 -153 -333 q -185 -328 -178 -329 l -185 -290 q -163 -297 -174 -294 q -137 -299 -153 -299 q -76 -278 -100 -299 q -33 -209 -51 -258 q 1 -72 -15 -160 l 172 731 l 208 731 l 38 -74 q -3 -224 17 -167 q -53 -308 -22 -282 q -137 -333 -85 -333 m 228 893 q 210 902 217 893 q 203 926 203 911 q 207 954 203 940 q 220 978 211 968 q 243 989 229 989 q 261 981 254 989 q 268 954 268 972 q 258 915 268 936 q 228 893 249 893 z "},"k":{"ha":411,"x_min":7,"x_max":461,"o":"m 7 0 l 232 1056 l 268 1056 l 150 501 q 131 411 140 453 q 111 325 122 369 l 113 325 l 421 731 l 461 731 l 249 449 l 321 0 l 285 0 l 218 413 l 99 263 l 43 0 l 7 0 z "},"l":{"ha":206,"x_min":7,"x_max":268,"o":"m 7 0 l 232 1056 l 268 1056 l 43 0 l 7 0 z "},"m":{"ha":757,"x_min":8,"x_max":715,"o":"m 8 0 l 163 731 l 193 731 l 175 632 l 178 632 q 217 693 194 668 q 269 731 240 718 q 329 744 297 744 q 409 719 381 744 q 440 646 438 693 l 443 646 q 480 699 458 676 q 531 733 501 721 q 594 744 560 744 q 679 717 643 744 q 715 629 715 689 q 711 583 715 611 q 703 535 707 554 l 589 0 l 553 0 l 667 536 q 676 587 674 565 q 679 625 679 608 q 654 689 679 668 q 589 710 629 710 q 528 695 554 710 q 484 655 503 681 q 453 597 465 629 q 432 526 440 564 l 317 0 l 281 0 l 403 563 q 408 597 407 581 q 410 626 410 614 q 388 688 410 667 q 326 710 367 710 q 252 686 283 710 q 199 621 221 663 q 160 524 176 579 q 131 404 144 468 l 44 0 l 8 0 z "},"n":{"ha":496,"x_min":8,"x_max":454,"o":"m 8 0 l 163 731 l 192 731 l 172 622 l 175 622 q 216 688 192 661 q 272 730 240 715 q 340 744 304 744 q 400 732 375 744 q 440 694 425 719 q 454 632 454 669 q 445 550 454 600 q 426 457 436 500 l 329 0 l 293 0 l 393 471 q 410 553 401 511 q 418 629 418 594 q 396 690 418 669 q 336 710 374 710 q 246 675 285 710 q 179 572 207 640 q 129 399 151 503 l 44 0 l 8 0 z "},"o":{"ha":499,"x_min":39,"x_max":460,"o":"m 182 -14 q 106 7 139 -14 q 56 73 74 28 q 39 190 39 118 q 48 311 39 240 q 77 458 57 382 q 131 599 97 533 q 211 704 164 664 q 322 744 258 744 q 396 723 365 744 q 443 656 426 701 q 460 539 460 611 q 449 401 460 475 q 417 253 439 326 q 362 119 394 179 q 284 22 329 58 q 182 -14 239 -14 m 183 21 q 271 56 232 21 q 338 150 310 92 q 385 278 367 208 q 413 416 404 347 q 422 539 422 485 q 410 634 422 596 q 376 691 399 672 q 319 710 354 710 q 228 672 268 710 q 160 572 189 633 q 113 439 132 510 q 85 302 94 368 q 76 190 76 236 q 104 63 76 106 q 183 21 132 21 z "},"p":{"ha":518,"x_min":-57,"x_max":482,"o":"m -57 -317 l 164 731 l 193 731 l 171 601 l 174 601 q 221 678 196 646 q 277 727 246 710 q 347 744 308 744 q 420 721 390 744 q 466 651 450 697 q 482 539 482 606 q 470 399 482 474 q 435 251 458 324 q 376 118 411 178 q 295 22 342 58 q 190 -14 249 -14 q 129 2 154 -14 q 90 44 104 18 q 71 104 76 71 l 67 104 q 53 32 61 71 q 38 -44 46 -7 l -21 -317 l -57 -317 m 192 21 q 281 55 240 21 q 351 146 321 89 q 403 271 382 203 q 434 408 424 339 q 444 536 444 478 q 416 669 444 629 q 343 710 388 710 q 261 676 297 710 q 197 588 225 643 q 150 469 169 533 q 118 341 131 404 q 100 228 106 278 q 94 153 94 178 q 120 57 94 93 q 192 21 146 21 z "},"q":{"ha":528,"x_min":40,"x_max":513,"o":"m 335 56 q 342 86 339 74 q 347 108 344 99 q 351 125 350 117 l 349 125 q 306 56 331 88 q 248 5 281 24 q 175 -14 215 -14 q 102 8 132 -14 q 56 76 72 31 q 40 192 40 122 q 51 320 40 247 q 85 467 63 393 q 140 604 107 542 q 220 706 174 667 q 325 744 267 744 q 394 726 367 744 q 437 678 422 708 q 453 611 451 649 l 456 611 l 483 731 l 513 731 l 290 -325 l 254 -325 l 335 56 m 179 21 q 261 53 225 21 q 324 138 297 85 q 372 252 351 190 q 404 374 392 314 q 422 483 417 435 q 428 556 428 532 q 401 669 428 629 q 324 710 375 710 q 234 673 274 710 q 165 576 194 636 q 117 447 136 517 q 88 311 97 378 q 78 194 78 244 q 106 59 78 97 q 179 21 135 21 z "},"r":{"ha":324,"x_min":8,"x_max":385,"o":"m 8 0 l 163 731 l 192 731 l 168 607 l 171 607 q 213 681 189 650 q 269 728 238 711 q 336 744 300 744 q 365 742 353 744 q 385 736 378 739 l 376 703 q 359 708 369 706 q 336 710 349 710 q 254 680 289 710 q 195 602 219 650 q 155 499 171 554 q 128 392 139 443 l 44 0 l 8 0 z "},"s":{"ha":381,"x_min":-22,"x_max":393,"o":"m 106 -14 q 28 -3 61 -14 q -22 17 -6 7 l -22 60 q 31 33 -3 46 q 106 21 64 21 q 189 40 157 21 q 237 97 221 60 q 253 186 253 133 q 243 248 253 221 q 214 303 233 275 q 165 367 194 331 q 123 424 143 396 q 91 487 103 453 q 79 564 79 521 q 101 656 79 615 q 163 720 122 696 q 258 744 203 744 q 339 732 307 744 q 393 706 371 719 l 371 674 q 326 698 353 686 q 256 710 299 710 q 154 671 192 710 q 117 567 117 632 q 125 506 117 535 q 150 451 133 478 q 190 394 167 425 q 244 325 222 356 q 278 263 267 294 q 290 188 290 231 q 268 77 290 122 q 205 9 246 32 q 106 -14 164 -14 z "},"t":{"ha":251,"x_min":21,"x_max":278,"o":"m 101 -14 q 42 8 64 -14 q 21 74 21 31 q 26 127 21 96 q 38 192 31 158 l 146 696 l 81 696 l 88 728 l 151 732 l 197 910 l 226 910 l 189 731 l 278 731 l 271 696 l 182 696 l 74 189 q 62 125 67 153 q 57 78 57 97 q 69 36 57 51 q 107 21 81 21 q 135 24 124 21 q 157 29 147 26 l 157 -4 q 133 -11 146 -8 q 101 -14 119 -14 z "},"u":{"ha":497,"x_min":36,"x_max":482,"o":"m 150 -14 q 91 -1 117 -14 q 51 36 65 11 q 36 99 36 61 q 45 181 36 131 q 64 274 54 231 l 161 731 l 197 731 l 97 260 q 81 178 89 219 q 72 101 72 138 q 94 41 72 61 q 154 21 117 21 q 245 56 207 21 q 312 160 283 90 q 361 332 340 229 l 446 731 l 482 731 l 328 0 l 299 0 l 318 108 l 315 108 q 275 43 300 71 q 218 1 250 15 q 150 -14 186 -14 z "},"v":{"ha":376,"x_min":79,"x_max":444,"o":"m 83 0 l 79 731 l 114 731 l 117 229 q 117 178 117 204 q 117 126 117 153 q 115 68 117 99 l 119 68 q 140 120 129 94 q 161 172 150 146 q 183 224 172 199 l 407 731 l 444 731 l 124 0 l 83 0 z "},"w":{"ha":639,"x_min":82,"x_max":701,"o":"m 82 -1 l 88 731 l 121 731 l 117 218 q 116 140 117 178 q 114 67 115 103 l 117 67 q 134 115 124 88 q 156 171 144 142 q 178 225 168 200 l 386 731 l 422 731 l 414 217 q 412 146 414 190 q 407 65 410 101 l 410 65 q 426 110 418 88 q 444 158 435 133 q 464 210 454 183 l 665 731 l 701 731 l 414 -1 l 378 -1 l 388 542 q 388 581 388 560 q 389 624 388 601 q 392 668 390 647 l 390 668 q 376 627 383 647 q 360 586 368 607 q 343 543 353 565 l 121 -1 l 82 -1 z "},"x":{"ha":394,"x_min":-60,"x_max":440,"o":"m -60 0 l 178 382 l 111 731 l 147 731 l 206 410 l 400 731 l 440 731 l 219 372 l 292 0 l 256 0 l 192 343 l -19 0 l -60 0 z "},"y":{"ha":408,"x_min":-160,"x_max":478,"o":"m -101 -337 q -137 -333 -122 -337 q -160 -324 -153 -329 l -151 -289 q -129 -299 -142 -294 q -99 -303 -117 -303 q -23 -272 -54 -303 q 42 -164 8 -240 l 121 18 l 113 731 l 149 731 l 153 196 q 153 161 153 181 q 153 120 153 142 q 151 79 153 99 l 154 79 q 172 122 163 100 q 190 165 181 144 q 206 200 199 185 l 440 731 l 478 731 l 76 -175 q 26 -269 51 -233 q -30 -321 0 -304 q -101 -337 -60 -337 z "},"z":{"ha":319,"x_min":-46,"x_max":364,"o":"m -46 0 l -39 33 l 319 696 l 122 696 l 129 731 l 364 731 l 357 697 l -1 35 l 219 35 l 213 0 l -46 0 z "},"{":{"ha":431,"x_min":46,"x_max":515,"o":"m 244 -219 q 129 -186 167 -219 q 92 -89 92 -153 q 94 -53 92 -72 q 101 -14 97 -35 l 149 208 q 157 253 154 233 q 160 290 160 274 q 134 351 160 335 q 46 368 108 368 l 53 403 q 166 431 131 403 q 219 542 201 458 l 278 815 q 319 918 292 879 q 393 974 347 957 q 506 992 439 992 l 515 992 l 507 957 q 373 922 415 957 q 313 804 331 886 l 254 526 q 211 427 240 463 q 128 385 182 392 l 128 383 q 178 355 160 376 q 197 289 197 333 q 195 258 197 275 q 189 222 193 242 l 139 -15 q 132 -55 135 -37 q 129 -87 129 -72 q 161 -164 129 -143 q 265 -185 193 -185 l 257 -219 l 244 -219 z "},"|":{"ha":476,"x_min":217,"x_max":253,"o":"m 217 -339 l 217 1057 l 253 1057 l 253 -339 l 217 -339 z "},"}":{"ha":428,"x_min":-92,"x_max":378,"o":"m -83 -185 q 17 -169 -22 -185 q 78 -120 56 -154 q 111 -32 100 -86 l 169 244 q 213 344 183 308 q 296 386 242 379 l 296 388 q 246 416 265 394 q 226 482 226 438 q 228 514 226 497 q 235 549 231 531 l 285 788 q 292 827 289 810 q 294 860 294 844 q 263 936 294 915 q 158 957 231 957 l 167 992 l 179 992 q 265 976 232 992 q 315 933 299 961 q 332 861 332 904 q 329 826 332 844 q 322 786 326 807 l 275 563 q 267 517 269 538 q 264 481 264 497 q 290 420 264 438 q 378 403 315 403 l 371 368 q 258 340 293 368 q 204 229 222 313 l 146 -43 q 104 -146 132 -107 q 31 -202 76 -185 q -82 -219 -15 -219 l -92 -219 l -83 -185 z "},"~":{"ha":554,"x_min":42,"x_max":513,"o":"m 281 472 q 228 501 254 489 q 171 514 203 514 q 104 497 136 514 q 42 440 72 479 l 42 486 q 97 531 65 513 q 172 549 129 549 q 234 537 207 549 q 289 507 261 525 q 338 480 317 490 q 386 469 358 469 q 453 486 419 469 q 513 538 488 503 l 513 492 q 460 451 492 468 q 388 435 428 435 q 329 447 354 435 q 281 472 304 458 z "}," ":{"ha":233,"x_min":0,"x_max":0,"o":""},"¡":{"ha":282,"x_min":-12,"x_max":253,"o":"m -12 -250 l 163 511 l 190 511 l 26 -250 l -12 -250 m 213 647 q 194 656 201 647 q 188 682 188 664 q 197 722 188 700 q 228 743 207 743 q 246 734 239 743 q 253 710 253 725 q 243 669 253 690 q 213 647 233 647 z "},"¢":{"ha":475,"x_min":93,"x_max":465,"o":"m 203 135 q 120 197 147 146 q 93 349 93 247 q 103 483 93 411 q 135 623 114 554 q 189 750 157 692 q 265 845 221 808 q 363 888 308 882 l 388 1006 l 424 1006 l 400 889 q 436 884 419 888 q 465 874 453 881 l 453 839 q 419 851 436 847 q 382 854 401 854 q 275 806 322 854 q 195 682 228 758 q 146 518 163 606 q 129 351 129 431 q 158 207 129 249 q 247 165 188 165 q 294 171 271 165 q 336 186 317 176 l 336 150 q 290 135 314 140 q 238 131 265 131 l 207 -14 l 171 -14 l 203 135 z "},"£":{"ha":479,"x_min":-46,"x_max":540,"o":"m -39 31 q 24 65 -3 40 q 72 134 51 89 q 107 251 92 179 l 154 472 l 54 472 l 61 507 l 160 507 l 222 800 q 256 909 236 863 q 313 981 276 956 q 408 1006 349 1006 q 488 988 457 1006 q 540 950 519 971 l 517 924 q 472 956 499 942 q 406 971 446 971 q 304 924 333 971 q 258 800 275 878 l 197 507 l 347 507 l 340 472 l 190 472 l 143 251 q 90 97 121 142 q 32 35 60 51 l 356 35 l 349 0 l -46 0 l -39 31 z "},"¤":{"ha":790,"x_min":96,"x_max":708,"o":"m 579 289 q 494 239 540 256 q 401 222 447 222 q 308 239 354 222 q 224 290 263 256 l 118 186 l 97 208 l 200 311 q 150 399 167 351 q 133 492 133 446 q 150 584 133 538 q 200 669 167 631 l 96 775 l 117 796 l 224 690 q 310 742 264 725 q 401 760 357 760 q 492 743 446 760 q 579 692 539 726 l 685 794 l 707 774 l 603 671 q 654 585 638 632 q 671 492 671 539 q 654 399 671 446 q 603 311 638 351 l 708 206 l 686 185 l 579 289 m 400 254 q 522 288 468 254 q 608 376 576 322 q 640 493 640 431 q 608 610 643 556 q 519 697 574 664 q 403 729 464 731 q 285 698 340 731 q 197 610 231 665 q 165 492 164 556 q 197 371 165 425 q 283 285 229 317 q 400 254 336 254 z "},"¥":{"ha":450,"x_min":26,"x_max":507,"o":"m 108 0 l 156 213 l 26 213 l 33 247 l 163 247 l 194 397 l 67 397 l 75 432 l 194 432 l 172 992 l 207 992 l 226 461 l 468 992 l 507 992 l 249 432 l 371 432 l 364 397 l 231 397 l 199 247 l 331 247 l 324 213 l 192 213 l 144 0 l 108 0 z "},"¦":{"ha":475,"x_min":215,"x_max":253,"o":"m 215 524 l 215 1053 l 253 1053 l 253 524 l 215 524 m 215 -336 l 215 193 l 253 193 l 253 -336 l 215 -336 z "},"§":{"ha":401,"x_min":-26,"x_max":450,"o":"m 103 83 q 24 93 56 83 q -26 113 -7 103 l -26 156 q 26 130 -7 142 q 104 118 58 118 q 225 160 181 118 q 269 268 269 201 q 257 328 269 301 q 222 376 244 354 q 169 421 200 399 q 119 463 143 442 q 79 513 94 485 q 64 578 64 540 q 78 648 64 617 q 122 704 92 679 q 196 749 151 729 q 149 811 163 779 q 135 876 135 843 q 156 967 135 928 q 215 1030 176 1007 q 310 1054 254 1053 q 390 1042 356 1056 q 450 1011 425 1029 l 429 982 q 376 1009 406 999 q 311 1019 347 1019 q 239 1003 269 1019 q 191 956 208 986 q 174 883 174 926 q 199 799 174 829 q 261 742 225 768 q 319 696 294 719 q 357 644 343 672 q 371 582 371 617 q 356 510 371 543 q 313 449 340 476 q 250 400 286 422 q 290 342 274 378 q 307 269 307 307 q 282 174 307 215 q 211 108 257 132 q 103 83 165 83 m 225 425 q 304 494 275 456 q 333 579 333 532 q 319 635 333 611 q 281 681 306 660 q 222 724 256 703 q 155 688 182 708 q 115 640 128 667 q 101 579 101 614 q 117 523 101 547 q 160 476 132 499 q 225 425 188 454 z "},"¨":{"ha":651,"x_min":267,"x_max":503,"o":"m 467 899 q 449 907 456 899 q 442 931 442 915 q 451 969 442 949 q 478 989 460 989 q 496 981 489 989 q 503 957 503 972 q 494 919 503 940 q 467 899 485 899 m 292 899 q 274 907 281 899 q 267 931 267 915 q 276 969 267 949 q 303 989 285 989 q 317 985 311 989 q 325 975 322 982 q 328 957 328 968 q 319 919 328 940 q 292 899 310 899 z "},"©":{"ha":1153,"x_min":68,"x_max":1085,"o":"m 572 -11 q 364 26 457 -11 q 205 133 271 64 q 103 294 139 201 q 68 496 68 386 q 106 704 68 611 q 213 864 144 797 q 375 967 282 931 q 578 1003 468 1003 q 786 964 693 1003 q 946 856 879 925 q 1049 694 1013 786 q 1085 493 1085 601 q 1048 292 1085 385 q 944 132 1011 200 q 782 26 876 64 q 572 -11 688 -11 m 608 199 q 397 274 475 199 q 318 496 318 349 q 351 656 318 589 q 447 758 383 722 q 600 794 510 794 q 692 785 649 794 q 769 758 735 775 l 754 728 q 682 751 722 743 q 599 760 642 760 q 417 690 479 760 q 356 496 356 619 q 424 298 356 364 q 615 232 492 232 q 686 238 650 232 q 764 260 722 244 l 764 228 q 690 206 729 214 q 608 199 650 199 m 572 24 q 768 60 681 24 q 918 160 856 96 q 1015 310 981 225 q 1049 496 1049 396 q 1015 681 1049 594 q 919 831 982 767 q 769 932 857 896 q 575 968 682 968 q 385 933 471 968 q 235 835 299 899 q 138 685 172 772 q 104 496 104 599 q 137 310 104 396 q 231 159 169 224 q 378 59 292 94 q 572 24 465 24 z "},"ª":{"ha":324,"x_min":89,"x_max":411,"o":"m 197 557 q 140 573 164 557 q 102 623 115 589 q 89 711 89 657 q 100 811 89 760 q 133 906 111 863 q 190 976 156 950 q 269 1003 224 1003 q 333 981 314 1003 q 360 931 353 958 l 363 931 l 382 994 l 411 994 l 322 565 l 293 565 l 303 631 l 300 631 q 257 576 282 596 q 197 557 232 557 m 201 592 q 257 615 233 592 q 297 673 281 638 q 322 746 313 708 q 336 815 332 783 q 340 860 340 846 q 324 940 340 911 q 267 968 307 968 q 206 944 232 968 q 161 881 179 919 q 135 797 143 842 q 126 714 126 753 q 147 620 126 649 q 201 592 167 592 z "},"«":{"ha":476,"x_min":43,"x_max":478,"o":"m 153 111 l 43 356 l 46 375 l 263 594 l 282 576 l 86 360 l 178 121 l 153 111 m 349 111 l 239 356 l 242 375 l 458 594 l 478 576 l 282 360 l 374 121 l 349 111 z "},"¬":{"ha":554,"x_min":47,"x_max":497,"o":"m 497 504 l 497 167 l 461 167 l 461 469 l 47 469 l 47 504 l 497 504 z "},"­":{"ha":364,"x_min":33,"x_max":326,"o":"m 33 360 l 33 394 l 326 394 l 326 360 l 33 360 z "},"®":{"ha":1153,"x_min":68,"x_max":1085,"o":"m 411 199 l 411 790 l 576 790 q 717 751 663 790 q 771 622 771 711 q 733 510 771 547 q 642 458 694 474 l 775 199 l 733 199 l 606 450 l 447 450 l 447 199 l 411 199 m 569 483 q 687 516 639 483 q 735 624 735 549 q 690 726 735 694 q 572 757 644 757 l 446 757 l 446 483 l 569 483 m 572 -11 q 364 26 457 -11 q 205 133 271 64 q 103 294 139 201 q 68 496 68 386 q 106 704 68 611 q 213 864 144 797 q 375 967 282 931 q 578 1003 468 1003 q 786 964 693 1003 q 946 856 879 925 q 1049 694 1013 786 q 1085 493 1085 601 q 1048 292 1085 385 q 944 132 1011 200 q 782 26 876 64 q 572 -11 688 -11 m 572 24 q 768 60 681 24 q 918 160 856 96 q 1015 310 981 225 q 1049 496 1049 396 q 1015 681 1049 594 q 919 831 982 767 q 769 932 857 896 q 575 968 682 968 q 385 933 471 968 q 235 835 299 899 q 138 685 172 772 q 104 496 104 599 q 137 310 104 396 q 231 159 169 224 q 378 59 292 94 q 572 24 465 24 z "},"¯":{"ha":493,"x_min":143,"x_max":653,"o":"m 143 1056 l 151 1090 l 653 1090 l 644 1056 l 143 1056 z "},"°":{"ha":497,"x_min":79,"x_max":417,"o":"m 249 665 q 163 686 201 665 q 102 745 125 707 q 79 836 79 783 q 102 926 79 889 q 163 984 125 964 q 247 1004 201 1004 q 331 984 293 1004 q 393 926 369 964 q 417 835 417 889 q 394 745 417 783 q 334 686 372 707 q 249 665 296 665 m 247 696 q 344 735 306 696 q 383 836 383 775 q 345 935 383 897 q 246 974 307 974 q 149 935 186 974 q 113 836 113 896 q 152 734 113 772 q 247 696 192 696 z "},"±":{"ha":554,"x_min":40,"x_max":513,"o":"m 50 1 l 50 38 l 504 38 l 504 1 l 50 1 m 294 504 l 513 504 l 513 471 l 294 471 l 294 171 l 261 171 l 261 471 l 40 471 l 40 504 l 261 504 l 261 810 l 294 810 l 294 504 z "},"²":{"ha":367,"x_min":72,"x_max":429,"o":"m 72 576 l 76 606 l 232 790 q 307 879 269 835 q 369 969 344 924 q 393 1064 393 1015 q 370 1131 393 1108 q 307 1154 347 1154 q 253 1144 276 1154 q 206 1115 229 1133 l 188 1144 q 238 1175 208 1161 q 310 1189 268 1189 q 373 1175 346 1189 q 415 1134 400 1161 q 429 1068 429 1107 q 406 969 429 1017 q 346 874 383 921 q 265 776 308 826 l 124 611 l 347 611 l 339 576 l 72 576 z "},"³":{"ha":367,"x_min":83,"x_max":429,"o":"m 185 568 q 124 575 149 568 q 83 590 99 582 l 83 631 q 129 611 103 619 q 188 603 156 603 q 297 648 261 603 q 333 754 333 693 q 301 847 333 821 q 224 872 268 872 l 193 872 l 200 907 l 232 907 q 326 932 290 907 q 376 993 361 957 q 392 1063 392 1029 q 372 1128 392 1103 q 308 1154 351 1154 q 251 1142 276 1154 q 206 1115 225 1131 l 186 1143 q 238 1174 206 1160 q 310 1189 269 1189 q 378 1172 353 1189 q 417 1128 404 1156 q 429 1068 429 1100 q 390 949 429 997 q 293 889 351 900 l 292 886 q 347 846 322 876 q 371 757 371 815 q 352 668 371 711 q 293 597 333 625 q 185 568 253 568 z "},"´":{"ha":279,"x_min":160,"x_max":369,"o":"m 160 853 q 227 924 194 886 q 286 999 260 963 q 328 1064 313 1036 l 369 1064 l 369 1053 q 333 1001 356 1031 q 283 942 310 972 q 228 886 256 913 q 175 842 200 860 l 161 842 l 160 853 z "},"μ":{"ha":550,"x_min":-58,"x_max":486,"o":"m -58 -317 l 165 731 l 201 731 l 83 181 q 75 101 74 138 q 95 42 76 64 q 156 21 114 21 q 247 55 208 21 q 313 156 285 89 q 361 317 342 222 l 450 731 l 486 731 l 367 175 q 356 53 349 86 q 399 21 364 21 q 422 23 408 21 q 449 31 436 25 l 442 -4 q 428 -8 436 -6 q 410 -12 419 -11 q 386 -14 400 -14 q 340 3 354 -14 q 322 47 325 19 q 321 108 318 75 l 318 108 q 303 80 314 100 q 273 38 293 60 q 222 1 253 17 q 144 -14 190 -14 q 88 4 110 -14 q 54 63 65 22 l 51 63 q 44 10 49 35 q 37 -35 40 -14 q 29 -75 33 -56 l -22 -317 l -58 -317 z "},"¶":{"ha":561,"x_min":133,"x_max":493,"o":"m 294 632 q 275 624 285 626 q 253 622 265 622 q 209 632 231 622 q 171 665 188 642 q 144 730 154 689 q 133 832 133 771 q 144 940 133 897 q 174 1009 154 983 q 220 1045 193 1035 q 281 1056 247 1056 l 493 1056 l 493 -176 l 457 -176 l 457 1021 l 331 1021 l 331 -176 l 294 -176 l 294 632 z "},"·":{"ha":238,"x_min":114,"x_max":179,"o":"m 139 438 q 121 447 128 438 q 114 471 114 456 q 124 512 114 490 q 154 533 133 533 q 172 525 165 533 q 179 499 179 517 q 169 459 179 481 q 139 438 160 438 z "},"¸":{"ha":299,"x_min":-92,"x_max":150,"o":"m -11 -333 q -59 -330 -42 -333 q -92 -324 -76 -326 l -92 -289 q -60 -297 -81 -293 q -8 -300 -40 -300 q 56 -286 28 -300 q 100 -248 85 -272 q 115 -196 115 -224 q 85 -134 115 -153 q -1 -110 54 -115 l 78 0 l 113 0 l 49 -90 q 122 -123 94 -99 q 150 -192 150 -147 q 129 -263 150 -231 q 72 -315 108 -296 q -11 -333 36 -333 z "},"¹":{"ha":367,"x_min":167,"x_max":368,"o":"m 311 1076 q 318 1107 314 1093 q 325 1135 322 1121 q 298 1111 310 1121 q 274 1093 286 1101 l 183 1031 l 167 1058 l 328 1172 l 368 1172 l 240 578 l 204 578 l 311 1076 z "},"º":{"ha":317,"x_min":110,"x_max":385,"o":"m 211 553 q 135 587 160 553 q 110 685 110 621 q 119 781 110 726 q 149 885 128 835 q 203 969 169 936 q 288 1003 238 1003 q 360 971 335 1003 q 385 869 385 939 q 374 766 385 821 q 341 663 363 711 q 287 583 319 614 q 211 553 254 553 m 211 588 q 273 617 247 588 q 315 692 299 647 q 339 785 331 738 q 347 868 347 832 q 332 943 347 918 q 285 968 317 968 q 223 938 249 968 q 181 863 197 908 q 156 770 164 818 q 147 686 147 722 q 162 613 147 639 q 211 588 176 588 z "},"»":{"ha":481,"x_min":-12,"x_max":422,"o":"m 203 111 l 183 129 l 379 346 l 288 585 l 313 594 l 422 350 l 419 331 l 203 111 m 7 111 l -12 129 l 183 346 l 92 585 l 117 594 l 226 350 l 224 331 l 7 111 z "},"¼":{"ha":774,"x_min":-31,"x_max":797,"o":"m -31 0 l 751 992 l 797 992 l 17 0 l -31 0 m 275 896 q 282 926 278 913 q 289 954 286 940 q 262 931 274 940 q 238 913 250 921 l 147 850 l 131 878 l 292 992 l 332 992 l 204 397 l 168 397 l 275 896 m 544 0 l 579 157 l 381 157 l 382 188 l 678 599 l 710 599 l 622 192 l 685 192 l 676 157 l 615 157 l 581 0 l 544 0 m 425 192 l 586 192 l 636 422 q 649 477 643 450 q 660 522 654 504 q 644 497 651 510 q 626 472 636 485 q 604 440 617 458 l 425 192 z "},"½":{"ha":843,"x_min":-32,"x_max":796,"o":"m -32 0 l 750 992 l 796 992 l 15 0 l -32 0 m 275 896 q 282 926 278 913 q 289 954 286 940 q 262 931 274 940 q 238 913 250 921 l 147 850 l 131 878 l 292 992 l 332 992 l 204 397 l 168 397 l 275 896 m 436 -1 l 440 28 l 596 213 q 671 301 633 257 q 733 392 708 346 q 757 486 757 438 q 734 553 757 531 q 671 576 711 576 q 617 566 640 576 q 569 538 593 556 l 551 567 q 602 597 572 583 q 674 611 632 611 q 737 597 710 611 q 778 556 764 583 q 793 490 793 529 q 770 391 793 439 q 710 296 747 343 q 629 199 672 249 l 488 33 l 711 33 l 703 -1 l 436 -1 z "},"¾":{"ha":794,"x_min":-1,"x_max":826,"o":"m 149 388 q 88 394 113 388 q 47 410 63 401 l 47 450 q 93 431 67 439 q 151 422 119 422 q 261 467 225 422 q 297 574 297 513 q 265 666 297 640 q 188 692 232 692 l 157 692 l 164 726 l 196 726 q 290 751 254 726 q 340 813 325 776 q 356 882 356 849 q 335 948 356 922 q 272 974 315 974 q 215 962 240 974 q 169 935 189 950 l 150 963 q 201 994 169 979 q 274 1008 233 1008 q 342 992 317 1008 q 381 947 368 975 q 393 888 393 919 q 354 768 393 817 q 257 708 315 719 l 256 706 q 310 665 286 696 q 335 576 335 635 q 316 488 335 531 q 257 416 297 444 q 149 388 217 388 m -1 0 l 781 992 l 826 992 l 46 0 l -1 0 m 565 0 l 600 157 l 401 157 l 403 188 l 699 599 l 731 599 l 643 192 l 706 192 l 697 157 l 636 157 l 601 0 l 565 0 m 446 192 l 607 192 l 657 422 q 669 477 664 450 q 681 522 675 504 q 665 497 672 510 q 647 472 657 485 q 625 440 638 458 l 446 192 z "},"¿":{"ha":321,"x_min":-76,"x_max":297,"o":"m 256 489 q 226 367 243 418 q 183 269 210 315 q 108 164 156 222 q 29 60 63 106 q -22 -32 -4 14 q -39 -137 -39 -78 q -10 -222 -39 -192 q 68 -251 19 -251 q 131 -240 104 -251 q 178 -215 157 -229 l 194 -244 q 136 -274 169 -262 q 64 -286 103 -286 q -39 -247 -1 -286 q -76 -139 -76 -207 q -57 -28 -76 -79 q -3 74 -37 24 q 78 179 32 124 q 152 281 125 238 q 194 372 179 324 q 222 489 210 419 l 256 489 m 272 721 q 290 712 283 721 q 297 688 297 703 q 288 647 297 668 q 257 625 278 625 q 239 633 246 625 q 232 660 232 642 q 242 699 232 678 q 272 721 251 721 z "},"À":{"ha":453,"x_min":-94,"x_max":410,"o":"m -94 0 l 314 996 l 360 996 l 357 0 l 321 0 l 322 394 l 107 394 l -56 0 l -94 0 m 119 429 l 321 429 l 325 842 q 325 897 325 871 q 326 942 325 924 l 324 942 q 308 899 318 924 q 285 840 299 874 l 119 429 m 393 1103 q 355 1165 375 1129 q 315 1238 335 1200 q 282 1311 296 1276 l 282 1321 l 315 1321 q 345 1248 331 1283 q 376 1179 360 1213 q 410 1114 392 1146 l 410 1103 l 393 1103 z "},"Á":{"ha":453,"x_min":-94,"x_max":535,"o":"m -94 0 l 314 996 l 360 996 l 357 0 l 321 0 l 322 394 l 107 394 l -56 0 l -94 0 m 119 429 l 321 429 l 325 842 q 325 897 325 871 q 326 942 325 924 l 324 942 q 308 899 318 924 q 285 840 299 874 l 119 429 m 325 1108 q 392 1180 360 1142 q 451 1255 425 1218 q 493 1319 478 1292 l 535 1319 l 535 1308 q 498 1257 521 1286 q 448 1198 475 1228 q 393 1142 421 1168 q 340 1097 365 1115 l 326 1097 l 325 1108 z "},"Â":{"ha":453,"x_min":-94,"x_max":468,"o":"m -94 0 l 314 996 l 360 996 l 357 0 l 321 0 l 322 394 l 107 394 l -56 0 l -94 0 m 119 429 l 321 429 l 325 842 q 325 897 325 871 q 326 942 325 924 l 324 942 q 308 899 318 924 q 285 840 299 874 l 119 429 m 199 1107 q 255 1169 225 1133 q 313 1244 285 1206 q 361 1318 342 1283 l 390 1318 q 410 1249 396 1290 q 440 1168 424 1207 q 468 1107 457 1129 l 467 1096 l 453 1096 q 423 1145 439 1118 q 393 1203 407 1172 q 368 1264 379 1233 q 299 1179 339 1224 q 211 1096 258 1135 l 197 1096 l 199 1107 z "},"Ã":{"ha":453,"x_min":-94,"x_max":542,"o":"m -94 0 l 314 996 l 360 996 l 357 0 l 321 0 l 322 394 l 107 394 l -56 0 l -94 0 m 119 429 l 321 429 l 325 842 q 325 897 325 871 q 326 942 325 924 l 324 942 q 308 899 318 924 q 285 840 299 874 l 119 429 m 174 1103 q 195 1175 181 1147 q 233 1217 210 1203 q 286 1231 256 1231 q 333 1217 314 1231 q 369 1185 353 1203 q 400 1153 385 1167 q 436 1139 415 1139 q 481 1160 464 1139 q 507 1231 499 1182 l 542 1231 q 522 1160 536 1189 q 485 1118 507 1132 q 433 1104 463 1104 q 386 1118 406 1104 q 351 1150 367 1132 q 320 1182 336 1168 q 282 1196 304 1196 q 232 1172 249 1196 q 208 1103 215 1147 l 174 1103 z "},"Ä":{"ha":453,"x_min":-94,"x_max":460,"o":"m -94 0 l 314 996 l 360 996 l 357 0 l 321 0 l 322 394 l 107 394 l -56 0 l -94 0 m 119 429 l 321 429 l 325 842 q 325 897 325 871 q 326 942 325 924 l 324 942 q 308 899 318 924 q 285 840 299 874 l 119 429 m 424 1153 q 406 1161 413 1153 q 399 1185 399 1169 q 408 1223 399 1203 q 435 1243 417 1243 q 453 1235 446 1243 q 460 1211 460 1226 q 451 1174 460 1194 q 424 1153 442 1153 m 249 1153 q 231 1161 238 1153 q 224 1185 224 1169 q 233 1223 224 1203 q 260 1243 242 1243 q 274 1240 268 1243 q 282 1229 279 1236 q 285 1211 285 1222 q 276 1174 285 1194 q 249 1153 267 1153 z "},"Å":{"ha":453,"x_min":-94,"x_max":482,"o":"m -94 0 l 314 996 l 360 996 l 357 0 l 321 0 l 322 394 l 107 394 l -56 0 l -94 0 m 119 429 l 321 429 l 325 842 q 325 897 325 871 q 326 942 325 924 l 324 942 q 308 899 318 924 q 285 840 299 874 l 119 429 m 363 1115 q 275 1147 307 1115 q 243 1235 243 1179 q 275 1320 243 1286 q 363 1354 307 1354 q 452 1319 422 1354 q 482 1235 482 1285 q 450 1150 482 1185 q 363 1115 418 1115 m 363 1149 q 425 1172 403 1149 q 447 1235 447 1196 q 426 1297 447 1272 q 363 1321 404 1321 q 300 1296 322 1321 q 278 1235 278 1271 q 300 1172 278 1196 q 363 1149 322 1149 z "},"Æ":{"ha":656,"x_min":-100,"x_max":721,"o":"m -100 0 l 361 992 l 721 992 l 714 957 l 438 957 l 349 539 l 607 539 l 599 504 l 340 504 l 240 35 l 517 35 l 510 0 l 197 0 l 282 397 l 124 397 l -60 0 l -100 0 m 140 432 l 289 432 l 401 957 l 382 957 l 140 432 z "},"Ç":{"ha":468,"x_min":4,"x_max":578,"o":"m 254 -14 q 142 19 188 -14 q 74 124 97 53 q 51 311 51 196 q 67 475 51 383 q 113 660 82 567 q 193 831 144 753 q 309 958 242 910 q 464 1007 376 1007 q 531 997 504 1007 q 578 972 558 988 l 556 942 q 517 965 542 957 q 461 972 493 972 q 326 927 386 972 q 222 808 267 882 q 148 647 178 735 q 103 470 118 558 q 89 311 89 382 q 131 89 89 157 q 257 21 172 21 q 303 26 279 21 q 358 43 328 32 l 358 6 q 306 -9 331 -4 q 254 -14 281 -14 m 85 -333 q 37 -330 54 -333 q 4 -324 19 -326 l 4 -289 q 35 -297 15 -293 q 88 -300 56 -300 q 152 -286 124 -300 q 196 -248 181 -272 q 211 -196 211 -224 q 181 -134 211 -153 q 94 -110 150 -115 l 174 0 l 208 0 l 144 -90 q 218 -123 190 -99 q 246 -192 246 -147 q 225 -263 246 -231 q 168 -315 204 -296 q 85 -333 132 -333 z "},"È":{"ha":469,"x_min":3,"x_max":526,"o":"m 3 0 l 214 992 l 526 992 l 519 957 l 243 957 l 154 539 l 413 539 l 404 504 l 146 504 l 46 35 l 322 35 l 315 0 l 3 0 m 401 1103 q 363 1165 383 1129 q 324 1238 343 1200 q 290 1311 304 1276 l 290 1321 l 324 1321 q 353 1248 339 1283 q 384 1179 368 1213 q 418 1114 400 1146 l 418 1103 l 401 1103 z "},"É":{"ha":469,"x_min":3,"x_max":543,"o":"m 3 0 l 214 992 l 526 992 l 519 957 l 243 957 l 154 539 l 413 539 l 404 504 l 146 504 l 46 35 l 322 35 l 315 0 l 3 0 m 333 1108 q 401 1180 368 1142 q 460 1255 433 1218 q 501 1319 486 1292 l 543 1319 l 543 1308 q 506 1257 529 1286 q 456 1198 483 1228 q 401 1142 429 1168 q 349 1097 374 1115 l 335 1097 l 333 1108 z "},"Ê":{"ha":469,"x_min":3,"x_max":526,"o":"m 3 0 l 214 992 l 526 992 l 519 957 l 243 957 l 154 539 l 413 539 l 404 504 l 146 504 l 46 35 l 322 35 l 315 0 l 3 0 m 238 1082 q 294 1144 264 1108 q 352 1219 324 1181 q 400 1293 381 1258 l 429 1293 q 449 1224 435 1265 q 479 1143 463 1182 q 507 1082 496 1104 l 506 1071 l 492 1071 q 462 1120 478 1093 q 432 1178 446 1147 q 407 1239 418 1208 q 338 1154 378 1199 q 250 1071 297 1110 l 236 1071 l 238 1082 z "},"Ë":{"ha":469,"x_min":3,"x_max":526,"o":"m 3 0 l 214 992 l 526 992 l 519 957 l 243 957 l 154 539 l 413 539 l 404 504 l 146 504 l 46 35 l 322 35 l 315 0 l 3 0 m 458 1128 q 440 1136 447 1128 q 433 1160 433 1144 q 442 1198 433 1178 q 469 1218 451 1218 q 488 1210 481 1218 q 494 1186 494 1201 q 485 1149 494 1169 q 458 1128 476 1128 m 283 1128 q 265 1136 272 1128 q 258 1160 258 1144 q 267 1198 258 1178 q 294 1218 276 1218 q 308 1215 303 1218 q 317 1204 314 1211 q 319 1186 319 1197 q 310 1149 319 1169 q 283 1128 301 1128 z "},"Ì":{"ha":229,"x_min":-81,"x_max":328,"o":"m -81 0 l -75 26 l 8 31 l 206 960 l 125 965 l 131 992 l 328 992 l 322 965 l 240 960 l 43 31 l 122 26 l 117 0 l -81 0 m 282 1103 q 244 1165 264 1129 q 204 1238 224 1200 q 171 1311 185 1276 l 171 1321 l 204 1321 q 234 1248 219 1283 q 265 1179 249 1213 q 299 1114 281 1146 l 299 1103 l 282 1103 z "},"Í":{"ha":229,"x_min":-81,"x_max":424,"o":"m -81 0 l -75 26 l 8 31 l 206 960 l 125 965 l 131 992 l 328 992 l 322 965 l 240 960 l 43 31 l 122 26 l 117 0 l -81 0 m 214 1108 q 281 1180 249 1142 q 340 1255 314 1218 q 382 1319 367 1292 l 424 1319 l 424 1308 q 387 1257 410 1286 q 337 1198 364 1228 q 282 1142 310 1168 q 229 1097 254 1115 l 215 1097 l 214 1108 z "},"Î":{"ha":229,"x_min":-81,"x_max":394,"o":"m -81 0 l -75 26 l 8 31 l 206 960 l 125 965 l 131 992 l 328 992 l 322 965 l 240 960 l 43 31 l 122 26 l 117 0 l -81 0 m 125 1114 q 181 1176 151 1140 q 240 1251 211 1213 q 288 1325 268 1290 l 317 1325 q 336 1256 322 1297 q 367 1175 350 1214 q 394 1114 383 1136 l 393 1103 l 379 1103 q 349 1152 365 1125 q 319 1210 333 1179 q 294 1271 306 1240 q 225 1186 265 1231 q 138 1103 185 1142 l 124 1103 l 125 1114 z "},"Ï":{"ha":229,"x_min":-81,"x_max":385,"o":"m -81 0 l -75 26 l 8 31 l 206 960 l 125 965 l 131 992 l 328 992 l 322 965 l 240 960 l 43 31 l 122 26 l 117 0 l -81 0 m 349 1160 q 331 1168 338 1160 q 324 1192 324 1176 q 333 1230 324 1210 q 360 1250 342 1250 q 378 1242 371 1250 q 385 1218 385 1233 q 376 1181 385 1201 q 349 1160 367 1160 m 174 1160 q 156 1168 163 1160 q 149 1192 149 1176 q 158 1230 149 1210 q 185 1250 167 1250 q 199 1247 193 1250 q 207 1236 204 1243 q 210 1218 210 1229 q 201 1181 210 1201 q 174 1160 192 1160 z "},"Ð":{"ha":579,"x_min":4,"x_max":544,"o":"m 33 496 l 42 531 l 290 531 l 283 496 l 33 496 m 4 0 l 214 992 l 318 992 q 485 926 426 992 q 544 707 544 860 q 531 533 544 628 q 487 344 517 439 q 407 172 457 250 q 285 47 357 94 q 118 0 214 0 l 4 0 m 117 35 q 267 79 203 35 q 377 197 332 124 q 451 359 422 269 q 492 539 479 449 q 506 707 506 629 q 456 903 506 849 q 311 957 407 957 l 244 957 l 47 35 l 117 35 z "},"Ñ":{"ha":640,"x_min":3,"x_max":660,"o":"m 3 0 l 214 992 l 260 992 l 428 82 l 431 82 q 444 145 438 114 q 456 205 450 176 q 465 253 461 233 l 622 992 l 660 992 l 449 0 l 404 0 l 238 921 l 235 921 q 229 891 232 907 q 222 856 226 875 q 213 813 218 836 q 201 760 208 789 l 40 0 l 3 0 m 267 1078 q 288 1150 274 1122 q 326 1192 303 1178 q 379 1206 349 1206 q 426 1192 407 1206 q 462 1160 446 1178 q 493 1128 478 1142 q 529 1114 508 1114 q 574 1135 557 1114 q 600 1206 592 1157 l 635 1206 q 615 1135 629 1164 q 578 1093 600 1107 q 526 1079 556 1079 q 479 1093 499 1079 q 444 1125 460 1107 q 413 1157 429 1143 q 375 1171 397 1171 q 325 1147 342 1171 q 301 1078 308 1122 l 267 1078 z "},"Ò":{"ha":617,"x_min":47,"x_max":589,"o":"m 222 -14 q 126 15 165 -14 q 67 105 88 44 q 47 258 47 165 q 57 402 47 322 q 86 566 67 482 q 135 728 106 650 q 206 869 165 806 q 300 969 247 932 q 417 1006 353 1006 q 544 947 500 1006 q 589 753 589 888 q 580 610 589 690 q 553 443 571 529 q 506 276 535 357 q 435 129 476 194 q 342 25 394 64 q 222 -14 289 -14 m 226 21 q 329 58 283 21 q 411 157 375 94 q 474 297 447 219 q 517 456 500 374 q 543 614 535 538 q 551 750 551 690 q 518 919 551 868 q 414 971 485 971 q 310 934 357 971 q 228 836 264 897 q 165 699 192 775 q 120 542 138 622 q 94 390 103 463 q 85 261 85 317 q 101 124 85 176 q 149 46 117 71 q 226 21 181 21 m 475 1103 q 437 1165 457 1129 q 397 1238 417 1200 q 364 1311 378 1276 l 364 1321 l 397 1321 q 427 1248 413 1283 q 458 1179 442 1213 q 492 1114 474 1146 l 492 1103 l 475 1103 z "},"Ó":{"ha":617,"x_min":47,"x_max":617,"o":"m 222 -14 q 126 15 165 -14 q 67 105 88 44 q 47 258 47 165 q 57 402 47 322 q 86 566 67 482 q 135 728 106 650 q 206 869 165 806 q 300 969 247 932 q 417 1006 353 1006 q 544 947 500 1006 q 589 753 589 888 q 580 610 589 690 q 553 443 571 529 q 506 276 535 357 q 435 129 476 194 q 342 25 394 64 q 222 -14 289 -14 m 226 21 q 329 58 283 21 q 411 157 375 94 q 474 297 447 219 q 517 456 500 374 q 543 614 535 538 q 551 750 551 690 q 518 919 551 868 q 414 971 485 971 q 310 934 357 971 q 228 836 264 897 q 165 699 192 775 q 120 542 138 622 q 94 390 103 463 q 85 261 85 317 q 101 124 85 176 q 149 46 117 71 q 226 21 181 21 m 407 1108 q 474 1180 442 1142 q 533 1255 507 1218 q 575 1319 560 1292 l 617 1319 l 617 1308 q 580 1257 603 1286 q 530 1198 557 1228 q 475 1142 503 1168 q 422 1097 447 1115 l 408 1097 l 407 1108 z "},"Ô":{"ha":617,"x_min":47,"x_max":589,"o":"m 222 -14 q 126 15 165 -14 q 67 105 88 44 q 47 258 47 165 q 57 402 47 322 q 86 566 67 482 q 135 728 106 650 q 206 869 165 806 q 300 969 247 932 q 417 1006 353 1006 q 544 947 500 1006 q 589 753 589 888 q 580 610 589 690 q 553 443 571 529 q 506 276 535 357 q 435 129 476 194 q 342 25 394 64 q 222 -14 289 -14 m 226 21 q 329 58 283 21 q 411 157 375 94 q 474 297 447 219 q 517 456 500 374 q 543 614 535 538 q 551 750 551 690 q 518 919 551 868 q 414 971 485 971 q 310 934 357 971 q 228 836 264 897 q 165 699 192 775 q 120 542 138 622 q 94 390 103 463 q 85 261 85 317 q 101 124 85 176 q 149 46 117 71 q 226 21 181 21 m 289 1082 q 345 1144 315 1108 q 403 1219 375 1181 q 451 1293 432 1258 l 481 1293 q 500 1224 486 1265 q 531 1143 514 1182 q 558 1082 547 1104 l 557 1071 l 543 1071 q 513 1120 529 1093 q 483 1178 497 1147 q 458 1239 469 1208 q 389 1154 429 1199 q 301 1071 349 1110 l 288 1071 l 289 1082 z "},"Õ":{"ha":617,"x_min":47,"x_max":622,"o":"m 222 -14 q 126 15 165 -14 q 67 105 88 44 q 47 258 47 165 q 57 402 47 322 q 86 566 67 482 q 135 728 106 650 q 206 869 165 806 q 300 969 247 932 q 417 1006 353 1006 q 544 947 500 1006 q 589 753 589 888 q 580 610 589 690 q 553 443 571 529 q 506 276 535 357 q 435 129 476 194 q 342 25 394 64 q 222 -14 289 -14 m 226 21 q 329 58 283 21 q 411 157 375 94 q 474 297 447 219 q 517 456 500 374 q 543 614 535 538 q 551 750 551 690 q 518 919 551 868 q 414 971 485 971 q 310 934 357 971 q 228 836 264 897 q 165 699 192 775 q 120 542 138 622 q 94 390 103 463 q 85 261 85 317 q 101 124 85 176 q 149 46 117 71 q 226 21 181 21 m 254 1078 q 276 1150 261 1122 q 313 1192 290 1178 q 367 1206 336 1206 q 414 1192 394 1206 q 449 1160 433 1178 q 481 1128 465 1142 q 517 1114 496 1114 q 562 1135 544 1114 q 588 1206 579 1157 l 622 1206 q 602 1135 617 1164 q 565 1093 588 1107 q 514 1079 543 1079 q 467 1093 486 1079 q 432 1125 447 1107 q 401 1157 417 1143 q 363 1171 385 1171 q 313 1147 329 1171 q 289 1078 296 1122 l 254 1078 z "},"Ö":{"ha":617,"x_min":47,"x_max":606,"o":"m 222 -14 q 126 15 165 -14 q 67 105 88 44 q 47 258 47 165 q 57 402 47 322 q 86 566 67 482 q 135 728 106 650 q 206 869 165 806 q 300 969 247 932 q 417 1006 353 1006 q 544 947 500 1006 q 589 753 589 888 q 580 610 589 690 q 553 443 571 529 q 506 276 535 357 q 435 129 476 194 q 342 25 394 64 q 222 -14 289 -14 m 226 21 q 329 58 283 21 q 411 157 375 94 q 474 297 447 219 q 517 456 500 374 q 543 614 535 538 q 551 750 551 690 q 518 919 551 868 q 414 971 485 971 q 310 934 357 971 q 228 836 264 897 q 165 699 192 775 q 120 542 138 622 q 94 390 103 463 q 85 261 85 317 q 101 124 85 176 q 149 46 117 71 q 226 21 181 21 m 569 1160 q 551 1168 558 1160 q 544 1192 544 1176 q 553 1230 544 1210 q 581 1250 563 1250 q 599 1242 592 1250 q 606 1218 606 1233 q 597 1181 606 1201 q 569 1160 588 1160 m 394 1160 q 376 1168 383 1160 q 369 1192 369 1176 q 378 1230 369 1210 q 406 1250 388 1250 q 419 1247 414 1250 q 428 1236 425 1243 q 431 1218 431 1229 q 422 1181 431 1201 q 394 1160 413 1160 z "},"×":{"ha":554,"x_min":56,"x_max":499,"o":"m 476 714 l 499 693 l 299 492 l 496 292 l 474 269 l 276 469 l 76 268 l 56 290 l 256 492 l 58 692 l 81 714 l 278 514 l 476 714 z "},"Ø":{"ha":622,"x_min":-33,"x_max":671,"o":"m -3 -57 l -33 -39 l 64 118 q 51 181 56 146 q 47 258 47 217 q 57 402 47 322 q 86 566 67 482 q 135 728 106 650 q 206 869 165 806 q 300 969 247 932 q 417 1006 353 1006 q 503 985 467 1006 q 560 919 539 964 l 640 1049 l 671 1031 l 575 876 q 585 820 582 851 q 589 753 589 789 q 580 610 589 690 q 553 443 571 529 q 506 276 535 357 q 435 129 476 194 q 342 25 394 64 q 222 -14 289 -14 q 138 8 174 -14 q 79 75 101 31 l -3 -57 m 226 21 q 329 58 283 21 q 411 157 375 94 q 474 297 447 219 q 517 456 500 374 q 543 614 535 538 q 551 750 551 690 q 551 793 551 774 q 547 831 550 813 l 104 115 q 152 44 121 67 q 226 21 183 21 m 536 881 q 491 949 521 928 q 414 971 461 971 q 310 934 357 971 q 228 836 264 897 q 165 699 192 775 q 120 542 138 622 q 94 390 103 463 q 85 261 85 317 q 87 209 85 233 q 92 164 89 185 l 536 881 z "},"Ù":{"ha":588,"x_min":43,"x_max":615,"o":"m 214 -14 q 126 6 165 -14 q 65 66 88 26 q 43 164 43 106 q 47 222 43 189 q 58 290 51 254 l 208 992 l 244 992 l 94 290 q 84 223 88 256 q 81 165 81 190 q 118 57 81 93 q 215 21 156 21 q 322 56 282 21 q 386 156 361 90 q 431 314 411 221 l 579 992 l 615 992 l 467 313 q 417 140 446 214 q 340 26 388 67 q 214 -14 293 -14 m 461 1103 q 423 1165 443 1129 q 383 1238 403 1200 q 350 1311 364 1276 l 350 1321 l 383 1321 q 413 1248 399 1283 q 444 1179 428 1213 q 478 1114 460 1146 l 478 1103 l 461 1103 z "},"Ú":{"ha":588,"x_min":43,"x_max":615,"o":"m 214 -14 q 126 6 165 -14 q 65 66 88 26 q 43 164 43 106 q 47 222 43 189 q 58 290 51 254 l 208 992 l 244 992 l 94 290 q 84 223 88 256 q 81 165 81 190 q 118 57 81 93 q 215 21 156 21 q 322 56 282 21 q 386 156 361 90 q 431 314 411 221 l 579 992 l 615 992 l 467 313 q 417 140 446 214 q 340 26 388 67 q 214 -14 293 -14 m 393 1108 q 460 1180 428 1142 q 519 1255 493 1218 q 561 1319 546 1292 l 603 1319 l 603 1308 q 566 1257 589 1286 q 516 1198 543 1228 q 461 1142 489 1168 q 408 1097 433 1115 l 394 1097 l 393 1108 z "},"Û":{"ha":588,"x_min":43,"x_max":615,"o":"m 214 -14 q 126 6 165 -14 q 65 66 88 26 q 43 164 43 106 q 47 222 43 189 q 58 290 51 254 l 208 992 l 244 992 l 94 290 q 84 223 88 256 q 81 165 81 190 q 118 57 81 93 q 215 21 156 21 q 322 56 282 21 q 386 156 361 90 q 431 314 411 221 l 579 992 l 615 992 l 467 313 q 417 140 446 214 q 340 26 388 67 q 214 -14 293 -14 m 285 1082 q 341 1144 311 1108 q 399 1219 371 1181 q 447 1293 428 1258 l 476 1293 q 496 1224 482 1265 q 526 1143 510 1182 q 554 1082 543 1104 l 553 1071 l 539 1071 q 509 1120 525 1093 q 479 1178 493 1147 q 454 1239 465 1208 q 385 1154 425 1199 q 297 1071 344 1110 l 283 1071 l 285 1082 z "},"Ü":{"ha":588,"x_min":43,"x_max":615,"o":"m 214 -14 q 126 6 165 -14 q 65 66 88 26 q 43 164 43 106 q 47 222 43 189 q 58 290 51 254 l 208 992 l 244 992 l 94 290 q 84 223 88 256 q 81 165 81 190 q 118 57 81 93 q 215 21 156 21 q 322 56 282 21 q 386 156 361 90 q 431 314 411 221 l 579 992 l 615 992 l 467 313 q 417 140 446 214 q 340 26 388 67 q 214 -14 293 -14 m 556 1160 q 538 1168 544 1160 q 531 1192 531 1176 q 540 1230 531 1210 q 567 1250 549 1250 q 585 1242 578 1250 q 592 1218 592 1233 q 583 1181 592 1201 q 556 1160 574 1160 m 381 1160 q 363 1168 369 1160 q 356 1192 356 1176 q 365 1230 356 1210 q 392 1250 374 1250 q 406 1247 400 1250 q 414 1236 411 1243 q 417 1218 417 1229 q 408 1181 417 1201 q 381 1160 399 1160 z "},"Ý":{"ha":401,"x_min":88,"x_max":518,"o":"m 88 0 l 169 386 l 114 992 l 150 992 l 197 443 l 478 992 l 518 992 l 206 386 l 124 0 l 88 0 m 300 1108 q 367 1180 335 1142 q 426 1255 400 1218 q 468 1319 453 1292 l 510 1319 l 510 1308 q 473 1257 496 1286 q 423 1198 450 1228 q 368 1142 396 1168 q 315 1097 340 1115 l 301 1097 l 300 1108 z "},"Þ":{"ha":489,"x_min":3,"x_max":469,"o":"m 3 0 l 214 992 l 250 992 l 210 806 l 265 806 q 380 782 335 806 q 447 713 425 758 q 469 603 469 668 q 449 457 469 524 q 388 342 428 390 q 291 266 349 293 q 158 239 233 239 l 89 239 l 39 0 l 3 0 m 156 274 q 313 317 251 274 q 402 436 374 361 q 431 601 431 511 q 393 725 431 679 q 261 771 356 771 l 203 771 l 97 274 l 156 274 z "},"ß":{"ha":456,"x_min":-196,"x_max":471,"o":"m -142 -333 q -174 -330 -160 -333 q -196 -322 -189 -326 l -196 -286 q -172 -295 -185 -292 q -143 -299 -160 -299 q -73 -257 -94 -299 q -35 -136 -51 -215 l 178 854 q 216 974 194 928 q 270 1041 238 1019 q 350 1063 303 1063 q 439 1026 407 1063 q 471 933 471 989 q 457 851 471 888 q 418 782 443 815 q 358 711 393 749 q 299 628 315 665 q 282 549 282 592 q 288 499 282 525 q 305 447 294 474 q 328 389 315 419 q 360 307 343 354 q 378 207 378 260 q 356 94 378 144 q 292 15 335 44 q 188 -14 250 -14 q 127 -6 156 -14 q 82 13 99 3 l 82 51 q 133 29 107 38 q 190 21 160 21 q 299 71 258 21 q 340 207 340 121 q 334 265 340 238 q 317 319 328 293 q 296 371 307 346 q 261 459 278 411 q 244 549 244 507 q 253 610 244 581 q 281 667 263 639 q 325 725 299 696 q 383 794 360 763 q 420 858 407 825 q 433 933 433 890 q 408 1003 433 979 q 346 1028 383 1028 q 285 1009 310 1028 q 244 952 261 990 q 214 853 228 914 l 1 -140 q -25 -237 -10 -193 q -67 -308 -40 -282 q -142 -333 -94 -333 z "},"à":{"ha":526,"x_min":40,"x_max":513,"o":"m 175 -14 q 102 10 132 -14 q 56 79 72 33 q 40 192 40 125 q 52 332 40 257 q 88 480 64 407 q 146 613 111 553 q 227 708 181 672 q 332 744 274 744 q 396 727 371 744 q 435 681 421 710 q 453 617 449 653 l 457 617 l 483 731 l 513 731 l 358 0 l 329 0 l 351 125 l 349 125 q 301 51 326 82 q 246 3 276 19 q 175 -14 215 -14 m 179 21 q 274 63 235 21 q 340 170 313 104 q 386 311 368 236 q 415 449 403 379 q 428 578 428 519 q 402 674 428 638 q 331 710 376 710 q 242 676 282 710 q 171 585 201 642 q 119 460 140 528 q 88 322 99 392 q 78 194 78 253 q 106 61 78 101 q 179 21 135 21 m 375 842 q 337 903 357 868 q 297 977 317 939 q 264 1050 278 1015 l 264 1060 l 297 1060 q 327 987 313 1022 q 358 918 342 951 q 392 853 374 885 l 392 842 l 375 842 z "},"á":{"ha":526,"x_min":40,"x_max":517,"o":"m 175 -14 q 102 10 132 -14 q 56 79 72 33 q 40 192 40 125 q 52 332 40 257 q 88 480 64 407 q 146 613 111 553 q 227 708 181 672 q 332 744 274 744 q 396 727 371 744 q 435 681 421 710 q 453 617 449 653 l 457 617 l 483 731 l 513 731 l 358 0 l 329 0 l 351 125 l 349 125 q 301 51 326 82 q 246 3 276 19 q 175 -14 215 -14 m 179 21 q 274 63 235 21 q 340 170 313 104 q 386 311 368 236 q 415 449 403 379 q 428 578 428 519 q 402 674 428 638 q 331 710 376 710 q 242 676 282 710 q 171 585 201 642 q 119 460 140 528 q 88 322 99 392 q 78 194 78 253 q 106 61 78 101 q 179 21 135 21 m 307 847 q 374 919 342 881 q 433 994 407 957 q 475 1058 460 1031 l 517 1058 l 517 1047 q 480 996 503 1025 q 430 937 457 967 q 375 881 403 907 q 322 836 347 854 l 308 836 l 307 847 z "},"â":{"ha":526,"x_min":40,"x_max":513,"o":"m 175 -14 q 102 10 132 -14 q 56 79 72 33 q 40 192 40 125 q 52 332 40 257 q 88 480 64 407 q 146 613 111 553 q 227 708 181 672 q 332 744 274 744 q 396 727 371 744 q 435 681 421 710 q 453 617 449 653 l 457 617 l 483 731 l 513 731 l 358 0 l 329 0 l 351 125 l 349 125 q 301 51 326 82 q 246 3 276 19 q 175 -14 215 -14 m 179 21 q 274 63 235 21 q 340 170 313 104 q 386 311 368 236 q 415 449 403 379 q 428 578 428 519 q 402 674 428 638 q 331 710 376 710 q 242 676 282 710 q 171 585 201 642 q 119 460 140 528 q 88 322 99 392 q 78 194 78 253 q 106 61 78 101 q 179 21 135 21 m 217 851 q 273 914 243 878 q 331 989 303 950 q 379 1063 360 1028 l 408 1063 q 428 993 414 1035 q 458 913 442 951 q 486 851 475 874 l 485 840 l 471 840 q 441 890 457 863 q 411 947 425 917 q 386 1008 397 978 q 317 924 357 968 q 229 840 276 879 l 215 840 l 217 851 z "},"ã":{"ha":526,"x_min":40,"x_max":558,"o":"m 175 -14 q 102 10 132 -14 q 56 79 72 33 q 40 192 40 125 q 52 332 40 257 q 88 480 64 407 q 146 613 111 553 q 227 708 181 672 q 332 744 274 744 q 396 727 371 744 q 435 681 421 710 q 453 617 449 653 l 457 617 l 483 731 l 513 731 l 358 0 l 329 0 l 351 125 l 349 125 q 301 51 326 82 q 246 3 276 19 q 175 -14 215 -14 m 179 21 q 274 63 235 21 q 340 170 313 104 q 386 311 368 236 q 415 449 403 379 q 428 578 428 519 q 402 674 428 638 q 331 710 376 710 q 242 676 282 710 q 171 585 201 642 q 119 460 140 528 q 88 322 99 392 q 78 194 78 253 q 106 61 78 101 q 179 21 135 21 m 190 847 q 212 919 197 892 q 249 961 226 947 q 303 975 272 975 q 350 961 331 975 q 385 929 369 947 q 417 897 401 911 q 453 883 432 883 q 498 905 481 883 q 524 975 515 926 l 558 975 q 538 905 553 933 q 501 863 524 876 q 450 849 479 849 q 403 863 422 849 q 368 894 383 876 q 337 926 353 913 q 299 940 321 940 q 249 916 265 940 q 225 847 232 892 l 190 847 z "},"ä":{"ha":526,"x_min":40,"x_max":513,"o":"m 175 -14 q 102 10 132 -14 q 56 79 72 33 q 40 192 40 125 q 52 332 40 257 q 88 480 64 407 q 146 613 111 553 q 227 708 181 672 q 332 744 274 744 q 396 727 371 744 q 435 681 421 710 q 453 617 449 653 l 457 617 l 483 731 l 513 731 l 358 0 l 329 0 l 351 125 l 349 125 q 301 51 326 82 q 246 3 276 19 q 175 -14 215 -14 m 179 21 q 274 63 235 21 q 340 170 313 104 q 386 311 368 236 q 415 449 403 379 q 428 578 428 519 q 402 674 428 638 q 331 710 376 710 q 242 676 282 710 q 171 585 201 642 q 119 460 140 528 q 88 322 99 392 q 78 194 78 253 q 106 61 78 101 q 179 21 135 21 m 440 897 q 422 906 429 897 q 415 929 415 914 q 424 967 415 947 q 451 988 433 988 q 469 979 463 988 q 476 956 476 971 q 467 918 476 939 q 440 897 458 897 m 265 897 q 247 906 254 897 q 240 929 240 914 q 249 967 240 947 q 276 988 258 988 q 290 984 285 988 q 299 974 296 981 q 301 956 301 967 q 292 918 301 939 q 265 897 283 897 z "},"å":{"ha":526,"x_min":40,"x_max":513,"o":"m 175 -14 q 102 10 132 -14 q 56 79 72 33 q 40 192 40 125 q 52 332 40 257 q 88 480 64 407 q 146 613 111 553 q 227 708 181 672 q 332 744 274 744 q 396 727 371 744 q 435 681 421 710 q 453 617 449 653 l 457 617 l 483 731 l 513 731 l 358 0 l 329 0 l 351 125 l 349 125 q 301 51 326 82 q 246 3 276 19 q 175 -14 215 -14 m 179 21 q 274 63 235 21 q 340 170 313 104 q 386 311 368 236 q 415 449 403 379 q 428 578 428 519 q 402 674 428 638 q 331 710 376 710 q 242 676 282 710 q 171 585 201 642 q 119 460 140 528 q 88 322 99 392 q 78 194 78 253 q 106 61 78 101 q 179 21 135 21 m 378 850 q 290 882 322 850 q 258 969 258 914 q 290 1055 258 1021 q 378 1089 322 1089 q 467 1054 438 1089 q 497 969 497 1019 q 465 885 497 919 q 378 850 433 850 m 378 883 q 440 907 418 883 q 463 969 463 931 q 441 1031 463 1007 q 378 1056 419 1056 q 315 1031 338 1056 q 293 969 293 1006 q 315 907 293 931 q 378 883 338 883 z "},"æ":{"ha":776,"x_min":40,"x_max":775,"o":"m 175 -14 q 102 10 132 -14 q 56 79 72 33 q 40 192 40 125 q 52 332 40 257 q 88 480 64 407 q 146 613 111 553 q 227 708 181 672 q 332 744 274 744 q 396 727 371 744 q 435 681 421 710 q 453 617 449 653 l 457 617 l 483 731 l 513 731 l 485 600 q 567 705 521 665 q 665 744 614 744 q 744 716 714 744 q 775 621 775 688 q 756 524 775 572 q 698 437 738 476 q 595 373 658 397 q 442 349 532 349 l 433 349 q 424 281 428 317 q 421 204 421 244 q 451 65 421 108 q 547 21 482 21 q 608 31 579 21 q 664 57 638 42 l 664 17 q 611 -5 642 4 q 540 -14 581 -14 q 437 24 475 -14 q 389 143 399 63 l 358 0 l 329 0 l 351 125 l 349 125 q 301 51 326 82 q 246 3 276 19 q 175 -14 215 -14 m 179 21 q 253 44 221 21 q 310 110 285 68 q 353 203 335 151 q 386 311 372 256 q 415 449 403 379 q 428 578 428 519 q 402 674 428 638 q 331 710 376 710 q 242 676 282 710 q 171 585 201 642 q 119 460 140 528 q 88 322 99 392 q 78 194 78 253 q 106 61 78 101 q 179 21 135 21 m 446 383 q 617 419 553 383 q 709 510 681 456 q 738 619 738 564 q 719 686 738 663 q 664 710 701 710 q 571 666 615 710 q 492 549 526 622 q 439 383 457 475 l 446 383 z "},"ç":{"ha":374,"x_min":-57,"x_max":414,"o":"m 193 -14 q 109 8 143 -14 q 58 77 75 29 q 42 204 42 125 q 53 343 42 269 q 87 488 64 417 q 144 617 110 558 q 226 710 179 675 q 331 744 272 744 q 376 740 354 744 q 414 729 399 736 l 401 694 q 367 706 385 703 q 331 710 350 710 q 224 662 271 710 q 144 538 176 614 q 94 374 111 461 q 78 207 78 286 q 91 98 78 139 q 131 39 104 57 q 196 21 157 21 q 242 26 219 21 q 285 42 265 32 l 285 6 q 245 -8 268 -1 q 193 -14 222 -14 m 24 -333 q -24 -330 -7 -333 q -57 -324 -42 -326 l -57 -289 q -26 -297 -46 -293 q 26 -300 -6 -300 q 91 -286 63 -300 q 135 -248 119 -272 q 150 -196 150 -224 q 119 -134 150 -153 q 33 -110 89 -115 l 113 0 l 147 0 l 83 -90 q 157 -123 129 -99 q 185 -192 185 -147 q 164 -263 185 -231 q 107 -315 143 -296 q 24 -333 71 -333 z "},"è":{"ha":453,"x_min":38,"x_max":429,"o":"m 194 -14 q 109 9 144 -14 q 56 78 74 32 q 38 197 38 125 q 60 407 38 308 q 122 582 83 506 q 213 701 161 658 q 319 744 264 744 q 399 716 368 744 q 429 621 429 688 q 410 524 429 572 q 352 437 392 476 q 249 373 313 397 q 96 349 186 349 l 88 349 q 78 281 82 317 q 75 204 75 244 q 106 65 75 108 q 201 21 136 21 q 263 31 233 21 q 318 57 292 42 l 318 17 q 265 -5 296 4 q 194 -14 235 -14 m 100 383 q 271 419 207 383 q 363 510 335 456 q 392 619 392 564 q 374 686 392 663 q 318 710 356 710 q 225 666 269 710 q 146 549 181 622 q 93 383 111 475 l 100 383 m 338 842 q 299 903 319 868 q 260 977 279 939 q 226 1050 240 1015 l 226 1060 l 260 1060 q 290 987 275 1022 q 320 918 304 951 q 354 853 336 885 l 354 842 l 338 842 z "},"é":{"ha":453,"x_min":38,"x_max":479,"o":"m 194 -14 q 109 9 144 -14 q 56 78 74 32 q 38 197 38 125 q 60 407 38 308 q 122 582 83 506 q 213 701 161 658 q 319 744 264 744 q 399 716 368 744 q 429 621 429 688 q 410 524 429 572 q 352 437 392 476 q 249 373 313 397 q 96 349 186 349 l 88 349 q 78 281 82 317 q 75 204 75 244 q 106 65 75 108 q 201 21 136 21 q 263 31 233 21 q 318 57 292 42 l 318 17 q 265 -5 296 4 q 194 -14 235 -14 m 100 383 q 271 419 207 383 q 363 510 335 456 q 392 619 392 564 q 374 686 392 663 q 318 710 356 710 q 225 666 269 710 q 146 549 181 622 q 93 383 111 475 l 100 383 m 269 847 q 337 919 304 881 q 396 994 369 957 q 438 1058 422 1031 l 479 1058 l 479 1047 q 442 996 465 1025 q 392 937 419 967 q 338 881 365 907 q 285 836 310 854 l 271 836 l 269 847 z "},"ê":{"ha":453,"x_min":38,"x_max":471,"o":"m 194 -14 q 109 9 144 -14 q 56 78 74 32 q 38 197 38 125 q 60 407 38 308 q 122 582 83 506 q 213 701 161 658 q 319 744 264 744 q 399 716 368 744 q 429 621 429 688 q 410 524 429 572 q 352 437 392 476 q 249 373 313 397 q 96 349 186 349 l 88 349 q 78 281 82 317 q 75 204 75 244 q 106 65 75 108 q 201 21 136 21 q 263 31 233 21 q 318 57 292 42 l 318 17 q 265 -5 296 4 q 194 -14 235 -14 m 100 383 q 271 419 207 383 q 363 510 335 456 q 392 619 392 564 q 374 686 392 663 q 318 710 356 710 q 225 666 269 710 q 146 549 181 622 q 93 383 111 475 l 100 383 m 201 853 q 258 915 228 879 q 316 990 288 951 q 364 1064 344 1029 l 393 1064 q 413 994 399 1036 q 443 914 426 953 q 471 853 460 875 l 469 842 l 456 842 q 426 891 442 864 q 396 949 410 918 q 371 1010 382 979 q 301 925 342 969 q 214 842 261 881 l 200 842 l 201 853 z "},"ë":{"ha":453,"x_min":38,"x_max":465,"o":"m 194 -14 q 109 9 144 -14 q 56 78 74 32 q 38 197 38 125 q 60 407 38 308 q 122 582 83 506 q 213 701 161 658 q 319 744 264 744 q 399 716 368 744 q 429 621 429 688 q 410 524 429 572 q 352 437 392 476 q 249 373 313 397 q 96 349 186 349 l 88 349 q 78 281 82 317 q 75 204 75 244 q 106 65 75 108 q 201 21 136 21 q 263 31 233 21 q 318 57 292 42 l 318 17 q 265 -5 296 4 q 194 -14 235 -14 m 100 383 q 271 419 207 383 q 363 510 335 456 q 392 619 392 564 q 374 686 392 663 q 318 710 356 710 q 225 666 269 710 q 146 549 181 622 q 93 383 111 475 l 100 383 m 429 899 q 411 907 418 899 q 404 931 404 915 q 413 969 404 949 q 440 989 422 989 q 458 981 451 989 q 465 957 465 972 q 456 919 465 940 q 429 899 447 899 m 254 899 q 236 907 243 899 q 229 931 229 915 q 238 969 229 949 q 265 989 247 989 q 279 985 274 989 q 288 975 285 982 q 290 957 290 968 q 281 919 290 940 q 254 899 272 899 z "},"ì":{"ha":215,"x_min":8,"x_max":236,"o":"m 8 0 l 164 731 l 199 731 l 43 0 l 8 0 m 219 842 q 181 903 201 868 q 142 977 161 939 q 108 1050 122 1015 l 108 1060 l 142 1060 q 172 987 157 1022 q 202 918 186 951 q 236 853 218 885 l 236 842 l 219 842 z "},"í":{"ha":215,"x_min":8,"x_max":361,"o":"m 8 0 l 164 731 l 199 731 l 43 0 l 8 0 m 151 847 q 219 919 186 881 q 278 994 251 957 q 319 1058 304 1031 l 361 1058 l 361 1047 q 324 996 347 1025 q 274 937 301 967 q 219 881 247 907 q 167 836 192 854 l 153 836 l 151 847 z "},"î":{"ha":215,"x_min":8,"x_max":329,"o":"m 8 0 l 164 731 l 199 731 l 43 0 l 8 0 m 60 853 q 116 915 86 879 q 174 990 146 951 q 222 1064 203 1029 l 251 1064 q 271 994 257 1036 q 301 914 285 953 q 329 853 318 875 l 328 842 l 314 842 q 284 891 300 864 q 254 949 268 918 q 229 1010 240 979 q 160 925 200 969 q 72 842 119 881 l 58 842 l 60 853 z "},"ï":{"ha":215,"x_min":8,"x_max":319,"o":"m 8 0 l 164 731 l 199 731 l 43 0 l 8 0 m 283 899 q 265 907 272 899 q 258 931 258 915 q 267 969 258 949 q 294 989 276 989 q 313 981 306 989 q 319 957 319 972 q 310 919 319 940 q 283 899 301 899 m 108 899 q 90 907 97 899 q 83 931 83 915 q 92 969 83 949 q 119 989 101 989 q 133 985 128 989 q 142 975 139 982 q 144 957 144 968 q 135 919 144 940 q 108 899 126 899 z "},"ð":{"ha":496,"x_min":11,"x_max":493,"o":"m 161 -14 q 79 10 113 -14 q 28 80 46 33 q 11 192 11 126 q 28 345 11 267 q 78 490 44 424 q 161 599 111 557 q 278 640 211 640 q 367 601 339 640 q 401 511 394 561 l 404 511 q 378 740 404 635 q 299 919 351 846 l 128 825 l 114 857 l 279 946 q 229 995 265 968 q 156 1040 193 1022 l 172 1067 q 244 1024 208 1050 q 311 963 279 999 l 478 1051 l 493 1022 l 331 935 q 389 822 365 886 q 425 686 413 758 q 438 538 438 614 q 430 411 438 483 q 405 265 422 339 q 356 127 388 190 q 276 25 324 64 q 161 -14 229 -14 m 163 21 q 250 50 213 21 q 314 127 288 79 q 356 230 340 175 q 380 336 372 285 q 388 425 388 388 q 380 499 388 465 q 358 556 372 532 q 324 592 344 579 q 275 606 303 606 q 175 567 218 606 q 103 466 132 528 q 60 332 75 404 q 46 193 46 260 q 78 63 46 104 q 163 21 110 21 z "},"ñ":{"ha":496,"x_min":8,"x_max":532,"o":"m 8 0 l 163 731 l 192 731 l 172 622 l 175 622 q 216 688 192 661 q 272 730 240 715 q 340 744 304 744 q 400 732 375 744 q 440 694 425 719 q 454 632 454 669 q 445 550 454 600 q 426 457 436 500 l 329 0 l 293 0 l 393 471 q 410 553 401 511 q 418 629 418 594 q 396 690 418 669 q 336 710 374 710 q 246 675 285 710 q 179 572 207 640 q 129 399 151 503 l 44 0 l 8 0 m 164 847 q 185 919 171 892 q 223 961 200 947 q 276 975 246 975 q 324 961 304 975 q 359 929 343 947 q 390 897 375 911 q 426 883 406 883 q 472 905 454 883 q 497 975 489 926 l 532 975 q 512 905 526 933 q 475 863 497 876 q 424 849 453 849 q 376 863 396 849 q 342 894 357 876 q 310 926 326 913 q 272 940 294 940 q 222 916 239 940 q 199 847 206 892 l 164 847 z "},"ò":{"ha":499,"x_min":39,"x_max":460,"o":"m 182 -14 q 106 7 139 -14 q 56 73 74 28 q 39 190 39 118 q 48 311 39 240 q 77 458 57 382 q 131 599 97 533 q 211 704 164 664 q 322 744 258 744 q 396 723 365 744 q 443 656 426 701 q 460 539 460 611 q 449 401 460 475 q 417 253 439 326 q 362 119 394 179 q 284 22 329 58 q 182 -14 239 -14 m 183 21 q 271 56 232 21 q 338 150 310 92 q 385 278 367 208 q 413 416 404 347 q 422 539 422 485 q 410 634 422 596 q 376 691 399 672 q 319 710 354 710 q 228 672 268 710 q 160 572 189 633 q 113 439 132 510 q 85 302 94 368 q 76 190 76 236 q 104 63 76 106 q 183 21 132 21 m 361 842 q 323 903 343 868 q 283 977 303 939 q 250 1050 264 1015 l 250 1060 l 283 1060 q 313 987 299 1022 q 344 918 328 951 q 378 853 360 885 l 378 842 l 361 842 z "},"ó":{"ha":499,"x_min":39,"x_max":503,"o":"m 182 -14 q 106 7 139 -14 q 56 73 74 28 q 39 190 39 118 q 48 311 39 240 q 77 458 57 382 q 131 599 97 533 q 211 704 164 664 q 322 744 258 744 q 396 723 365 744 q 443 656 426 701 q 460 539 460 611 q 449 401 460 475 q 417 253 439 326 q 362 119 394 179 q 284 22 329 58 q 182 -14 239 -14 m 183 21 q 271 56 232 21 q 338 150 310 92 q 385 278 367 208 q 413 416 404 347 q 422 539 422 485 q 410 634 422 596 q 376 691 399 672 q 319 710 354 710 q 228 672 268 710 q 160 572 189 633 q 113 439 132 510 q 85 302 94 368 q 76 190 76 236 q 104 63 76 106 q 183 21 132 21 m 293 847 q 360 919 328 881 q 419 994 393 957 q 461 1058 446 1031 l 503 1058 l 503 1047 q 466 996 489 1025 q 416 937 443 967 q 361 881 389 907 q 308 836 333 854 l 294 836 l 293 847 z "},"ô":{"ha":499,"x_min":39,"x_max":472,"o":"m 182 -14 q 106 7 139 -14 q 56 73 74 28 q 39 190 39 118 q 48 311 39 240 q 77 458 57 382 q 131 599 97 533 q 211 704 164 664 q 322 744 258 744 q 396 723 365 744 q 443 656 426 701 q 460 539 460 611 q 449 401 460 475 q 417 253 439 326 q 362 119 394 179 q 284 22 329 58 q 182 -14 239 -14 m 183 21 q 271 56 232 21 q 338 150 310 92 q 385 278 367 208 q 413 416 404 347 q 422 539 422 485 q 410 634 422 596 q 376 691 399 672 q 319 710 354 710 q 228 672 268 710 q 160 572 189 633 q 113 439 132 510 q 85 302 94 368 q 76 190 76 236 q 104 63 76 106 q 183 21 132 21 m 203 853 q 259 915 229 879 q 317 990 289 951 q 365 1064 346 1029 l 394 1064 q 414 994 400 1036 q 444 914 428 953 q 472 853 461 875 l 471 842 l 457 842 q 427 891 443 864 q 397 949 411 918 q 372 1010 383 979 q 303 925 343 969 q 215 842 263 881 l 201 842 l 203 853 z "},"õ":{"ha":499,"x_min":39,"x_max":526,"o":"m 182 -14 q 106 7 139 -14 q 56 73 74 28 q 39 190 39 118 q 48 311 39 240 q 77 458 57 382 q 131 599 97 533 q 211 704 164 664 q 322 744 258 744 q 396 723 365 744 q 443 656 426 701 q 460 539 460 611 q 449 401 460 475 q 417 253 439 326 q 362 119 394 179 q 284 22 329 58 q 182 -14 239 -14 m 183 21 q 271 56 232 21 q 338 150 310 92 q 385 278 367 208 q 413 416 404 347 q 422 539 422 485 q 410 634 422 596 q 376 691 399 672 q 319 710 354 710 q 228 672 268 710 q 160 572 189 633 q 113 439 132 510 q 85 302 94 368 q 76 190 76 236 q 104 63 76 106 q 183 21 132 21 m 158 849 q 180 921 165 893 q 217 963 194 949 q 271 976 240 976 q 318 963 299 976 q 353 931 338 949 q 385 899 369 913 q 421 885 400 885 q 466 906 449 885 q 492 976 483 928 l 526 976 q 506 906 521 935 q 469 864 492 878 q 418 850 447 850 q 371 864 390 850 q 336 896 351 878 q 305 928 321 914 q 267 942 289 942 q 217 917 233 942 q 193 849 200 893 l 158 849 z "},"ö":{"ha":499,"x_min":39,"x_max":467,"o":"m 182 -14 q 106 7 139 -14 q 56 73 74 28 q 39 190 39 118 q 48 311 39 240 q 77 458 57 382 q 131 599 97 533 q 211 704 164 664 q 322 744 258 744 q 396 723 365 744 q 443 656 426 701 q 460 539 460 611 q 449 401 460 475 q 417 253 439 326 q 362 119 394 179 q 284 22 329 58 q 182 -14 239 -14 m 183 21 q 271 56 232 21 q 338 150 310 92 q 385 278 367 208 q 413 416 404 347 q 422 539 422 485 q 410 634 422 596 q 376 691 399 672 q 319 710 354 710 q 228 672 268 710 q 160 572 189 633 q 113 439 132 510 q 85 302 94 368 q 76 190 76 236 q 104 63 76 106 q 183 21 132 21 m 431 899 q 413 907 419 899 q 406 931 406 915 q 415 969 406 949 q 442 989 424 989 q 460 981 453 989 q 467 957 467 972 q 458 919 467 940 q 431 899 449 899 m 256 899 q 238 907 244 899 q 231 931 231 915 q 240 969 231 949 q 267 989 249 989 q 281 985 275 989 q 289 975 286 982 q 292 957 292 968 q 283 919 292 940 q 256 899 274 899 z "},"÷":{"ha":554,"x_min":40,"x_max":513,"o":"m 40 472 l 40 507 l 513 507 l 513 472 l 40 472 m 276 194 q 248 209 254 194 q 242 242 242 224 q 250 279 242 265 q 276 293 258 293 q 304 278 297 293 q 311 244 311 264 q 304 209 311 224 q 276 194 297 194 m 276 686 q 249 701 256 686 q 242 736 242 715 q 249 770 242 756 q 276 785 256 785 q 304 770 297 785 q 311 735 311 756 q 304 700 311 714 q 276 686 297 686 z "},"ø":{"ha":504,"x_min":0,"x_max":501,"o":"m 31 -86 l 0 -69 l 65 53 q 46 112 53 78 q 39 190 39 146 q 48 311 39 240 q 77 458 57 382 q 131 599 97 533 q 211 704 164 664 q 322 744 258 744 q 373 735 350 744 q 414 707 396 726 l 471 814 l 501 797 l 436 674 q 453 617 447 650 q 460 539 460 583 q 449 401 460 475 q 417 253 439 326 q 362 119 394 179 q 284 22 329 58 q 182 -14 239 -14 q 131 -5 154 -14 q 88 22 107 4 l 31 -86 m 183 21 q 271 56 232 21 q 338 150 310 92 q 385 278 367 208 q 413 416 404 347 q 422 539 422 485 q 420 589 422 567 q 413 629 418 611 l 107 58 q 140 31 121 40 q 183 21 160 21 m 394 671 q 363 700 382 690 q 319 710 344 710 q 228 672 268 710 q 160 572 189 633 q 113 439 132 510 q 85 302 94 368 q 76 190 76 236 q 80 139 76 163 q 89 96 83 115 l 394 671 z "},"ù":{"ha":497,"x_min":36,"x_max":482,"o":"m 150 -14 q 91 -1 117 -14 q 51 36 65 11 q 36 99 36 61 q 45 181 36 131 q 64 274 54 231 l 161 731 l 197 731 l 97 260 q 81 178 89 219 q 72 101 72 138 q 94 41 72 61 q 154 21 117 21 q 245 56 207 21 q 312 160 283 90 q 361 332 340 229 l 446 731 l 482 731 l 328 0 l 299 0 l 318 108 l 315 108 q 275 43 300 71 q 218 1 250 15 q 150 -14 186 -14 m 360 842 q 322 903 342 868 q 282 977 301 939 q 249 1050 263 1015 l 249 1060 l 282 1060 q 312 987 297 1022 q 342 918 326 951 q 376 853 358 885 l 376 842 l 360 842 z "},"ú":{"ha":497,"x_min":36,"x_max":501,"o":"m 150 -14 q 91 -1 117 -14 q 51 36 65 11 q 36 99 36 61 q 45 181 36 131 q 64 274 54 231 l 161 731 l 197 731 l 97 260 q 81 178 89 219 q 72 101 72 138 q 94 41 72 61 q 154 21 117 21 q 245 56 207 21 q 312 160 283 90 q 361 332 340 229 l 446 731 l 482 731 l 328 0 l 299 0 l 318 108 l 315 108 q 275 43 300 71 q 218 1 250 15 q 150 -14 186 -14 m 292 847 q 359 919 326 881 q 418 994 392 957 q 460 1058 444 1031 l 501 1058 l 501 1047 q 465 996 488 1025 q 415 937 442 967 q 360 881 388 907 q 307 836 332 854 l 293 836 l 292 847 z "},"û":{"ha":497,"x_min":36,"x_max":482,"o":"m 150 -14 q 91 -1 117 -14 q 51 36 65 11 q 36 99 36 61 q 45 181 36 131 q 64 274 54 231 l 161 731 l 197 731 l 97 260 q 81 178 89 219 q 72 101 72 138 q 94 41 72 61 q 154 21 117 21 q 245 56 207 21 q 312 160 283 90 q 361 332 340 229 l 446 731 l 482 731 l 328 0 l 299 0 l 318 108 l 315 108 q 275 43 300 71 q 218 1 250 15 q 150 -14 186 -14 m 206 853 q 262 915 232 879 q 320 990 292 951 q 368 1064 349 1029 l 397 1064 q 417 994 403 1036 q 447 914 431 953 q 475 853 464 875 l 474 842 l 460 842 q 430 891 446 864 q 400 949 414 918 q 375 1010 386 979 q 306 925 346 969 q 218 842 265 881 l 204 842 l 206 853 z "},"ü":{"ha":497,"x_min":36,"x_max":482,"o":"m 150 -14 q 91 -1 117 -14 q 51 36 65 11 q 36 99 36 61 q 45 181 36 131 q 64 274 54 231 l 161 731 l 197 731 l 97 260 q 81 178 89 219 q 72 101 72 138 q 94 41 72 61 q 154 21 117 21 q 245 56 207 21 q 312 160 283 90 q 361 332 340 229 l 446 731 l 482 731 l 328 0 l 299 0 l 318 108 l 315 108 q 275 43 300 71 q 218 1 250 15 q 150 -14 186 -14 m 419 899 q 401 907 408 899 q 394 931 394 915 q 403 969 394 949 q 431 989 413 989 q 449 981 442 989 q 456 957 456 972 q 447 919 456 940 q 419 899 438 899 m 244 899 q 226 907 233 899 q 219 931 219 915 q 228 969 219 949 q 256 989 238 989 q 269 985 264 989 q 278 975 275 982 q 281 957 281 968 q 272 919 281 940 q 244 899 263 899 z "},"ý":{"ha":408,"x_min":-160,"x_max":478,"o":"m -101 -337 q -137 -333 -122 -337 q -160 -324 -153 -329 l -151 -289 q -129 -299 -142 -294 q -99 -303 -117 -303 q -23 -272 -54 -303 q 42 -164 8 -240 l 121 18 l 113 731 l 149 731 l 153 196 q 153 161 153 181 q 153 120 153 142 q 151 79 153 99 l 154 79 q 172 122 163 100 q 190 165 181 144 q 206 200 199 185 l 440 731 l 478 731 l 76 -175 q 26 -269 51 -233 q -30 -321 0 -304 q -101 -337 -60 -337 m 247 847 q 315 919 282 881 q 374 994 347 957 q 415 1058 400 1031 l 457 1058 l 457 1047 q 420 996 443 1025 q 370 937 397 967 q 315 881 343 907 q 263 836 288 854 l 249 836 l 247 847 z "},"þ":{"ha":519,"x_min":-57,"x_max":482,"o":"m -57 -317 l 232 1056 l 268 1056 l 188 675 q 178 633 182 649 q 171 604 174 618 l 174 604 q 221 678 196 647 q 277 727 246 710 q 347 744 308 744 q 447 692 413 744 q 482 539 482 639 q 470 399 482 474 q 435 251 458 324 q 376 118 411 178 q 295 22 342 58 q 190 -14 249 -14 q 128 2 154 -14 q 89 44 103 18 q 69 104 75 71 l 67 104 q 53 33 61 74 q 38 -44 46 -7 l -21 -317 l -57 -317 m 192 21 q 281 55 240 21 q 351 146 321 89 q 403 271 382 203 q 434 408 424 339 q 444 536 444 478 q 416 669 444 629 q 343 710 388 710 q 254 669 293 710 q 187 566 215 629 q 139 432 158 503 q 114 319 124 375 q 99 220 104 264 q 94 153 94 176 q 120 57 94 93 q 192 21 146 21 z "},"ÿ":{"ha":408,"x_min":-160,"x_max":478,"o":"m -101 -337 q -137 -333 -122 -337 q -160 -324 -153 -329 l -151 -289 q -129 -299 -142 -294 q -99 -303 -117 -303 q -23 -272 -54 -303 q 42 -164 8 -240 l 121 18 l 113 731 l 149 731 l 153 196 q 153 161 153 181 q 153 120 153 142 q 151 79 153 99 l 154 79 q 172 122 163 100 q 190 165 181 144 q 206 200 199 185 l 440 731 l 478 731 l 76 -175 q 26 -269 51 -233 q -30 -321 0 -304 q -101 -337 -60 -337 m 342 899 q 324 907 331 899 q 317 931 317 915 q 326 969 317 949 q 353 989 335 989 q 371 981 364 989 q 378 957 378 972 q 369 919 378 940 q 342 899 360 899 m 167 899 q 149 907 156 899 q 142 931 142 915 q 151 969 142 949 q 178 989 160 989 q 192 985 186 989 q 200 975 197 982 q 203 957 203 968 q 194 919 203 940 q 167 899 185 899 z "},"Ā":{"ha":453,"x_min":-94,"x_max":493,"o":"m -94 0 l 314 996 l 360 996 l 357 0 l 321 0 l 322 394 l 107 394 l -56 0 l -94 0 m 119 429 l 321 429 l 325 842 q 325 897 325 871 q 326 942 325 924 l 324 942 q 308 899 318 924 q 285 840 299 874 l 119 429 m 189 1104 l 196 1139 l 493 1139 l 485 1104 l 189 1104 z "},"ā":{"ha":526,"x_min":40,"x_max":513,"o":"m 175 -14 q 102 10 132 -14 q 56 79 72 33 q 40 192 40 125 q 52 332 40 257 q 88 480 64 407 q 146 613 111 553 q 227 708 181 672 q 332 744 274 744 q 396 727 371 744 q 435 681 421 710 q 453 617 449 653 l 457 617 l 483 731 l 513 731 l 358 0 l 329 0 l 351 125 l 349 125 q 301 51 326 82 q 246 3 276 19 q 175 -14 215 -14 m 179 21 q 274 63 235 21 q 340 170 313 104 q 386 311 368 236 q 415 449 403 379 q 428 578 428 519 q 402 674 428 638 q 331 710 376 710 q 242 676 282 710 q 171 585 201 642 q 119 460 140 528 q 88 322 99 392 q 78 194 78 253 q 106 61 78 101 q 179 21 135 21 m 206 849 l 213 883 l 510 883 l 501 849 l 206 849 z "},"Ă":{"ha":453,"x_min":-94,"x_max":503,"o":"m -94 0 l 314 996 l 360 996 l 357 0 l 321 0 l 322 394 l 107 394 l -56 0 l -94 0 m 119 429 l 321 429 l 325 842 q 325 897 325 871 q 326 942 325 924 l 324 942 q 308 899 318 924 q 285 840 299 874 l 119 429 m 353 1099 q 277 1115 304 1099 q 239 1160 250 1132 q 228 1221 228 1189 q 228 1233 228 1228 q 228 1240 228 1238 l 256 1240 q 263 1183 256 1207 q 292 1145 271 1158 q 353 1132 314 1132 q 437 1156 410 1132 q 474 1240 464 1181 l 503 1240 q 459 1135 493 1171 q 353 1099 425 1099 z "},"ă":{"ha":526,"x_min":40,"x_max":519,"o":"m 175 -14 q 102 10 132 -14 q 56 79 72 33 q 40 192 40 125 q 52 332 40 257 q 88 480 64 407 q 146 613 111 553 q 227 708 181 672 q 332 744 274 744 q 396 727 371 744 q 435 681 421 710 q 453 617 449 653 l 457 617 l 483 731 l 513 731 l 358 0 l 329 0 l 351 125 l 349 125 q 301 51 326 82 q 246 3 276 19 q 175 -14 215 -14 m 179 21 q 274 63 235 21 q 340 170 313 104 q 386 311 368 236 q 415 449 403 379 q 428 578 428 519 q 402 674 428 638 q 331 710 376 710 q 242 676 282 710 q 171 585 201 642 q 119 460 140 528 q 88 322 99 392 q 78 194 78 253 q 106 61 78 101 q 179 21 135 21 m 369 843 q 294 860 321 843 q 256 905 267 876 q 244 965 244 933 q 244 977 244 972 q 244 985 244 982 l 272 985 q 280 927 272 951 q 309 890 288 903 q 369 876 331 876 q 453 901 426 876 q 490 985 481 925 l 519 985 q 476 879 510 915 q 369 843 442 843 z "},"Ą":{"ha":453,"x_min":-94,"x_max":360,"o":"m -94 0 l 314 996 l 360 996 l 357 0 l 321 0 l 322 394 l 107 394 l -56 0 l -94 0 m 119 429 l 321 429 l 325 842 q 325 897 325 871 q 326 942 325 924 l 324 942 q 308 899 318 924 q 285 840 299 874 l 119 429 m 268 -299 q 197 -273 222 -299 q 172 -208 172 -247 q 185 -142 172 -174 q 228 -76 197 -111 q 315 0 260 -42 l 353 0 q 267 -77 299 -43 q 223 -141 236 -111 q 210 -203 210 -171 q 226 -249 210 -233 q 274 -264 242 -264 q 301 -261 288 -264 q 325 -256 314 -258 l 319 -289 q 298 -295 310 -292 q 268 -299 286 -299 z "},"ą":{"ha":526,"x_min":40,"x_max":513,"o":"m 175 -14 q 102 10 132 -14 q 56 79 72 33 q 40 192 40 125 q 52 332 40 257 q 88 480 64 407 q 146 613 111 553 q 227 708 181 672 q 332 744 274 744 q 396 727 371 744 q 435 681 421 710 q 453 617 449 653 l 457 617 l 483 731 l 513 731 l 358 0 l 329 0 l 351 125 l 349 125 q 301 51 326 82 q 246 3 276 19 q 175 -14 215 -14 m 179 21 q 274 63 235 21 q 340 170 313 104 q 386 311 368 236 q 415 449 403 379 q 428 578 428 519 q 402 674 428 638 q 331 710 376 710 q 242 676 282 710 q 171 585 201 642 q 119 460 140 528 q 88 322 99 392 q 78 194 78 253 q 106 61 78 101 q 179 21 135 21 m 276 -299 q 206 -273 231 -299 q 181 -208 181 -247 q 193 -142 181 -174 q 237 -76 206 -111 q 324 0 268 -42 l 361 0 q 276 -77 307 -43 q 231 -141 244 -111 q 218 -203 218 -171 q 234 -249 218 -233 q 282 -264 250 -264 q 309 -261 296 -264 q 333 -256 322 -258 l 328 -289 q 306 -295 318 -292 q 276 -299 294 -299 z "},"Ć":{"ha":468,"x_min":51,"x_max":578,"o":"m 254 -14 q 142 19 188 -14 q 74 124 97 53 q 51 311 51 196 q 67 475 51 383 q 113 660 82 567 q 193 831 144 753 q 309 958 242 910 q 464 1007 376 1007 q 531 997 504 1007 q 578 972 558 988 l 556 942 q 517 965 542 957 q 461 972 493 972 q 326 927 386 972 q 222 808 267 882 q 148 647 178 735 q 103 470 118 558 q 89 311 89 382 q 131 89 89 157 q 257 21 172 21 q 303 26 279 21 q 358 43 328 32 l 358 6 q 306 -9 331 -4 q 254 -14 281 -14 m 333 1108 q 401 1180 368 1142 q 460 1255 433 1218 q 501 1319 486 1292 l 543 1319 l 543 1308 q 506 1257 529 1286 q 456 1198 483 1228 q 401 1142 429 1168 q 349 1097 374 1115 l 335 1097 l 333 1108 z "},"ć":{"ha":374,"x_min":42,"x_max":440,"o":"m 193 -14 q 109 8 143 -14 q 58 77 75 29 q 42 204 42 125 q 53 343 42 269 q 87 488 64 417 q 144 617 110 558 q 226 710 179 675 q 331 744 272 744 q 376 740 354 744 q 414 729 399 736 l 401 694 q 367 706 385 703 q 331 710 350 710 q 224 662 271 710 q 144 538 176 614 q 94 374 111 461 q 78 207 78 286 q 91 98 78 139 q 131 39 104 57 q 196 21 157 21 q 242 26 219 21 q 285 42 265 32 l 285 6 q 245 -8 268 -1 q 193 -14 222 -14 m 231 847 q 298 919 265 881 q 357 994 331 957 q 399 1058 383 1031 l 440 1058 l 440 1047 q 403 996 426 1025 q 353 937 381 967 q 299 881 326 907 q 246 836 271 854 l 232 836 l 231 847 z "},"Ĉ":{"ha":468,"x_min":51,"x_max":578,"o":"m 254 -14 q 142 19 188 -14 q 74 124 97 53 q 51 311 51 196 q 67 475 51 383 q 113 660 82 567 q 193 831 144 753 q 309 958 242 910 q 464 1007 376 1007 q 531 997 504 1007 q 578 972 558 988 l 556 942 q 517 965 542 957 q 461 972 493 972 q 326 927 386 972 q 222 808 267 882 q 148 647 178 735 q 103 470 118 558 q 89 311 89 382 q 131 89 89 157 q 257 21 172 21 q 303 26 279 21 q 358 43 328 32 l 358 6 q 306 -9 331 -4 q 254 -14 281 -14 m 303 1082 q 359 1144 329 1108 q 417 1219 389 1181 q 465 1293 446 1258 l 494 1293 q 514 1224 500 1265 q 544 1143 528 1182 q 572 1082 561 1104 l 571 1071 l 557 1071 q 527 1120 543 1093 q 497 1178 511 1147 q 472 1239 483 1208 q 403 1154 443 1199 q 315 1071 363 1110 l 301 1071 l 303 1082 z "},"ĉ":{"ha":374,"x_min":42,"x_max":443,"o":"m 193 -14 q 109 8 143 -14 q 58 77 75 29 q 42 204 42 125 q 53 343 42 269 q 87 488 64 417 q 144 617 110 558 q 226 710 179 675 q 331 744 272 744 q 376 740 354 744 q 414 729 399 736 l 401 694 q 367 706 385 703 q 331 710 350 710 q 224 662 271 710 q 144 538 176 614 q 94 374 111 461 q 78 207 78 286 q 91 98 78 139 q 131 39 104 57 q 196 21 157 21 q 242 26 219 21 q 285 42 265 32 l 285 6 q 245 -8 268 -1 q 193 -14 222 -14 m 174 853 q 230 915 200 879 q 288 990 260 951 q 336 1064 317 1029 l 365 1064 q 385 994 371 1036 q 415 914 399 953 q 443 853 432 875 l 442 842 l 428 842 q 398 891 414 864 q 368 949 382 918 q 343 1010 354 979 q 274 925 314 969 q 186 842 233 881 l 172 842 l 174 853 z "},"Ċ":{"ha":468,"x_min":51,"x_max":578,"o":"m 254 -14 q 142 19 188 -14 q 74 124 97 53 q 51 311 51 196 q 67 475 51 383 q 113 660 82 567 q 193 831 144 753 q 309 958 242 910 q 464 1007 376 1007 q 531 997 504 1007 q 578 972 558 988 l 556 942 q 517 965 542 957 q 461 972 493 972 q 326 927 386 972 q 222 808 267 882 q 148 647 178 735 q 103 470 118 558 q 89 311 89 382 q 131 89 89 157 q 257 21 172 21 q 303 26 279 21 q 358 43 328 32 l 358 6 q 306 -9 331 -4 q 254 -14 281 -14 m 511 1131 q 493 1140 500 1131 q 486 1164 486 1149 q 496 1205 486 1183 q 526 1226 506 1226 q 540 1223 535 1226 q 549 1212 546 1219 q 551 1192 551 1204 q 542 1152 551 1174 q 511 1131 532 1131 z "},"ċ":{"ha":374,"x_min":42,"x_max":419,"o":"m 193 -14 q 109 8 143 -14 q 58 77 75 29 q 42 204 42 125 q 53 343 42 269 q 87 488 64 417 q 144 617 110 558 q 226 710 179 675 q 331 744 272 744 q 376 740 354 744 q 414 729 399 736 l 401 694 q 367 706 385 703 q 331 710 350 710 q 224 662 271 710 q 144 538 176 614 q 94 374 111 461 q 78 207 78 286 q 91 98 78 139 q 131 39 104 57 q 196 21 157 21 q 242 26 219 21 q 285 42 265 32 l 285 6 q 245 -8 268 -1 q 193 -14 222 -14 m 379 893 q 361 902 368 893 q 354 926 354 911 q 364 967 354 946 q 394 989 374 989 q 408 985 403 989 q 417 974 414 982 q 419 954 419 967 q 410 915 419 936 q 379 893 400 893 z "},"Č":{"ha":468,"x_min":51,"x_max":651,"o":"m 254 -14 q 142 19 188 -14 q 74 124 97 53 q 51 311 51 196 q 67 475 51 383 q 113 660 82 567 q 193 831 144 753 q 309 958 242 910 q 464 1007 376 1007 q 531 997 504 1007 q 578 972 558 988 l 556 942 q 517 965 542 957 q 461 972 493 972 q 326 927 386 972 q 222 808 267 882 q 148 647 178 735 q 103 470 118 558 q 89 311 89 382 q 131 89 89 157 q 257 21 172 21 q 303 26 279 21 q 358 43 328 32 l 358 6 q 306 -9 331 -4 q 254 -14 281 -14 m 458 1071 q 439 1141 453 1100 q 409 1222 425 1182 q 381 1282 393 1261 l 382 1293 l 396 1293 q 426 1244 410 1272 q 456 1186 442 1217 q 481 1125 471 1156 q 550 1210 510 1165 q 638 1293 590 1254 l 651 1293 l 650 1282 q 594 1219 625 1256 q 535 1145 564 1183 q 488 1071 507 1107 l 458 1071 z "},"č":{"ha":374,"x_min":42,"x_max":514,"o":"m 193 -14 q 109 8 143 -14 q 58 77 75 29 q 42 204 42 125 q 53 343 42 269 q 87 488 64 417 q 144 617 110 558 q 226 710 179 675 q 331 744 272 744 q 376 740 354 744 q 414 729 399 736 l 401 694 q 367 706 385 703 q 331 710 350 710 q 224 662 271 710 q 144 538 176 614 q 94 374 111 461 q 78 207 78 286 q 91 98 78 139 q 131 39 104 57 q 196 21 157 21 q 242 26 219 21 q 285 42 265 32 l 285 6 q 245 -8 268 -1 q 193 -14 222 -14 m 321 842 q 301 912 315 871 q 272 992 288 953 q 243 1053 256 1032 l 244 1064 l 258 1064 q 288 1015 272 1043 q 319 957 304 988 q 343 896 333 926 q 413 981 372 936 q 500 1064 453 1025 l 514 1064 l 513 1053 q 457 990 488 1026 q 398 916 426 954 q 350 842 369 878 l 321 842 z "},"Ď":{"ha":571,"x_min":4,"x_max":563,"o":"m 4 0 l 214 992 l 318 992 q 485 926 426 992 q 544 707 544 860 q 531 533 544 628 q 487 344 517 439 q 407 172 457 250 q 285 47 357 94 q 118 0 214 0 l 4 0 m 117 35 q 267 79 203 35 q 377 197 332 124 q 451 359 422 269 q 492 539 479 449 q 506 707 506 629 q 456 903 506 849 q 311 957 407 957 l 244 957 l 47 35 l 117 35 m 369 1071 q 350 1141 364 1100 q 320 1222 336 1182 q 292 1282 304 1261 l 293 1293 l 307 1293 q 337 1244 321 1272 q 367 1186 353 1217 q 392 1125 382 1156 q 461 1210 421 1165 q 549 1293 501 1254 l 563 1293 l 561 1282 q 506 1219 536 1256 q 447 1145 475 1183 q 399 1071 418 1107 l 369 1071 z "},"ď":{"ha":519,"x_min":40,"x_max":700,"o":"m 572 843 q 609 913 592 876 q 641 988 626 950 q 663 1056 656 1025 l 700 1056 l 699 1042 q 673 978 690 1017 q 634 901 656 940 q 592 833 613 863 l 572 833 l 572 843 m 175 -14 q 102 10 132 -14 q 56 79 72 33 q 40 192 40 125 q 52 332 40 257 q 88 480 64 407 q 146 613 111 553 q 227 708 181 672 q 332 744 274 744 q 393 729 368 744 q 433 687 418 714 q 451 626 447 660 l 456 626 q 465 674 460 649 q 474 724 469 699 q 485 775 479 750 l 544 1056 l 581 1056 l 358 0 l 329 0 l 351 129 l 349 129 q 302 53 328 86 q 246 3 276 21 q 175 -14 215 -14 m 179 21 q 261 54 225 21 q 325 142 297 88 q 372 262 353 197 q 404 390 392 326 q 422 503 417 453 q 428 578 428 553 q 402 674 428 638 q 331 710 376 710 q 242 676 282 710 q 171 585 201 642 q 119 460 140 528 q 88 322 99 392 q 78 194 78 253 q 106 61 78 101 q 179 21 135 21 z "},"Đ":{"ha":579,"x_min":4,"x_max":544,"o":"m 33 496 l 42 531 l 290 531 l 283 496 l 33 496 m 4 0 l 214 992 l 318 992 q 485 926 426 992 q 544 707 544 860 q 531 533 544 628 q 487 344 517 439 q 407 172 457 250 q 285 47 357 94 q 118 0 214 0 l 4 0 m 117 35 q 267 79 203 35 q 377 197 332 124 q 451 359 422 269 q 492 539 479 449 q 506 707 506 629 q 456 903 506 849 q 311 957 407 957 l 244 957 l 47 35 l 117 35 z "},"đ":{"ha":526,"x_min":40,"x_max":638,"o":"m 175 -14 q 102 10 132 -14 q 56 79 72 33 q 40 192 40 125 q 52 332 40 257 q 88 480 64 407 q 146 613 111 553 q 227 708 181 672 q 332 744 274 744 q 393 729 368 744 q 433 687 418 714 q 451 626 447 660 l 456 626 q 465 674 460 649 q 474 724 469 699 q 485 775 479 750 l 508 883 l 360 883 l 367 918 l 515 918 l 544 1056 l 581 1056 l 551 918 l 638 918 l 631 883 l 544 883 l 358 0 l 329 0 l 351 129 l 349 129 q 302 53 328 86 q 246 3 276 21 q 175 -14 215 -14 m 179 21 q 261 54 225 21 q 325 142 297 88 q 372 262 353 197 q 404 390 392 326 q 422 503 417 453 q 428 578 428 553 q 402 674 428 638 q 331 710 376 710 q 242 676 282 710 q 171 585 201 642 q 119 460 140 528 q 88 322 99 392 q 78 194 78 253 q 106 61 78 101 q 179 21 135 21 z "},"Ē":{"ha":469,"x_min":3,"x_max":535,"o":"m 3 0 l 214 992 l 526 992 l 519 957 l 243 957 l 154 539 l 413 539 l 404 504 l 146 504 l 46 35 l 322 35 l 315 0 l 3 0 m 231 1079 l 238 1114 l 535 1114 l 526 1079 l 231 1079 z "},"ē":{"ha":453,"x_min":38,"x_max":501,"o":"m 194 -14 q 109 9 144 -14 q 56 78 74 32 q 38 197 38 125 q 60 407 38 308 q 122 582 83 506 q 213 701 161 658 q 319 744 264 744 q 399 716 368 744 q 429 621 429 688 q 410 524 429 572 q 352 437 392 476 q 249 373 313 397 q 96 349 186 349 l 88 349 q 78 281 82 317 q 75 204 75 244 q 106 65 75 108 q 201 21 136 21 q 263 31 233 21 q 318 57 292 42 l 318 17 q 265 -5 296 4 q 194 -14 235 -14 m 100 383 q 271 419 207 383 q 363 510 335 456 q 392 619 392 564 q 374 686 392 663 q 318 710 356 710 q 225 666 269 710 q 146 549 181 622 q 93 383 111 475 l 100 383 m 197 850 l 204 885 l 501 885 l 493 850 l 197 850 z "},"Ĕ":{"ha":469,"x_min":3,"x_max":533,"o":"m 3 0 l 214 992 l 526 992 l 519 957 l 243 957 l 154 539 l 413 539 l 404 504 l 146 504 l 46 35 l 322 35 l 315 0 l 3 0 m 383 1074 q 308 1090 335 1074 q 269 1135 281 1107 q 258 1196 258 1164 q 258 1208 258 1203 q 258 1215 258 1213 l 286 1215 q 294 1158 286 1182 q 323 1120 301 1133 q 383 1107 344 1107 q 467 1131 440 1107 q 504 1215 494 1156 l 533 1215 q 490 1110 524 1146 q 383 1074 456 1074 z "},"ĕ":{"ha":453,"x_min":38,"x_max":517,"o":"m 194 -14 q 109 9 144 -14 q 56 78 74 32 q 38 197 38 125 q 60 407 38 308 q 122 582 83 506 q 213 701 161 658 q 319 744 264 744 q 399 716 368 744 q 429 621 429 688 q 410 524 429 572 q 352 437 392 476 q 249 373 313 397 q 96 349 186 349 l 88 349 q 78 281 82 317 q 75 204 75 244 q 106 65 75 108 q 201 21 136 21 q 263 31 233 21 q 318 57 292 42 l 318 17 q 265 -5 296 4 q 194 -14 235 -14 m 100 383 q 271 419 207 383 q 363 510 335 456 q 392 619 392 564 q 374 686 392 663 q 318 710 356 710 q 225 666 269 710 q 146 549 181 622 q 93 383 111 475 l 100 383 m 367 844 q 291 861 318 844 q 253 906 264 878 q 242 967 242 935 q 242 978 242 974 q 242 986 242 983 l 269 986 q 277 928 269 953 q 306 891 285 904 q 367 878 328 878 q 451 902 424 878 q 488 986 478 926 l 517 986 q 473 881 507 917 q 367 844 439 844 z "},"Ė":{"ha":469,"x_min":3,"x_max":526,"o":"m 3 0 l 214 992 l 526 992 l 519 957 l 243 957 l 154 539 l 413 539 l 404 504 l 146 504 l 46 35 l 322 35 l 315 0 l 3 0 m 429 1103 q 411 1112 418 1103 q 404 1136 404 1121 q 414 1177 404 1156 q 444 1199 424 1199 q 458 1195 453 1199 q 467 1184 464 1192 q 469 1164 469 1176 q 460 1124 469 1146 q 429 1103 450 1103 z "},"ė":{"ha":453,"x_min":38,"x_max":449,"o":"m 194 -14 q 109 9 144 -14 q 56 78 74 32 q 38 197 38 125 q 60 407 38 308 q 122 582 83 506 q 213 701 161 658 q 319 744 264 744 q 399 716 368 744 q 429 621 429 688 q 410 524 429 572 q 352 437 392 476 q 249 373 313 397 q 96 349 186 349 l 88 349 q 78 281 82 317 q 75 204 75 244 q 106 65 75 108 q 201 21 136 21 q 263 31 233 21 q 318 57 292 42 l 318 17 q 265 -5 296 4 q 194 -14 235 -14 m 100 383 q 271 419 207 383 q 363 510 335 456 q 392 619 392 564 q 374 686 392 663 q 318 710 356 710 q 225 666 269 710 q 146 549 181 622 q 93 383 111 475 l 100 383 m 408 893 q 390 902 397 893 q 383 926 383 911 q 393 967 383 946 q 424 989 403 989 q 438 985 432 989 q 446 974 443 982 q 449 954 449 967 q 439 915 449 936 q 408 893 429 893 z "},"Ę":{"ha":469,"x_min":3,"x_max":526,"o":"m 3 0 l 214 992 l 526 992 l 519 957 l 243 957 l 154 539 l 413 539 l 404 504 l 146 504 l 46 35 l 322 35 l 315 0 l 3 0 m 171 -299 q 100 -273 125 -299 q 75 -208 75 -247 q 88 -142 75 -174 q 131 -76 100 -111 q 218 0 163 -42 l 256 0 q 170 -77 201 -43 q 126 -141 139 -111 q 113 -203 113 -171 q 128 -249 113 -233 q 176 -264 144 -264 q 203 -261 190 -264 q 228 -256 217 -258 l 222 -289 q 201 -295 213 -292 q 171 -299 189 -299 z "},"ę":{"ha":453,"x_min":38,"x_max":429,"o":"m 240 -271 q 181 -244 201 -271 q 161 -178 161 -218 q 172 -113 161 -144 q 211 -48 182 -82 q 293 26 240 -14 l 315 22 q 256 -44 281 -11 q 219 -110 232 -78 q 206 -176 206 -143 q 219 -222 206 -207 q 260 -236 233 -236 q 281 -234 271 -236 q 303 -231 292 -232 l 294 -260 q 272 -268 285 -265 q 240 -271 258 -271 m 194 -14 q 109 9 144 -14 q 56 78 74 32 q 38 197 38 125 q 60 407 38 308 q 122 582 83 506 q 213 701 161 658 q 319 744 264 744 q 399 716 368 744 q 429 621 429 688 q 410 524 429 572 q 352 437 392 476 q 249 373 313 397 q 96 349 186 349 l 88 349 q 78 281 82 317 q 75 204 75 244 q 106 65 75 108 q 201 21 136 21 q 263 31 233 21 q 318 57 292 42 l 318 17 q 265 -5 296 4 q 194 -14 235 -14 m 100 383 q 271 419 207 383 q 363 510 335 456 q 392 619 392 564 q 374 686 392 663 q 318 710 356 710 q 225 666 269 710 q 146 549 181 622 q 93 383 111 475 l 100 383 z "},"Ě":{"ha":469,"x_min":3,"x_max":554,"o":"m 3 0 l 214 992 l 526 992 l 519 957 l 243 957 l 154 539 l 413 539 l 404 504 l 146 504 l 46 35 l 322 35 l 315 0 l 3 0 m 361 1071 q 342 1141 356 1100 q 312 1222 328 1182 q 283 1282 296 1261 l 285 1293 l 299 1293 q 328 1244 313 1272 q 359 1186 344 1217 q 383 1125 374 1156 q 453 1210 413 1165 q 540 1293 493 1254 l 554 1293 l 553 1282 q 497 1219 528 1256 q 438 1145 467 1183 q 390 1071 410 1107 l 361 1071 z "},"ě":{"ha":453,"x_min":38,"x_max":524,"o":"m 194 -14 q 109 9 144 -14 q 56 78 74 32 q 38 197 38 125 q 60 407 38 308 q 122 582 83 506 q 213 701 161 658 q 319 744 264 744 q 399 716 368 744 q 429 621 429 688 q 410 524 429 572 q 352 437 392 476 q 249 373 313 397 q 96 349 186 349 l 88 349 q 78 281 82 317 q 75 204 75 244 q 106 65 75 108 q 201 21 136 21 q 263 31 233 21 q 318 57 292 42 l 318 17 q 265 -5 296 4 q 194 -14 235 -14 m 100 383 q 271 419 207 383 q 363 510 335 456 q 392 619 392 564 q 374 686 392 663 q 318 710 356 710 q 225 666 269 710 q 146 549 181 622 q 93 383 111 475 l 100 383 m 331 842 q 311 912 325 871 q 281 992 297 953 q 253 1053 265 1032 l 254 1064 l 268 1064 q 298 1015 282 1043 q 328 957 314 988 q 353 896 343 926 q 422 981 382 936 q 510 1064 463 1025 l 524 1064 l 522 1053 q 467 990 497 1026 q 408 916 436 954 q 360 842 379 878 l 331 842 z "},"Ĝ":{"ha":628,"x_min":50,"x_max":658,"o":"m 296 -14 q 113 63 175 -14 q 50 299 50 140 q 68 506 50 403 q 122 699 86 608 q 210 858 158 789 q 331 967 263 928 q 485 1007 400 1007 q 587 990 546 1007 q 658 949 628 972 l 636 919 q 569 958 606 943 q 485 972 533 972 q 315 915 389 972 q 191 760 242 857 q 114 544 140 663 q 88 303 88 425 q 112 142 88 204 q 184 50 136 79 q 301 21 232 21 q 372 27 339 21 q 435 44 404 33 l 521 454 l 383 454 l 392 489 l 565 489 l 465 17 q 389 -6 429 3 q 296 -14 349 -14 m 336 1082 q 392 1144 363 1108 q 451 1219 422 1181 q 499 1293 479 1258 l 528 1293 q 547 1224 533 1265 q 578 1143 561 1182 q 606 1082 594 1104 l 604 1071 l 590 1071 q 560 1120 576 1093 q 531 1178 544 1147 q 506 1239 517 1208 q 436 1154 476 1199 q 349 1071 396 1110 l 335 1071 l 336 1082 z "},"ĝ":{"ha":524,"x_min":-25,"x_max":513,"o":"m 104 -333 q 28 -322 64 -333 q -25 -300 -7 -310 l -25 -260 q 8 -277 -12 -268 q 53 -292 28 -286 q 104 -299 78 -299 q 242 -239 199 -299 q 311 -57 285 -179 l 331 33 q 340 73 333 47 q 351 125 346 99 l 349 125 q 301 51 326 82 q 246 3 276 19 q 175 -14 215 -14 q 102 10 132 -14 q 56 79 72 33 q 40 192 40 125 q 52 332 40 257 q 88 480 64 407 q 146 613 111 553 q 227 708 181 672 q 332 744 274 744 q 396 727 371 744 q 435 681 421 710 q 453 617 449 653 l 457 617 l 483 731 l 513 731 l 343 -68 q 297 -211 325 -151 q 222 -302 268 -271 q 104 -333 176 -333 m 179 21 q 261 55 225 21 q 325 144 297 89 q 372 265 353 200 q 404 393 392 331 q 422 506 417 456 q 428 578 428 556 q 402 674 428 638 q 331 710 376 710 q 242 676 282 710 q 171 585 201 642 q 119 460 140 528 q 88 322 99 392 q 78 194 78 253 q 105 61 78 101 q 179 21 132 21 m 175 851 q 231 914 201 878 q 290 989 261 950 q 338 1063 318 1028 l 367 1063 q 386 993 372 1035 q 417 913 400 951 q 444 851 433 874 l 443 840 l 429 840 q 399 890 415 863 q 369 947 383 917 q 344 1008 356 978 q 275 924 315 968 q 188 840 235 879 l 174 840 l 175 851 z "},"Ğ":{"ha":628,"x_min":50,"x_max":658,"o":"m 296 -14 q 113 63 175 -14 q 50 299 50 140 q 68 506 50 403 q 122 699 86 608 q 210 858 158 789 q 331 967 263 928 q 485 1007 400 1007 q 587 990 546 1007 q 658 949 628 972 l 636 919 q 569 958 606 943 q 485 972 533 972 q 315 915 389 972 q 191 760 242 857 q 114 544 140 663 q 88 303 88 425 q 112 142 88 204 q 184 50 136 79 q 301 21 232 21 q 372 27 339 21 q 435 44 404 33 l 521 454 l 383 454 l 392 489 l 565 489 l 465 17 q 389 -6 429 3 q 296 -14 349 -14 m 486 1074 q 410 1090 438 1074 q 372 1135 383 1107 q 361 1196 361 1164 q 361 1208 361 1203 q 361 1215 361 1213 l 389 1215 q 397 1158 389 1182 q 426 1120 404 1133 q 486 1107 447 1107 q 570 1131 543 1107 q 607 1215 597 1156 l 636 1215 q 592 1110 626 1146 q 486 1074 558 1074 z "},"ğ":{"ha":524,"x_min":-25,"x_max":513,"o":"m 104 -333 q 28 -322 64 -333 q -25 -300 -7 -310 l -25 -260 q 8 -277 -12 -268 q 53 -292 28 -286 q 104 -299 78 -299 q 242 -239 199 -299 q 311 -57 285 -179 l 331 33 q 340 73 333 47 q 351 125 346 99 l 349 125 q 301 51 326 82 q 246 3 276 19 q 175 -14 215 -14 q 102 10 132 -14 q 56 79 72 33 q 40 192 40 125 q 52 332 40 257 q 88 480 64 407 q 146 613 111 553 q 227 708 181 672 q 332 744 274 744 q 396 727 371 744 q 435 681 421 710 q 453 617 449 653 l 457 617 l 483 731 l 513 731 l 343 -68 q 297 -211 325 -151 q 222 -302 268 -271 q 104 -333 176 -333 m 179 21 q 261 55 225 21 q 325 144 297 89 q 372 265 353 200 q 404 393 392 331 q 422 506 417 456 q 428 578 428 556 q 402 674 428 638 q 331 710 376 710 q 242 676 282 710 q 171 585 201 642 q 119 460 140 528 q 88 322 99 392 q 78 194 78 253 q 105 61 78 101 q 179 21 132 21 m 322 843 q 247 860 274 843 q 208 905 219 876 q 197 965 197 933 q 197 977 197 972 q 197 985 197 982 l 225 985 q 233 927 225 951 q 262 890 240 903 q 322 876 283 876 q 406 901 379 876 q 443 985 433 925 l 472 985 q 428 879 463 915 q 322 843 394 843 z "},"Ġ":{"ha":628,"x_min":50,"x_max":658,"o":"m 296 -14 q 113 63 175 -14 q 50 299 50 140 q 68 506 50 403 q 122 699 86 608 q 210 858 158 789 q 331 967 263 928 q 485 1007 400 1007 q 587 990 546 1007 q 658 949 628 972 l 636 919 q 569 958 606 943 q 485 972 533 972 q 315 915 389 972 q 191 760 242 857 q 114 544 140 663 q 88 303 88 425 q 112 142 88 204 q 184 50 136 79 q 301 21 232 21 q 372 27 339 21 q 435 44 404 33 l 521 454 l 383 454 l 392 489 l 565 489 l 465 17 q 389 -6 429 3 q 296 -14 349 -14 m 538 1122 q 519 1131 526 1122 q 513 1156 513 1140 q 522 1197 513 1175 q 553 1218 532 1218 q 567 1215 561 1218 q 575 1203 572 1211 q 578 1183 578 1196 q 568 1144 578 1165 q 538 1122 558 1122 z "},"ġ":{"ha":524,"x_min":-25,"x_max":513,"o":"m 104 -333 q 28 -322 64 -333 q -25 -300 -7 -310 l -25 -260 q 8 -277 -12 -268 q 53 -292 28 -286 q 104 -299 78 -299 q 242 -239 199 -299 q 311 -57 285 -179 l 331 33 q 340 73 333 47 q 351 125 346 99 l 349 125 q 301 51 326 82 q 246 3 276 19 q 175 -14 215 -14 q 102 10 132 -14 q 56 79 72 33 q 40 192 40 125 q 52 332 40 257 q 88 480 64 407 q 146 613 111 553 q 227 708 181 672 q 332 744 274 744 q 396 727 371 744 q 435 681 421 710 q 453 617 449 653 l 457 617 l 483 731 l 513 731 l 343 -68 q 297 -211 325 -151 q 222 -302 268 -271 q 104 -333 176 -333 m 179 21 q 261 55 225 21 q 325 144 297 89 q 372 265 353 200 q 404 393 392 331 q 422 506 417 456 q 428 578 428 556 q 402 674 428 638 q 331 710 376 710 q 242 676 282 710 q 171 585 201 642 q 119 460 140 528 q 88 322 99 392 q 78 194 78 253 q 105 61 78 101 q 179 21 132 21 m 364 893 q 346 902 353 893 q 339 926 339 911 q 349 967 339 946 q 379 989 358 989 q 393 985 388 989 q 401 974 399 982 q 404 954 404 967 q 394 915 404 936 q 364 893 385 893 z "},"Ģ":{"ha":628,"x_min":50,"x_max":658,"o":"m 296 -14 q 113 63 175 -14 q 50 299 50 140 q 68 506 50 403 q 122 699 86 608 q 210 858 158 789 q 331 967 263 928 q 485 1007 400 1007 q 587 990 546 1007 q 658 949 628 972 l 636 919 q 569 958 606 943 q 485 972 533 972 q 315 915 389 972 q 191 760 242 857 q 114 544 140 663 q 88 303 88 425 q 112 142 88 204 q 184 50 136 79 q 301 21 232 21 q 372 27 339 21 q 435 44 404 33 l 521 454 l 383 454 l 392 489 l 565 489 l 465 17 q 389 -6 429 3 q 296 -14 349 -14 m 115 -286 q 159 -231 135 -267 q 206 -156 183 -196 q 238 -85 228 -115 l 274 -85 l 274 -100 q 238 -168 263 -129 q 184 -244 213 -207 q 129 -307 156 -282 l 115 -307 l 115 -286 z "},"ģ":{"ha":524,"x_min":-25,"x_max":513,"o":"m 307 857 q 344 925 319 886 q 397 1002 368 964 q 451 1064 426 1040 l 465 1064 l 465 1043 q 422 989 446 1025 q 376 913 397 953 q 343 842 354 874 l 307 842 l 307 857 m 104 -333 q 28 -322 64 -333 q -25 -300 -7 -310 l -25 -260 q 8 -277 -12 -268 q 53 -292 28 -286 q 104 -299 78 -299 q 242 -239 199 -299 q 311 -57 285 -179 l 331 33 q 340 73 333 47 q 351 125 346 99 l 349 125 q 301 51 326 82 q 246 3 276 19 q 175 -14 215 -14 q 102 10 132 -14 q 56 79 72 33 q 40 192 40 125 q 52 332 40 257 q 88 480 64 407 q 146 613 111 553 q 227 708 181 672 q 332 744 274 744 q 396 727 371 744 q 435 681 421 710 q 453 617 449 653 l 457 617 l 483 731 l 513 731 l 343 -68 q 297 -211 325 -151 q 222 -302 268 -271 q 104 -333 176 -333 m 179 21 q 261 55 225 21 q 325 144 297 89 q 372 265 353 200 q 404 393 392 331 q 422 506 417 456 q 428 578 428 556 q 402 674 428 638 q 331 710 376 710 q 242 676 282 710 q 171 585 201 642 q 119 460 140 528 q 88 322 99 392 q 78 194 78 253 q 105 61 78 101 q 179 21 132 21 z "},"Ĥ":{"ha":611,"x_min":3,"x_max":631,"o":"m 3 0 l 214 992 l 250 992 l 154 539 l 499 539 l 594 992 l 631 992 l 419 0 l 383 0 l 490 504 l 146 504 l 39 0 l 3 0 m 288 1082 q 344 1144 314 1108 q 402 1219 374 1181 q 450 1293 431 1258 l 479 1293 q 499 1224 485 1265 q 529 1143 513 1182 q 557 1082 546 1104 l 556 1071 l 542 1071 q 512 1120 528 1093 q 482 1178 496 1147 q 457 1239 468 1208 q 388 1154 428 1199 q 300 1071 347 1110 l 286 1071 l 288 1082 z "},"ĥ":{"ha":497,"x_min":10,"x_max":456,"o":"m 10 0 l 233 1056 l 269 1056 l 197 726 q 190 692 194 708 q 182 658 186 675 q 174 622 178 640 l 176 622 q 217 688 193 661 q 274 730 242 715 q 342 744 306 744 q 401 732 376 744 q 441 694 426 719 q 456 632 456 669 q 447 550 456 600 q 428 457 438 500 l 331 0 l 294 0 l 394 471 q 411 553 403 511 q 419 629 419 594 q 397 690 419 669 q 338 710 375 710 q 247 675 286 710 q 181 572 208 640 q 131 399 153 503 l 46 0 l 10 0 m 131 1164 q 187 1226 157 1190 q 245 1301 217 1263 q 293 1375 274 1340 l 322 1375 q 342 1306 328 1347 q 372 1225 356 1264 q 400 1164 389 1186 l 399 1153 l 385 1153 q 355 1202 371 1175 q 325 1260 339 1229 q 300 1321 311 1290 q 231 1236 271 1281 q 143 1153 190 1192 l 129 1153 l 131 1164 z "},"Ħ":{"ha":597,"x_min":3,"x_max":667,"o":"m 3 0 l 163 753 l 63 753 l 68 788 l 171 788 l 214 992 l 250 992 l 207 788 l 551 788 l 594 992 l 631 992 l 588 788 l 667 788 l 660 753 l 579 753 l 419 0 l 383 0 l 490 504 l 146 504 l 39 0 l 3 0 m 154 539 l 499 539 l 544 753 l 200 753 l 154 539 z "},"ħ":{"ha":504,"x_min":10,"x_max":456,"o":"m 10 0 l 197 883 l 108 883 l 115 918 l 204 918 l 233 1056 l 269 1056 l 239 918 l 385 918 l 378 883 l 232 883 q 206 764 217 814 q 187 680 194 714 q 174 622 179 646 l 176 622 q 217 688 193 661 q 274 730 242 715 q 342 744 306 744 q 401 732 376 744 q 441 694 426 719 q 456 632 456 669 q 447 550 456 600 q 428 457 438 500 l 331 0 l 294 0 l 394 471 q 411 553 403 511 q 419 629 419 594 q 397 690 419 669 q 338 710 375 710 q 247 675 286 710 q 181 572 208 640 q 131 399 153 503 l 46 0 l 10 0 z "},"Ĩ":{"ha":229,"x_min":-81,"x_max":468,"o":"m -81 0 l -75 26 l 8 31 l 206 960 l 125 965 l 131 992 l 328 992 l 322 965 l 240 960 l 43 31 l 122 26 l 117 0 l -81 0 m 100 1110 q 122 1182 107 1154 q 159 1224 136 1210 q 213 1238 182 1238 q 260 1224 240 1238 q 295 1192 279 1210 q 326 1160 311 1174 q 363 1146 342 1146 q 408 1167 390 1146 q 433 1238 425 1189 l 468 1238 q 448 1167 463 1196 q 411 1125 433 1139 q 360 1111 389 1111 q 313 1125 332 1111 q 278 1157 293 1139 q 247 1189 263 1175 q 208 1203 231 1203 q 158 1178 175 1203 q 135 1110 142 1154 l 100 1110 z "},"ĩ":{"ha":215,"x_min":8,"x_max":401,"o":"m 8 0 l 164 731 l 199 731 l 43 0 l 8 0 m 33 849 q 55 921 40 893 q 92 963 69 949 q 146 976 115 976 q 193 963 174 976 q 228 931 213 949 q 260 899 244 913 q 296 885 275 885 q 341 906 324 885 q 367 976 358 928 l 401 976 q 381 906 396 935 q 344 864 367 878 q 293 850 322 850 q 246 864 265 850 q 211 896 226 878 q 180 928 196 914 q 142 942 164 942 q 92 917 108 942 q 68 849 75 893 l 33 849 z "},"Ī":{"ha":229,"x_min":-81,"x_max":418,"o":"m -81 0 l -75 26 l 8 31 l 206 960 l 125 965 l 131 992 l 328 992 l 322 965 l 240 960 l 43 31 l 122 26 l 117 0 l -81 0 m 114 1111 l 121 1146 l 418 1146 l 410 1111 l 114 1111 z "},"ī":{"ha":215,"x_min":8,"x_max":351,"o":"m 8 0 l 164 731 l 199 731 l 43 0 l 8 0 m 47 850 l 54 885 l 351 885 l 343 850 l 47 850 z "},"Ĭ":{"ha":229,"x_min":-81,"x_max":428,"o":"m -81 0 l -75 26 l 8 31 l 206 960 l 125 965 l 131 992 l 328 992 l 322 965 l 240 960 l 43 31 l 122 26 l 117 0 l -81 0 m 278 1106 q 202 1122 229 1106 q 164 1167 175 1139 q 153 1228 153 1196 q 153 1240 153 1235 q 153 1247 153 1244 l 181 1247 q 188 1190 181 1214 q 217 1152 196 1165 q 278 1139 239 1139 q 362 1163 335 1139 q 399 1247 389 1188 l 428 1247 q 384 1142 418 1178 q 278 1106 350 1106 z "},"ĭ":{"ha":215,"x_min":8,"x_max":360,"o":"m 8 0 l 164 731 l 199 731 l 43 0 l 8 0 m 210 844 q 134 861 161 844 q 96 906 107 878 q 85 967 85 935 q 85 978 85 974 q 85 986 85 983 l 113 986 q 120 928 113 953 q 149 891 128 904 q 210 878 171 878 q 294 902 267 878 q 331 986 321 926 l 360 986 q 316 881 350 917 q 210 844 282 844 z "},"Į":{"ha":229,"x_min":-86,"x_max":328,"o":"m -81 0 l -75 26 l 8 31 l 206 960 l 125 965 l 131 992 l 328 992 l 322 965 l 240 960 l 43 31 l 122 26 l 117 0 l -81 0 m 10 -299 q -61 -273 -36 -299 q -86 -208 -86 -247 q -74 -142 -86 -174 q -30 -76 -61 -111 q 57 0 1 -42 l 94 0 q 9 -77 40 -43 q -35 -141 -22 -111 q -49 -203 -49 -171 q -33 -249 -49 -233 q 15 -264 -17 -264 q 42 -261 29 -264 q 67 -256 56 -258 l 61 -289 q 40 -295 51 -292 q 10 -299 28 -299 z "},"į":{"ha":215,"x_min":-139,"x_max":260,"o":"m 8 0 l 164 731 l 200 731 l 44 0 l 8 0 m 219 893 q 201 902 208 893 q 194 926 194 911 q 199 954 194 940 q 212 978 203 968 q 235 989 221 989 q 253 981 246 989 q 260 954 260 972 q 250 915 260 936 q 219 893 240 893 m -43 -299 q -114 -273 -89 -299 q -139 -208 -139 -247 q -126 -142 -139 -174 q -83 -76 -114 -111 q 4 0 -51 -42 l 42 0 q -44 -77 -12 -43 q -88 -141 -75 -111 q -101 -203 -101 -171 q -85 -249 -101 -233 q -37 -264 -69 -264 q -10 -261 -24 -264 q 14 -256 3 -258 l 8 -289 q -13 -295 -1 -292 q -43 -299 -25 -299 z "},"İ":{"ha":229,"x_min":-81,"x_max":344,"o":"m -81 0 l -75 26 l 8 31 l 206 960 l 125 965 l 131 992 l 328 992 l 322 965 l 240 960 l 43 31 l 122 26 l 117 0 l -81 0 m 304 1154 q 286 1163 293 1154 q 279 1188 279 1172 q 289 1228 279 1207 q 319 1250 299 1250 q 333 1247 328 1250 q 342 1235 339 1243 q 344 1215 344 1228 q 335 1176 344 1197 q 304 1154 325 1154 z "},"Ĳ":{"ha":499,"x_min":-81,"x_max":529,"o":"m -81 0 l -75 26 l 8 31 l 206 960 l 125 965 l 131 992 l 328 992 l 322 965 l 240 960 l 43 31 l 122 26 l 117 0 l -81 0 m 151 -239 q 113 -234 131 -239 q 82 -222 94 -229 l 93 -190 q 122 -200 106 -196 q 154 -204 138 -204 q 208 -189 186 -204 q 245 -137 229 -174 q 275 -40 261 -101 l 493 992 l 529 992 l 308 -51 q 276 -157 296 -115 q 226 -219 256 -199 q 151 -239 196 -239 z "},"ĳ":{"ha":431,"x_min":8,"x_max":483,"o":"m 8 0 l 164 731 l 200 731 l 44 0 l 8 0 m 219 893 q 201 902 208 893 q 194 926 194 911 q 199 954 194 940 q 212 978 203 968 q 235 989 221 989 q 253 981 246 989 q 260 954 260 972 q 250 915 260 936 q 219 893 240 893 m 78 -333 q 50 -331 63 -333 q 31 -328 38 -329 l 31 -290 q 52 -297 42 -294 q 78 -299 63 -299 q 140 -278 115 -299 q 182 -209 164 -258 q 217 -72 200 -160 l 388 731 l 424 731 l 253 -74 q 213 -224 232 -167 q 162 -308 193 -282 q 78 -333 131 -333 m 443 893 q 425 902 432 893 q 418 926 418 911 q 422 954 418 940 q 435 978 426 968 q 458 989 444 989 q 476 981 469 989 q 483 954 483 972 q 474 915 483 936 q 443 893 464 893 z "},"Ĵ":{"ha":214,"x_min":-197,"x_max":374,"o":"m -128 -239 q -167 -234 -149 -239 q -197 -222 -185 -229 l -186 -190 q -158 -200 -174 -196 q -125 -204 -142 -204 q -72 -189 -93 -204 q -34 -137 -50 -174 q -4 -40 -18 -101 l 214 992 l 250 992 l 29 -51 q -3 -157 17 -115 q -53 -219 -24 -199 q -128 -239 -83 -239 m 104 1082 q 160 1144 131 1108 q 219 1219 190 1181 q 267 1293 247 1258 l 296 1293 q 315 1224 301 1265 q 346 1143 329 1182 q 374 1082 363 1104 l 372 1071 l 358 1071 q 328 1120 344 1093 q 299 1178 313 1147 q 274 1239 285 1208 q 204 1154 244 1199 q 117 1071 164 1110 l 103 1071 l 104 1082 z "},"ĵ":{"ha":215,"x_min":-185,"x_max":329,"o":"m -137 -333 q -165 -331 -153 -333 q -185 -328 -178 -329 l -185 -290 q -163 -297 -174 -294 q -137 -299 -153 -299 q -76 -278 -100 -299 q -33 -209 -51 -258 q 1 -72 -15 -160 l 172 731 l 208 731 l 38 -74 q -3 -224 17 -167 q -53 -308 -22 -282 q -137 -333 -85 -333 m 60 853 q 116 915 86 879 q 174 990 146 951 q 222 1064 203 1029 l 251 1064 q 271 994 257 1036 q 301 914 285 953 q 329 853 318 875 l 328 842 l 314 842 q 284 891 300 864 q 254 949 268 918 q 229 1010 240 979 q 160 925 200 969 q 72 842 119 881 l 58 842 l 60 853 z "},"Ķ":{"ha":481,"x_min":3,"x_max":581,"o":"m 3 0 l 214 992 l 250 992 l 133 442 l 229 575 l 536 992 l 581 992 l 258 556 l 386 0 l 346 0 l 229 524 l 122 392 l 39 0 l 3 0 m 42 -286 q 85 -231 61 -267 q 132 -156 110 -196 q 164 -85 154 -115 l 200 -85 l 200 -100 q 164 -168 189 -129 q 110 -244 139 -207 q 56 -307 82 -282 l 42 -307 l 42 -286 z "},"ķ":{"ha":411,"x_min":7,"x_max":461,"o":"m 7 0 l 232 1056 l 268 1056 l 150 501 q 131 411 140 453 q 111 325 122 369 l 113 325 l 421 731 l 461 731 l 249 449 l 321 0 l 285 0 l 218 413 l 99 263 l 43 0 l 7 0 m 7 -286 q 51 -231 26 -267 q 97 -156 75 -196 q 129 -85 119 -115 l 165 -85 l 165 -100 q 129 -168 154 -129 q 76 -244 104 -207 q 21 -307 47 -282 l 7 -307 l 7 -286 z "},"ĸ":{"ha":397,"x_min":7,"x_max":461,"o":"m 7 0 l 167 731 l 203 731 l 151 501 q 131 408 142 457 q 111 325 119 360 l 113 325 l 421 732 l 461 732 l 249 449 l 321 0 l 285 0 l 218 413 l 99 263 l 43 0 l 7 0 z "},"Ĺ":{"ha":419,"x_min":3,"x_max":518,"o":"m 3 0 l 214 992 l 250 992 l 46 35 l 307 35 l 300 0 l 3 0 m 308 1108 q 376 1180 343 1142 q 435 1255 408 1218 q 476 1319 461 1292 l 518 1319 l 518 1308 q 481 1257 504 1286 q 431 1198 458 1228 q 376 1142 404 1168 q 324 1097 349 1115 l 310 1097 l 308 1108 z "},"ĺ":{"ha":206,"x_min":7,"x_max":425,"o":"m 7 0 l 232 1056 l 268 1056 l 43 0 l 7 0 m 215 1172 q 283 1244 250 1206 q 342 1319 315 1282 q 383 1383 368 1356 l 425 1383 l 425 1372 q 388 1321 411 1350 q 338 1262 365 1292 q 283 1206 311 1232 q 231 1161 256 1179 l 217 1161 l 215 1172 z "},"Ļ":{"ha":419,"x_min":3,"x_max":307,"o":"m 3 0 l 214 992 l 250 992 l 46 35 l 307 35 l 300 0 l 3 0 m 11 -286 q 55 -231 31 -267 q 101 -156 79 -196 q 133 -85 124 -115 l 169 -85 l 169 -100 q 133 -168 158 -129 q 80 -244 108 -207 q 25 -307 51 -282 l 11 -307 l 11 -286 z "},"ļ":{"ha":206,"x_min":-96,"x_max":268,"o":"m 7 0 l 232 1056 l 268 1056 l 43 0 l 7 0 m -96 -286 q -52 -231 -76 -267 q -6 -156 -28 -196 q 26 -85 17 -115 l 63 -85 l 63 -100 q 26 -168 51 -129 q -27 -244 1 -207 q -82 -307 -56 -282 l -96 -307 l -96 -286 z "},"Ľ":{"ha":419,"x_min":3,"x_max":451,"o":"m 324 778 q 360 848 343 811 q 392 922 378 885 q 414 990 407 960 l 451 990 l 450 976 q 424 913 442 951 q 385 836 407 875 q 343 768 364 797 l 324 768 l 324 778 m 3 0 l 214 992 l 250 992 l 46 35 l 307 35 l 300 0 l 3 0 z "},"ľ":{"ha":206,"x_min":7,"x_max":386,"o":"m 258 843 q 295 913 278 876 q 327 988 313 950 q 349 1056 342 1025 l 386 1056 l 385 1042 q 359 978 376 1017 q 320 901 342 940 q 278 833 299 863 l 258 833 l 258 843 m 7 0 l 232 1056 l 268 1056 l 43 0 l 7 0 z "},"Ŀ":{"ha":419,"x_min":3,"x_max":364,"o":"m 3 0 l 214 992 l 250 992 l 46 35 l 307 35 l 300 0 l 3 0 m 324 461 q 306 470 313 461 q 299 494 299 479 q 308 535 299 514 q 339 557 318 557 q 353 553 347 557 q 361 542 358 550 q 364 522 364 535 q 354 483 364 504 q 324 461 344 461 z "},"ŀ":{"ha":347,"x_min":7,"x_max":329,"o":"m 7 0 l 232 1056 l 268 1056 l 43 0 l 7 0 m 289 410 q 271 419 278 410 q 264 443 264 428 q 274 484 264 463 q 304 506 283 506 q 318 502 313 506 q 326 491 324 499 q 329 471 329 483 q 319 431 329 453 q 289 410 310 410 z "},"Ł":{"ha":406,"x_min":-28,"x_max":308,"o":"m 3 0 l 100 457 l -15 396 l -28 428 l 110 501 l 214 992 l 250 992 l 150 522 l 296 600 l 308 568 l 140 479 l 46 35 l 307 35 l 300 0 l 3 0 z "},"ł":{"ha":206,"x_min":-10,"x_max":288,"o":"m 7 0 l 113 494 l 3 432 l -10 464 l 122 540 l 232 1056 l 268 1056 l 163 564 l 275 628 l 288 596 l 154 519 l 43 0 l 7 0 z "},"Ń":{"ha":640,"x_min":3,"x_max":660,"o":"m 3 0 l 214 992 l 260 992 l 428 82 l 431 82 q 444 145 438 114 q 456 205 450 176 q 465 253 461 233 l 622 992 l 660 992 l 449 0 l 404 0 l 238 921 l 235 921 q 229 891 232 907 q 222 856 226 875 q 213 813 218 836 q 201 760 208 789 l 40 0 l 3 0 m 419 1108 q 487 1180 454 1142 q 546 1255 519 1218 q 588 1319 572 1292 l 629 1319 l 629 1308 q 592 1257 615 1286 q 542 1198 569 1228 q 488 1142 515 1168 q 435 1097 460 1115 l 421 1097 l 419 1108 z "},"ń":{"ha":496,"x_min":8,"x_max":501,"o":"m 8 0 l 163 731 l 192 731 l 172 622 l 175 622 q 216 688 192 661 q 272 730 240 715 q 340 744 304 744 q 400 732 375 744 q 440 694 425 719 q 454 632 454 669 q 445 550 454 600 q 426 457 436 500 l 329 0 l 293 0 l 393 471 q 410 553 401 511 q 418 629 418 594 q 396 690 418 669 q 336 710 374 710 q 246 675 285 710 q 179 572 207 640 q 129 399 151 503 l 44 0 l 8 0 m 292 847 q 359 919 326 881 q 418 994 392 957 q 460 1058 444 1031 l 501 1058 l 501 1047 q 465 996 488 1025 q 415 937 442 967 q 360 881 388 907 q 307 836 332 854 l 293 836 l 292 847 z "},"Ņ":{"ha":640,"x_min":3,"x_max":660,"o":"m 3 0 l 214 992 l 260 992 l 428 82 l 431 82 q 444 145 438 114 q 456 205 450 176 q 465 253 461 233 l 622 992 l 660 992 l 449 0 l 404 0 l 238 921 l 235 921 q 229 891 232 907 q 222 856 226 875 q 213 813 218 836 q 201 760 208 789 l 40 0 l 3 0 m 122 -286 q 166 -231 142 -267 q 213 -156 190 -196 q 244 -85 235 -115 l 281 -85 l 281 -100 q 244 -168 269 -129 q 191 -244 219 -207 q 136 -307 163 -282 l 122 -307 l 122 -286 z "},"ņ":{"ha":496,"x_min":8,"x_max":454,"o":"m 8 0 l 163 731 l 192 731 l 172 622 l 175 622 q 216 688 192 661 q 272 730 240 715 q 340 744 304 744 q 400 732 375 744 q 440 694 425 719 q 454 632 454 669 q 445 550 454 600 q 426 457 436 500 l 329 0 l 293 0 l 393 471 q 410 553 401 511 q 418 629 418 594 q 396 690 418 669 q 336 710 374 710 q 246 675 285 710 q 179 572 207 640 q 129 399 151 503 l 44 0 l 8 0 m 50 -286 q 94 -231 69 -267 q 140 -156 118 -196 q 172 -85 163 -115 l 208 -85 l 208 -100 q 172 -168 197 -129 q 119 -244 147 -207 q 64 -307 90 -282 l 50 -307 l 50 -286 z "},"Ň":{"ha":640,"x_min":3,"x_max":660,"o":"m 3 0 l 214 992 l 260 992 l 428 82 l 431 82 q 444 145 438 114 q 456 205 450 176 q 465 253 461 233 l 622 992 l 660 992 l 449 0 l 404 0 l 238 921 l 235 921 q 229 891 232 907 q 222 856 226 875 q 213 813 218 836 q 201 760 208 789 l 40 0 l 3 0 m 417 1071 q 397 1141 411 1100 q 367 1222 383 1182 q 339 1282 351 1261 l 340 1293 l 354 1293 q 384 1244 368 1272 q 415 1186 400 1217 q 439 1125 429 1156 q 508 1210 468 1165 q 596 1293 549 1254 l 610 1293 l 608 1282 q 553 1219 583 1256 q 494 1145 522 1183 q 446 1071 465 1107 l 417 1071 z "},"ň":{"ha":496,"x_min":8,"x_max":506,"o":"m 8 0 l 163 731 l 192 731 l 172 622 l 175 622 q 216 688 192 661 q 272 730 240 715 q 340 744 304 744 q 400 732 375 744 q 440 694 425 719 q 454 632 454 669 q 445 550 454 600 q 426 457 436 500 l 329 0 l 293 0 l 393 471 q 410 553 401 511 q 418 629 418 594 q 396 690 418 669 q 336 710 374 710 q 246 675 285 710 q 179 572 207 640 q 129 399 151 503 l 44 0 l 8 0 m 313 842 q 293 912 307 871 q 263 992 279 953 q 235 1053 247 1032 l 236 1064 l 250 1064 q 280 1015 264 1043 q 310 957 296 988 q 335 896 325 926 q 404 981 364 936 q 492 1064 444 1025 l 506 1064 l 504 1053 q 449 990 479 1026 q 390 916 418 954 q 342 842 361 878 l 313 842 z "},"ŉ":{"ha":496,"x_min":8,"x_max":454,"o":"m 8 0 l 163 731 l 192 731 l 172 622 l 175 622 q 216 688 192 661 q 272 730 240 715 q 340 744 304 744 q 400 732 375 744 q 440 694 425 719 q 454 632 454 669 q 445 550 454 600 q 426 457 436 500 l 329 0 l 293 0 l 393 471 q 410 553 401 511 q 418 629 418 594 q 396 690 418 669 q 336 710 374 710 q 246 675 285 710 q 179 572 207 640 q 129 399 151 503 l 44 0 l 8 0 m 54 688 q 107 783 82 731 q 153 890 132 836 q 185 992 174 944 l 218 992 l 224 975 q 188 882 210 933 q 138 780 165 831 q 82 688 111 729 l 54 688 z "},"Ŋ":{"ha":633,"x_min":3,"x_max":660,"o":"m 282 -239 q 242 -234 261 -239 q 211 -222 224 -229 l 222 -190 q 251 -200 235 -196 q 283 -204 267 -204 q 342 -185 319 -204 q 379 -124 364 -165 q 407 -18 394 -82 l 238 921 l 235 921 q 229 891 232 907 q 222 856 226 875 q 213 813 218 836 q 201 760 208 789 l 40 0 l 3 0 l 214 992 l 260 992 l 426 79 l 429 79 q 441 138 435 108 q 453 196 447 167 q 465 253 460 225 l 622 992 l 660 992 l 443 -32 q 408 -151 428 -106 q 358 -218 388 -197 q 282 -239 328 -239 z "},"ŋ":{"ha":496,"x_min":8,"x_max":454,"o":"m 139 -333 q 111 -331 124 -333 q 92 -328 99 -329 l 92 -290 q 113 -297 103 -294 q 139 -299 124 -299 q 200 -279 176 -299 q 242 -210 224 -260 q 278 -72 260 -161 l 393 471 q 410 553 401 511 q 418 629 418 594 q 396 690 418 669 q 336 710 374 710 q 246 675 285 710 q 179 572 207 640 q 129 399 151 503 l 44 0 l 8 0 l 163 731 l 192 731 l 172 622 l 175 622 q 216 688 192 661 q 272 730 240 715 q 340 744 304 744 q 400 732 375 744 q 440 694 425 719 q 454 632 454 669 q 445 550 454 600 q 426 457 436 500 l 314 -74 q 274 -225 294 -168 q 223 -308 254 -282 q 139 -333 192 -333 z "},"Ō":{"ha":617,"x_min":47,"x_max":589,"o":"m 222 -14 q 126 15 165 -14 q 67 105 88 44 q 47 258 47 165 q 57 402 47 322 q 86 566 67 482 q 135 728 106 650 q 206 869 165 806 q 300 969 247 932 q 417 1006 353 1006 q 544 947 500 1006 q 589 753 589 888 q 580 610 589 690 q 553 443 571 529 q 506 276 535 357 q 435 129 476 194 q 342 25 394 64 q 222 -14 289 -14 m 226 21 q 329 58 283 21 q 411 157 375 94 q 474 297 447 219 q 517 456 500 374 q 543 614 535 538 q 551 750 551 690 q 518 919 551 868 q 414 971 485 971 q 310 934 357 971 q 228 836 264 897 q 165 699 192 775 q 120 542 138 622 q 94 390 103 463 q 85 261 85 317 q 101 124 85 176 q 149 46 117 71 q 226 21 181 21 m 283 1079 l 290 1114 l 588 1114 l 579 1079 l 283 1079 z "},"ō":{"ha":499,"x_min":39,"x_max":493,"o":"m 182 -14 q 106 7 139 -14 q 56 73 74 28 q 39 190 39 118 q 48 311 39 240 q 77 458 57 382 q 131 599 97 533 q 211 704 164 664 q 322 744 258 744 q 396 723 365 744 q 443 656 426 701 q 460 539 460 611 q 449 401 460 475 q 417 253 439 326 q 362 119 394 179 q 284 22 329 58 q 182 -14 239 -14 m 183 21 q 271 56 232 21 q 338 150 310 92 q 385 278 367 208 q 413 416 404 347 q 422 539 422 485 q 410 634 422 596 q 376 691 399 672 q 319 710 354 710 q 228 672 268 710 q 160 572 189 633 q 113 439 132 510 q 85 302 94 368 q 76 190 76 236 q 104 63 76 106 q 183 21 132 21 m 189 850 l 196 885 l 493 885 l 485 850 l 189 850 z "},"Ŏ":{"ha":617,"x_min":47,"x_max":592,"o":"m 222 -14 q 126 15 165 -14 q 67 105 88 44 q 47 258 47 165 q 57 402 47 322 q 86 566 67 482 q 135 728 106 650 q 206 869 165 806 q 300 969 247 932 q 417 1006 353 1006 q 544 947 500 1006 q 589 753 589 888 q 580 610 589 690 q 553 443 571 529 q 506 276 535 357 q 435 129 476 194 q 342 25 394 64 q 222 -14 289 -14 m 226 21 q 329 58 283 21 q 411 157 375 94 q 474 297 447 219 q 517 456 500 374 q 543 614 535 538 q 551 750 551 690 q 518 919 551 868 q 414 971 485 971 q 310 934 357 971 q 228 836 264 897 q 165 699 192 775 q 120 542 138 622 q 94 390 103 463 q 85 261 85 317 q 101 124 85 176 q 149 46 117 71 q 226 21 181 21 m 442 1074 q 366 1090 393 1074 q 328 1135 339 1107 q 317 1196 317 1164 q 317 1208 317 1203 q 317 1215 317 1213 l 344 1215 q 352 1158 344 1182 q 381 1120 360 1133 q 442 1107 403 1107 q 526 1131 499 1107 q 563 1215 553 1156 l 592 1215 q 548 1110 582 1146 q 442 1074 514 1074 z "},"ŏ":{"ha":499,"x_min":39,"x_max":506,"o":"m 182 -14 q 106 7 139 -14 q 56 73 74 28 q 39 190 39 118 q 48 311 39 240 q 77 458 57 382 q 131 599 97 533 q 211 704 164 664 q 322 744 258 744 q 396 723 365 744 q 443 656 426 701 q 460 539 460 611 q 449 401 460 475 q 417 253 439 326 q 362 119 394 179 q 284 22 329 58 q 182 -14 239 -14 m 183 21 q 271 56 232 21 q 338 150 310 92 q 385 278 367 208 q 413 416 404 347 q 422 539 422 485 q 410 634 422 596 q 376 691 399 672 q 319 710 354 710 q 228 672 268 710 q 160 572 189 633 q 113 439 132 510 q 85 302 94 368 q 76 190 76 236 q 104 63 76 106 q 183 21 132 21 m 356 844 q 280 861 307 844 q 242 906 253 878 q 231 967 231 935 q 231 978 231 974 q 231 986 231 983 l 258 986 q 266 928 258 953 q 295 891 274 904 q 356 878 317 878 q 440 902 413 878 q 476 986 467 926 l 506 986 q 462 881 496 917 q 356 844 428 844 z "},"Ő":{"ha":617,"x_min":47,"x_max":701,"o":"m 222 -14 q 126 15 165 -14 q 67 105 88 44 q 47 258 47 165 q 57 402 47 322 q 86 566 67 482 q 135 728 106 650 q 206 869 165 806 q 300 969 247 932 q 417 1006 353 1006 q 544 947 500 1006 q 589 753 589 888 q 580 610 589 690 q 553 443 571 529 q 506 276 535 357 q 435 129 476 194 q 342 25 394 64 q 222 -14 289 -14 m 226 21 q 329 58 283 21 q 411 157 375 94 q 474 297 447 219 q 517 456 500 374 q 543 614 535 538 q 551 750 551 690 q 518 919 551 868 q 414 971 485 971 q 310 934 357 971 q 228 836 264 897 q 165 699 192 775 q 120 542 138 622 q 94 390 103 463 q 85 261 85 317 q 101 124 85 176 q 149 46 117 71 q 226 21 181 21 m 489 1082 q 556 1153 524 1115 q 615 1228 589 1192 q 657 1293 642 1265 l 701 1293 l 701 1282 q 664 1231 688 1260 q 613 1172 640 1201 q 557 1115 585 1142 q 504 1071 529 1089 l 490 1071 l 489 1082 m 304 1082 q 372 1153 339 1115 q 431 1228 404 1192 q 472 1293 457 1265 l 517 1293 l 517 1282 q 479 1231 503 1260 q 428 1172 456 1201 q 372 1115 400 1142 q 319 1071 344 1089 l 306 1071 l 304 1082 z "},"ő":{"ha":499,"x_min":39,"x_max":639,"o":"m 182 -14 q 106 7 139 -14 q 56 73 74 28 q 39 190 39 118 q 48 311 39 240 q 77 458 57 382 q 131 599 97 533 q 211 704 164 664 q 322 744 258 744 q 396 723 365 744 q 443 656 426 701 q 460 539 460 611 q 449 401 460 475 q 417 253 439 326 q 362 119 394 179 q 284 22 329 58 q 182 -14 239 -14 m 183 21 q 271 56 232 21 q 338 150 310 92 q 385 278 367 208 q 413 416 404 347 q 422 539 422 485 q 410 634 422 596 q 376 691 399 672 q 319 710 354 710 q 228 672 268 710 q 160 572 189 633 q 113 439 132 510 q 85 302 94 368 q 76 190 76 236 q 104 63 76 106 q 183 21 132 21 m 426 853 q 494 924 461 886 q 553 999 526 963 q 594 1064 579 1036 l 639 1064 l 639 1053 q 601 1001 625 1031 q 550 942 578 972 q 494 886 522 913 q 442 842 467 860 l 428 842 l 426 853 m 242 853 q 309 924 276 886 q 368 999 342 963 q 410 1064 394 1036 l 454 1064 l 454 1053 q 417 1001 440 1031 q 365 942 393 972 q 310 886 338 913 q 257 842 282 860 l 243 842 l 242 853 z "},"Œ":{"ha":707,"x_min":49,"x_max":783,"o":"m 239 -3 q 131 27 174 -3 q 69 116 89 57 q 49 261 49 175 q 61 438 49 340 q 100 633 74 535 q 170 813 126 731 q 276 944 214 894 q 419 994 338 994 q 453 993 436 994 q 478 992 471 992 l 783 992 l 776 957 l 500 957 l 411 539 l 669 539 l 661 504 l 403 504 l 303 35 l 579 35 l 572 0 l 283 0 q 269 -1 278 0 q 239 -3 260 -3 m 240 32 q 256 33 249 32 q 267 35 263 33 l 464 958 q 444 959 456 958 q 417 960 432 960 q 294 913 347 960 q 201 790 240 867 q 136 621 161 714 q 99 434 111 528 q 86 261 86 340 q 103 133 86 185 q 154 57 119 82 q 240 32 189 32 z "},"œ":{"ha":801,"x_min":39,"x_max":781,"o":"m 182 -14 q 78 36 117 -14 q 39 204 39 86 q 48 319 39 250 q 77 461 57 388 q 131 599 97 535 q 211 704 164 664 q 322 744 258 744 q 424 691 393 744 q 454 532 456 638 q 550 686 493 628 q 671 744 607 744 q 750 716 719 744 q 781 621 781 688 q 762 524 781 572 q 703 437 743 476 q 601 373 664 397 q 447 349 538 349 l 439 349 q 430 281 433 317 q 426 204 426 244 q 457 65 426 108 q 553 21 488 21 q 614 31 585 21 q 669 57 643 42 l 669 17 q 617 -5 647 4 q 546 -14 586 -14 q 462 9 496 -14 q 411 78 428 32 q 394 196 394 125 q 308 47 361 107 q 182 -14 256 -14 m 185 21 q 272 56 233 21 q 340 150 311 92 q 386 278 368 208 q 413 416 404 347 q 422 539 422 485 q 397 667 422 625 q 319 710 371 710 q 227 672 267 710 q 158 575 188 635 q 111 447 129 515 q 85 313 93 378 q 76 204 76 249 q 105 63 76 106 q 185 21 133 21 m 451 383 q 622 419 558 383 q 715 510 686 456 q 743 619 743 564 q 725 686 743 663 q 669 710 707 710 q 576 666 621 710 q 497 549 532 622 q 444 383 463 475 l 451 383 z "},"Ŕ":{"ha":496,"x_min":4,"x_max":557,"o":"m 4 0 l 214 992 l 318 992 q 453 942 401 992 q 506 790 506 892 q 481 638 506 710 q 409 515 457 565 q 289 451 361 465 l 368 0 l 331 0 l 253 446 l 135 446 l 40 0 l 4 0 m 242 481 q 347 509 304 481 q 417 583 390 538 q 456 683 443 629 q 468 786 468 736 q 427 917 468 876 q 306 957 386 957 l 244 957 l 143 481 l 242 481 m 347 1108 q 415 1180 382 1142 q 474 1255 447 1218 q 515 1319 500 1292 l 557 1319 l 557 1308 q 520 1257 543 1286 q 470 1198 497 1228 q 415 1142 443 1168 q 363 1097 388 1115 l 349 1097 l 347 1108 z "},"ŕ":{"ha":324,"x_min":8,"x_max":415,"o":"m 8 0 l 163 731 l 192 731 l 168 607 l 171 607 q 213 681 189 650 q 269 728 238 711 q 336 744 300 744 q 365 742 353 744 q 385 736 378 739 l 376 703 q 359 708 369 706 q 336 710 349 710 q 254 680 289 710 q 195 602 219 650 q 155 499 171 554 q 128 392 139 443 l 44 0 l 8 0 m 206 847 q 273 919 240 881 q 332 994 306 957 q 374 1058 358 1031 l 415 1058 l 415 1047 q 378 996 401 1025 q 328 937 356 967 q 274 881 301 907 q 221 836 246 854 l 207 836 l 206 847 z "},"Ŗ":{"ha":496,"x_min":4,"x_max":506,"o":"m 4 0 l 214 992 l 318 992 q 453 942 401 992 q 506 790 506 892 q 481 638 506 710 q 409 515 457 565 q 289 451 361 465 l 368 0 l 331 0 l 253 446 l 135 446 l 40 0 l 4 0 m 242 481 q 347 509 304 481 q 417 583 390 538 q 456 683 443 629 q 468 786 468 736 q 427 917 468 876 q 306 957 386 957 l 244 957 l 143 481 l 242 481 m 50 -286 q 94 -231 69 -267 q 140 -156 118 -196 q 172 -85 163 -115 l 208 -85 l 208 -100 q 172 -168 197 -129 q 119 -244 147 -207 q 64 -307 90 -282 l 50 -307 l 50 -286 z "},"ŗ":{"ha":324,"x_min":-36,"x_max":385,"o":"m 8 0 l 163 731 l 192 731 l 168 607 l 171 607 q 213 681 189 650 q 269 728 238 711 q 336 744 300 744 q 365 742 353 744 q 385 736 378 739 l 376 703 q 359 708 369 706 q 336 710 349 710 q 254 680 289 710 q 195 602 219 650 q 155 499 171 554 q 128 392 139 443 l 44 0 l 8 0 m -36 -286 q 8 -231 -17 -267 q 54 -156 32 -196 q 86 -85 76 -115 l 122 -85 l 122 -100 q 86 -168 111 -129 q 33 -244 61 -207 q -22 -307 4 -282 l -36 -307 l -36 -286 z "},"Ř":{"ha":496,"x_min":4,"x_max":553,"o":"m 4 0 l 214 992 l 318 992 q 453 942 401 992 q 506 790 506 892 q 481 638 506 710 q 409 515 457 565 q 289 451 361 465 l 368 0 l 331 0 l 253 446 l 135 446 l 40 0 l 4 0 m 242 481 q 347 509 304 481 q 417 583 390 538 q 456 683 443 629 q 468 786 468 736 q 427 917 468 876 q 306 957 386 957 l 244 957 l 143 481 l 242 481 m 360 1071 q 340 1141 354 1100 q 310 1222 326 1182 q 282 1282 294 1261 l 283 1293 l 297 1293 q 327 1244 311 1272 q 358 1186 343 1217 q 382 1125 372 1156 q 451 1210 411 1165 q 539 1293 492 1254 l 553 1293 l 551 1282 q 496 1219 526 1256 q 437 1145 465 1183 q 389 1071 408 1107 l 360 1071 z "},"ř":{"ha":324,"x_min":8,"x_max":461,"o":"m 8 0 l 163 731 l 192 731 l 168 607 l 171 607 q 213 681 189 650 q 269 728 238 711 q 336 744 300 744 q 365 742 353 744 q 385 736 378 739 l 376 703 q 359 708 369 706 q 336 710 349 710 q 254 680 289 710 q 195 602 219 650 q 155 499 171 554 q 128 392 139 443 l 44 0 l 8 0 m 268 842 q 249 912 263 871 q 219 992 235 953 q 190 1053 203 1032 l 192 1064 l 206 1064 q 235 1015 219 1043 q 266 957 251 988 q 290 896 281 926 q 360 981 319 936 q 447 1064 400 1025 l 461 1064 l 460 1053 q 404 990 435 1026 q 345 916 374 954 q 297 842 317 878 l 268 842 z "},"Ś":{"ha":474,"x_min":-40,"x_max":546,"o":"m 125 -14 q 29 -3 71 -14 q -40 22 -12 8 l -40 63 q 33 33 -8 44 q 128 21 74 21 q 218 36 178 21 q 287 81 258 51 q 330 154 315 111 q 344 253 344 197 q 332 332 344 296 q 294 405 319 368 q 228 488 268 442 q 165 568 192 531 q 122 649 138 606 q 107 750 107 693 q 126 862 107 814 q 177 942 144 910 q 253 990 210 974 q 349 1006 297 1006 q 445 992 403 1006 q 510 963 488 978 l 490 929 q 432 958 468 944 q 346 971 396 971 q 265 957 301 971 q 201 915 228 943 q 159 847 174 888 q 144 753 144 807 q 158 665 144 704 q 197 587 171 625 q 265 501 224 549 q 326 425 300 464 q 367 344 351 386 q 382 254 382 303 q 364 141 382 190 q 313 57 346 92 q 231 4 279 22 q 125 -14 183 -14 m 336 1108 q 403 1180 371 1142 q 463 1255 436 1218 q 504 1319 489 1292 l 546 1319 l 546 1308 q 509 1257 532 1286 q 459 1198 486 1228 q 404 1142 432 1168 q 351 1097 376 1115 l 338 1097 l 336 1108 z "},"ś":{"ha":381,"x_min":-22,"x_max":443,"o":"m 106 -14 q 28 -3 61 -14 q -22 17 -6 7 l -22 60 q 31 33 -3 46 q 106 21 64 21 q 189 40 157 21 q 237 97 221 60 q 253 186 253 133 q 243 248 253 221 q 214 303 233 275 q 165 367 194 331 q 123 424 143 396 q 91 487 103 453 q 79 564 79 521 q 101 656 79 615 q 163 720 122 696 q 258 744 203 744 q 339 732 307 744 q 393 706 371 719 l 371 674 q 326 698 353 686 q 256 710 299 710 q 154 671 192 710 q 117 567 117 632 q 125 506 117 535 q 150 451 133 478 q 190 394 167 425 q 244 325 222 356 q 278 263 267 294 q 290 188 290 231 q 268 77 290 122 q 205 9 246 32 q 106 -14 164 -14 m 233 847 q 301 919 268 881 q 360 994 333 957 q 401 1058 386 1031 l 443 1058 l 443 1047 q 406 996 429 1025 q 356 937 383 967 q 301 881 329 907 q 249 836 274 854 l 235 836 l 233 847 z "},"Ŝ":{"ha":474,"x_min":-40,"x_max":510,"o":"m 125 -14 q 29 -3 71 -14 q -40 22 -12 8 l -40 63 q 33 33 -8 44 q 128 21 74 21 q 218 36 178 21 q 287 81 258 51 q 330 154 315 111 q 344 253 344 197 q 332 332 344 296 q 294 405 319 368 q 228 488 268 442 q 165 568 192 531 q 122 649 138 606 q 107 750 107 693 q 126 862 107 814 q 177 942 144 910 q 253 990 210 974 q 349 1006 297 1006 q 445 992 403 1006 q 510 963 488 978 l 490 929 q 432 958 468 944 q 346 971 396 971 q 265 957 301 971 q 201 915 228 943 q 159 847 174 888 q 144 753 144 807 q 158 665 144 704 q 197 587 171 625 q 265 501 224 549 q 326 425 300 464 q 367 344 351 386 q 382 254 382 303 q 364 141 382 190 q 313 57 346 92 q 231 4 279 22 q 125 -14 183 -14 m 218 1082 q 274 1144 244 1108 q 333 1219 304 1181 q 381 1293 361 1258 l 410 1293 q 429 1224 415 1265 q 460 1143 443 1182 q 488 1082 476 1104 l 486 1071 l 472 1071 q 442 1120 458 1093 q 413 1178 426 1147 q 388 1239 399 1208 q 318 1154 358 1199 q 231 1071 278 1110 l 217 1071 l 218 1082 z "},"ŝ":{"ha":381,"x_min":-22,"x_max":408,"o":"m 106 -14 q 28 -3 61 -14 q -22 17 -6 7 l -22 60 q 31 33 -3 46 q 106 21 64 21 q 189 40 157 21 q 237 97 221 60 q 253 186 253 133 q 243 248 253 221 q 214 303 233 275 q 165 367 194 331 q 123 424 143 396 q 91 487 103 453 q 79 564 79 521 q 101 656 79 615 q 163 720 122 696 q 258 744 203 744 q 339 732 307 744 q 393 706 371 719 l 371 674 q 326 698 353 686 q 256 710 299 710 q 154 671 192 710 q 117 567 117 632 q 125 506 117 535 q 150 451 133 478 q 190 394 167 425 q 244 325 222 356 q 278 263 267 294 q 290 188 290 231 q 268 77 290 122 q 205 9 246 32 q 106 -14 164 -14 m 139 853 q 195 915 165 879 q 253 990 225 951 q 301 1064 282 1029 l 331 1064 q 350 994 336 1036 q 381 914 364 953 q 408 853 397 875 l 407 842 l 393 842 q 363 891 379 864 q 333 949 347 918 q 308 1010 319 979 q 239 925 279 969 q 151 842 199 881 l 138 842 l 139 853 z "},"Ş":{"ha":474,"x_min":-69,"x_max":510,"o":"m 125 -14 q 29 -3 71 -14 q -40 22 -12 8 l -40 63 q 33 33 -8 44 q 128 21 74 21 q 218 36 178 21 q 287 81 258 51 q 330 154 315 111 q 344 253 344 197 q 332 332 344 296 q 294 405 319 368 q 228 488 268 442 q 165 568 192 531 q 122 649 138 606 q 107 750 107 693 q 126 862 107 814 q 177 942 144 910 q 253 990 210 974 q 349 1006 297 1006 q 445 992 403 1006 q 510 963 488 978 l 490 929 q 432 958 468 944 q 346 971 396 971 q 265 957 301 971 q 201 915 228 943 q 159 847 174 888 q 144 753 144 807 q 158 665 144 704 q 197 587 171 625 q 265 501 224 549 q 326 425 300 464 q 367 344 351 386 q 382 254 382 303 q 364 141 382 190 q 313 57 346 92 q 231 4 279 22 q 125 -14 183 -14 m 11 -333 q -37 -330 -19 -333 q -69 -324 -54 -326 l -69 -289 q -38 -297 -58 -293 q 14 -300 -18 -300 q 78 -286 50 -300 q 122 -248 107 -272 q 138 -196 138 -224 q 107 -134 138 -153 q 21 -110 76 -115 l 100 0 l 135 0 l 71 -90 q 144 -123 117 -99 q 172 -192 172 -147 q 151 -263 172 -231 q 94 -315 131 -296 q 11 -333 58 -333 z "},"ş":{"ha":381,"x_min":-106,"x_max":393,"o":"m 106 -14 q 28 -3 61 -14 q -22 17 -6 7 l -22 60 q 31 33 -3 46 q 106 21 64 21 q 189 40 157 21 q 237 97 221 60 q 253 186 253 133 q 243 248 253 221 q 214 303 233 275 q 165 367 194 331 q 123 424 143 396 q 91 487 103 453 q 79 564 79 521 q 101 656 79 615 q 163 720 122 696 q 258 744 203 744 q 339 732 307 744 q 393 706 371 719 l 371 674 q 326 698 353 686 q 256 710 299 710 q 154 671 192 710 q 117 567 117 632 q 125 506 117 535 q 150 451 133 478 q 190 394 167 425 q 244 325 222 356 q 278 263 267 294 q 290 188 290 231 q 268 77 290 122 q 205 9 246 32 q 106 -14 164 -14 m -25 -333 q -73 -330 -56 -333 q -106 -324 -90 -326 l -106 -289 q -74 -297 -94 -293 q -22 -300 -54 -300 q 42 -286 14 -300 q 86 -248 71 -272 q 101 -196 101 -224 q 71 -134 101 -153 q -15 -110 40 -115 l 64 0 l 99 0 l 35 -90 q 108 -123 81 -99 q 136 -192 136 -147 q 115 -263 136 -231 q 58 -315 94 -296 q -25 -333 22 -333 z "},"Š":{"ha":474,"x_min":-40,"x_max":549,"o":"m 125 -14 q 29 -3 71 -14 q -40 22 -12 8 l -40 63 q 33 33 -8 44 q 128 21 74 21 q 218 36 178 21 q 287 81 258 51 q 330 154 315 111 q 344 253 344 197 q 332 332 344 296 q 294 405 319 368 q 228 488 268 442 q 165 568 192 531 q 122 649 138 606 q 107 750 107 693 q 126 862 107 814 q 177 942 144 910 q 253 990 210 974 q 349 1006 297 1006 q 445 992 403 1006 q 510 963 488 978 l 490 929 q 432 958 468 944 q 346 971 396 971 q 265 957 301 971 q 201 915 228 943 q 159 847 174 888 q 144 753 144 807 q 158 665 144 704 q 197 587 171 625 q 265 501 224 549 q 326 425 300 464 q 367 344 351 386 q 382 254 382 303 q 364 141 382 190 q 313 57 346 92 q 231 4 279 22 q 125 -14 183 -14 m 356 1071 q 336 1141 350 1100 q 306 1222 322 1182 q 278 1282 290 1261 l 279 1293 l 293 1293 q 323 1244 307 1272 q 353 1186 339 1217 q 378 1125 368 1156 q 447 1210 407 1165 q 535 1293 488 1254 l 549 1293 l 547 1282 q 492 1219 522 1256 q 433 1145 461 1183 q 385 1071 404 1107 l 356 1071 z "},"š":{"ha":381,"x_min":-22,"x_max":461,"o":"m 106 -14 q 28 -3 61 -14 q -22 17 -6 7 l -22 60 q 31 33 -3 46 q 106 21 64 21 q 189 40 157 21 q 237 97 221 60 q 253 186 253 133 q 243 248 253 221 q 214 303 233 275 q 165 367 194 331 q 123 424 143 396 q 91 487 103 453 q 79 564 79 521 q 101 656 79 615 q 163 720 122 696 q 258 744 203 744 q 339 732 307 744 q 393 706 371 719 l 371 674 q 326 698 353 686 q 256 710 299 710 q 154 671 192 710 q 117 567 117 632 q 125 506 117 535 q 150 451 133 478 q 190 394 167 425 q 244 325 222 356 q 278 263 267 294 q 290 188 290 231 q 268 77 290 122 q 205 9 246 32 q 106 -14 164 -14 m 268 842 q 249 912 263 871 q 219 992 235 953 q 190 1053 203 1032 l 192 1064 l 206 1064 q 235 1015 219 1043 q 266 957 251 988 q 290 896 281 926 q 360 981 319 936 q 447 1064 400 1025 l 461 1064 l 460 1053 q 404 990 435 1026 q 345 916 374 954 q 297 842 317 878 l 268 842 z "},"Ț":{"ha":408,"x_min":6,"x_max":515,"o":"m 90 0 l 294 957 l 118 957 l 125 992 l 515 992 l 508 957 l 331 957 l 126 0 l 90 0 m 6 -286 q 49 -231 25 -267 q 96 -156 74 -196 q 128 -85 118 -115 l 164 -85 l 164 -100 q 128 -168 153 -129 q 74 -244 103 -207 q 19 -307 46 -282 l 6 -307 l 6 -286 z "},"ț":{"ha":251,"x_min":-72,"x_max":278,"o":"m 101 -14 q 42 8 64 -14 q 21 74 21 31 q 26 127 21 96 q 38 192 31 158 l 146 696 l 81 696 l 88 728 l 151 732 l 197 910 l 226 910 l 189 731 l 278 731 l 271 696 l 182 696 l 74 189 q 62 125 67 153 q 57 78 57 97 q 69 36 57 51 q 107 21 81 21 q 135 24 124 21 q 157 29 147 26 l 157 -4 q 133 -11 146 -8 q 101 -14 119 -14 m -72 -286 q -28 -231 -53 -267 q 18 -156 -4 -196 q 50 -85 40 -115 l 86 -85 l 86 -100 q 50 -168 75 -129 q -3 -244 25 -207 q -58 -307 -32 -282 l -72 -307 l -72 -286 z "},"Ť":{"ha":408,"x_min":90,"x_max":515,"o":"m 90 0 l 294 957 l 118 957 l 125 992 l 515 992 l 508 957 l 331 957 l 126 0 l 90 0 m 307 1071 q 288 1141 301 1100 q 258 1222 274 1182 q 229 1282 242 1261 l 231 1293 l 244 1293 q 274 1244 258 1272 q 305 1186 290 1217 q 329 1125 319 1156 q 399 1210 358 1165 q 486 1293 439 1254 l 500 1293 l 499 1282 q 443 1219 474 1256 q 384 1145 413 1183 q 336 1071 356 1107 l 307 1071 z "},"ť":{"ha":224,"x_min":21,"x_max":401,"o":"m 274 833 q 310 903 293 867 q 342 978 328 940 q 364 1046 357 1015 l 401 1046 l 400 1032 q 374 969 392 1007 q 335 892 357 931 q 293 824 314 853 l 274 824 l 274 833 m 101 -14 q 42 8 64 -14 q 21 74 21 31 q 26 127 21 96 q 38 192 31 158 l 146 696 l 81 696 l 88 728 l 151 732 l 197 910 l 226 910 l 189 731 l 278 731 l 271 696 l 182 696 l 74 189 q 62 125 67 153 q 57 78 57 97 q 69 36 57 51 q 107 21 81 21 q 135 24 124 21 q 157 29 147 26 l 157 -4 q 133 -11 146 -8 q 101 -14 119 -14 z "},"Ŧ":{"ha":403,"x_min":58,"x_max":515,"o":"m 90 0 l 197 504 l 58 504 l 64 539 l 206 539 l 294 957 l 118 957 l 125 992 l 515 992 l 508 957 l 331 957 l 242 539 l 385 539 l 378 504 l 233 504 l 126 0 l 90 0 z "},"ŧ":{"ha":236,"x_min":8,"x_max":278,"o":"m 101 -14 q 42 8 64 -14 q 21 74 21 31 q 26 127 21 96 q 38 192 31 158 l 82 396 l 8 396 l 15 431 l 89 431 l 146 696 l 81 696 l 88 728 l 151 732 l 197 910 l 226 910 l 189 731 l 278 731 l 271 696 l 182 696 l 125 431 l 239 431 l 232 396 l 118 396 l 74 189 q 62 125 67 153 q 57 78 57 97 q 69 36 57 51 q 107 21 81 21 q 135 24 124 21 q 157 29 147 26 l 157 -4 q 133 -11 146 -8 q 101 -14 119 -14 z "},"Ũ":{"ha":588,"x_min":43,"x_max":621,"o":"m 214 -14 q 126 6 165 -14 q 65 66 88 26 q 43 164 43 106 q 47 222 43 189 q 58 290 51 254 l 208 992 l 244 992 l 94 290 q 84 223 88 256 q 81 165 81 190 q 118 57 81 93 q 215 21 156 21 q 322 56 282 21 q 386 156 361 90 q 431 314 411 221 l 579 992 l 615 992 l 467 313 q 417 140 446 214 q 340 26 388 67 q 214 -14 293 -14 m 253 1078 q 274 1150 260 1122 q 312 1192 289 1178 q 365 1206 335 1206 q 413 1192 393 1206 q 448 1160 432 1178 q 479 1128 464 1142 q 515 1114 494 1114 q 560 1135 543 1114 q 586 1206 578 1157 l 621 1206 q 601 1135 615 1164 q 564 1093 586 1107 q 513 1079 542 1079 q 465 1093 485 1079 q 431 1125 446 1107 q 399 1157 415 1143 q 361 1171 383 1171 q 311 1147 328 1171 q 288 1078 294 1122 l 253 1078 z "},"ũ":{"ha":497,"x_min":36,"x_max":549,"o":"m 150 -14 q 91 -1 117 -14 q 51 36 65 11 q 36 99 36 61 q 45 181 36 131 q 64 274 54 231 l 161 731 l 197 731 l 97 260 q 81 178 89 219 q 72 101 72 138 q 94 41 72 61 q 154 21 117 21 q 245 56 207 21 q 312 160 283 90 q 361 332 340 229 l 446 731 l 482 731 l 328 0 l 299 0 l 318 108 l 315 108 q 275 43 300 71 q 218 1 250 15 q 150 -14 186 -14 m 181 849 q 202 921 188 893 q 240 963 217 949 q 293 976 263 976 q 340 963 321 976 q 376 931 360 949 q 407 899 392 913 q 443 885 422 885 q 488 906 471 885 q 514 976 506 928 l 549 976 q 528 906 543 935 q 492 864 514 878 q 440 850 469 850 q 393 864 413 850 q 358 896 374 878 q 327 928 343 914 q 289 942 311 942 q 239 917 256 942 q 215 849 222 893 l 181 849 z "},"Ū":{"ha":588,"x_min":43,"x_max":615,"o":"m 214 -14 q 126 6 165 -14 q 65 66 88 26 q 43 164 43 106 q 47 222 43 189 q 58 290 51 254 l 208 992 l 244 992 l 94 290 q 84 223 88 256 q 81 165 81 190 q 118 57 81 93 q 215 21 156 21 q 322 56 282 21 q 386 156 361 90 q 431 314 411 221 l 579 992 l 615 992 l 467 313 q 417 140 446 214 q 340 26 388 67 q 214 -14 293 -14 m 275 1079 l 282 1114 l 579 1114 l 571 1079 l 275 1079 z "},"ū":{"ha":497,"x_min":36,"x_max":497,"o":"m 150 -14 q 91 -1 117 -14 q 51 36 65 11 q 36 99 36 61 q 45 181 36 131 q 64 274 54 231 l 161 731 l 197 731 l 97 260 q 81 178 89 219 q 72 101 72 138 q 94 41 72 61 q 154 21 117 21 q 245 56 207 21 q 312 160 283 90 q 361 332 340 229 l 446 731 l 482 731 l 328 0 l 299 0 l 318 108 l 315 108 q 275 43 300 71 q 218 1 250 15 q 150 -14 186 -14 m 193 850 l 200 885 l 497 885 l 489 850 l 193 850 z "},"Ŭ":{"ha":588,"x_min":43,"x_max":615,"o":"m 214 -14 q 126 6 165 -14 q 65 66 88 26 q 43 164 43 106 q 47 222 43 189 q 58 290 51 254 l 208 992 l 244 992 l 94 290 q 84 223 88 256 q 81 165 81 190 q 118 57 81 93 q 215 21 156 21 q 322 56 282 21 q 386 156 361 90 q 431 314 411 221 l 579 992 l 615 992 l 467 313 q 417 140 446 214 q 340 26 388 67 q 214 -14 293 -14 m 419 1074 q 344 1090 371 1074 q 306 1135 317 1107 q 294 1196 294 1164 q 294 1208 294 1203 q 294 1215 294 1213 l 322 1215 q 330 1158 322 1182 q 359 1120 338 1133 q 419 1107 381 1107 q 503 1131 476 1107 q 540 1215 531 1156 l 569 1215 q 526 1110 560 1146 q 419 1074 492 1074 z "},"ŭ":{"ha":497,"x_min":36,"x_max":493,"o":"m 150 -14 q 91 -1 117 -14 q 51 36 65 11 q 36 99 36 61 q 45 181 36 131 q 64 274 54 231 l 161 731 l 197 731 l 97 260 q 81 178 89 219 q 72 101 72 138 q 94 41 72 61 q 154 21 117 21 q 245 56 207 21 q 312 160 283 90 q 361 332 340 229 l 446 731 l 482 731 l 328 0 l 299 0 l 318 108 l 315 108 q 275 43 300 71 q 218 1 250 15 q 150 -14 186 -14 m 343 844 q 267 861 294 844 q 229 906 240 878 q 218 967 218 935 q 218 978 218 974 q 218 986 218 983 l 246 986 q 253 928 246 953 q 283 891 261 904 q 343 878 304 878 q 427 902 400 878 q 464 986 454 926 l 493 986 q 449 881 483 917 q 343 844 415 844 z "},"Ů":{"ha":588,"x_min":43,"x_max":615,"o":"m 214 -14 q 126 6 165 -14 q 65 66 88 26 q 43 164 43 106 q 47 222 43 189 q 58 290 51 254 l 208 992 l 244 992 l 94 290 q 84 223 88 256 q 81 165 81 190 q 118 57 81 93 q 215 21 156 21 q 322 56 282 21 q 386 156 361 90 q 431 314 411 221 l 579 992 l 615 992 l 467 313 q 417 140 446 214 q 340 26 388 67 q 214 -14 293 -14 m 443 1079 q 356 1111 388 1079 q 324 1199 324 1143 q 356 1284 324 1250 q 443 1318 388 1318 q 533 1283 503 1318 q 563 1199 563 1249 q 531 1114 563 1149 q 443 1079 499 1079 m 443 1113 q 506 1136 483 1113 q 528 1199 528 1160 q 506 1260 528 1236 q 443 1285 485 1285 q 381 1260 403 1285 q 358 1199 358 1235 q 381 1136 358 1160 q 443 1113 403 1113 z "},"ů":{"ha":497,"x_min":36,"x_max":482,"o":"m 150 -14 q 91 -1 117 -14 q 51 36 65 11 q 36 99 36 61 q 45 181 36 131 q 64 274 54 231 l 161 731 l 197 731 l 97 260 q 81 178 89 219 q 72 101 72 138 q 94 41 72 61 q 154 21 117 21 q 245 56 207 21 q 312 160 283 90 q 361 332 340 229 l 446 731 l 482 731 l 328 0 l 299 0 l 318 108 l 315 108 q 275 43 300 71 q 218 1 250 15 q 150 -14 186 -14 m 353 850 q 265 882 297 850 q 233 969 233 914 q 265 1055 233 1021 q 353 1089 297 1089 q 442 1054 413 1089 q 472 969 472 1019 q 440 885 472 919 q 353 850 408 850 m 353 883 q 415 907 393 883 q 438 969 438 931 q 416 1031 438 1007 q 353 1056 394 1056 q 290 1031 313 1056 q 268 969 268 1006 q 290 907 268 931 q 353 883 313 883 z "},"Ű":{"ha":588,"x_min":43,"x_max":707,"o":"m 214 -14 q 126 6 165 -14 q 65 66 88 26 q 43 164 43 106 q 47 222 43 189 q 58 290 51 254 l 208 992 l 244 992 l 94 290 q 84 223 88 256 q 81 165 81 190 q 118 57 81 93 q 215 21 156 21 q 322 56 282 21 q 386 156 361 90 q 431 314 411 221 l 579 992 l 615 992 l 467 313 q 417 140 446 214 q 340 26 388 67 q 214 -14 293 -14 m 494 1082 q 562 1153 529 1115 q 621 1228 594 1192 q 663 1293 647 1265 l 707 1293 l 707 1282 q 669 1231 693 1260 q 618 1172 646 1201 q 563 1115 590 1142 q 510 1071 535 1089 l 496 1071 l 494 1082 m 310 1082 q 377 1153 344 1115 q 436 1228 410 1192 q 478 1293 463 1265 l 522 1293 l 522 1282 q 485 1231 508 1260 q 433 1172 461 1201 q 378 1115 406 1142 q 325 1071 350 1089 l 311 1071 l 310 1082 z "},"ű":{"ha":497,"x_min":36,"x_max":628,"o":"m 150 -14 q 91 -1 117 -14 q 51 36 65 11 q 36 99 36 61 q 45 181 36 131 q 64 274 54 231 l 161 731 l 197 731 l 97 260 q 81 178 89 219 q 72 101 72 138 q 94 41 72 61 q 154 21 117 21 q 245 56 207 21 q 312 160 283 90 q 361 332 340 229 l 446 731 l 482 731 l 328 0 l 299 0 l 318 108 l 315 108 q 275 43 300 71 q 218 1 250 15 q 150 -14 186 -14 m 415 853 q 483 924 450 886 q 542 999 515 963 q 583 1064 568 1036 l 628 1064 l 628 1053 q 590 1001 614 1031 q 539 942 567 972 q 483 886 511 913 q 431 842 456 860 l 417 842 l 415 853 m 231 853 q 298 924 265 886 q 357 999 331 963 q 399 1064 383 1036 l 443 1064 l 443 1053 q 406 1001 429 1031 q 354 942 382 972 q 299 886 326 913 q 246 842 271 860 l 232 842 l 231 853 z "},"Ų":{"ha":588,"x_min":43,"x_max":615,"o":"m 214 -14 q 126 6 165 -14 q 65 66 88 26 q 43 164 43 106 q 47 222 43 189 q 58 290 51 254 l 208 992 l 244 992 l 94 290 q 84 223 88 256 q 81 165 81 190 q 118 57 81 93 q 215 21 156 21 q 322 56 282 21 q 386 156 361 90 q 431 314 411 221 l 579 992 l 615 992 l 467 313 q 417 140 446 214 q 340 26 388 67 q 214 -14 293 -14 m 189 -299 q 118 -273 143 -299 q 93 -208 93 -247 q 106 -142 93 -174 q 149 -76 118 -111 q 236 0 181 -42 l 274 0 q 188 -77 219 -43 q 144 -141 157 -111 q 131 -203 131 -171 q 147 -249 131 -233 q 194 -264 163 -264 q 222 -261 208 -264 q 246 -256 235 -258 l 240 -289 q 219 -295 231 -292 q 189 -299 207 -299 z "},"ų":{"ha":497,"x_min":36,"x_max":482,"o":"m 150 -14 q 91 -1 117 -14 q 51 36 65 11 q 36 99 36 61 q 45 181 36 131 q 64 274 54 231 l 161 731 l 197 731 l 97 260 q 81 178 89 219 q 72 101 72 138 q 94 41 72 61 q 154 21 117 21 q 245 56 207 21 q 312 160 283 90 q 361 332 340 229 l 446 731 l 482 731 l 328 0 l 299 0 l 318 108 l 315 108 q 275 43 300 71 q 218 1 250 15 q 150 -14 186 -14 m 247 -299 q 176 -273 201 -299 q 151 -208 151 -247 q 164 -142 151 -174 q 208 -76 176 -111 q 294 0 239 -42 l 332 0 q 247 -77 278 -43 q 202 -141 215 -111 q 189 -203 189 -171 q 205 -249 189 -233 q 253 -264 221 -264 q 280 -261 267 -264 q 304 -256 293 -258 l 299 -289 q 277 -295 289 -292 q 247 -299 265 -299 z "},"Ŵ":{"ha":831,"x_min":103,"x_max":931,"o":"m 103 0 l 117 992 l 153 992 l 140 196 q 138 108 139 144 q 136 47 138 72 l 139 47 q 171 135 154 92 q 200 211 188 179 l 508 992 l 544 992 l 519 238 q 517 171 518 203 q 515 107 515 139 q 511 40 514 75 l 514 40 q 536 101 525 71 q 562 167 547 132 q 594 250 576 203 l 890 992 l 931 992 l 531 0 l 478 0 l 504 779 q 506 822 506 801 q 508 864 507 843 q 510 907 508 885 l 507 907 q 487 849 497 879 q 465 793 476 819 l 156 0 l 103 0 m 381 1082 q 437 1144 407 1108 q 495 1219 467 1181 q 543 1293 524 1258 l 572 1293 q 592 1224 578 1265 q 622 1143 606 1182 q 650 1082 639 1104 l 649 1071 l 635 1071 q 605 1120 621 1093 q 575 1178 589 1147 q 550 1239 561 1208 q 481 1154 521 1199 q 393 1071 440 1110 l 379 1071 l 381 1082 z "},"ŵ":{"ha":639,"x_min":82,"x_max":701,"o":"m 82 -1 l 88 731 l 121 731 l 117 218 q 116 140 117 178 q 114 67 115 103 l 117 67 q 134 115 124 88 q 156 171 144 142 q 178 225 168 200 l 386 731 l 422 731 l 414 217 q 412 146 414 190 q 407 65 410 101 l 410 65 q 426 110 418 88 q 444 158 435 133 q 464 210 454 183 l 665 731 l 701 731 l 414 -1 l 378 -1 l 388 542 q 388 581 388 560 q 389 624 388 601 q 392 668 390 647 l 390 668 q 376 627 383 647 q 360 586 368 607 q 343 543 353 565 l 121 -1 l 82 -1 m 265 853 q 322 915 292 879 q 380 990 351 951 q 428 1064 408 1029 l 457 1064 q 476 994 463 1036 q 507 914 490 953 q 535 853 524 875 l 533 842 l 519 842 q 490 891 506 864 q 460 949 474 918 q 435 1010 446 979 q 365 925 406 969 q 278 842 325 881 l 264 842 l 265 853 z "},"Ŷ":{"ha":401,"x_min":88,"x_max":518,"o":"m 88 0 l 169 386 l 114 992 l 150 992 l 197 443 l 478 992 l 518 992 l 206 386 l 124 0 l 88 0 m 192 1082 q 248 1144 218 1108 q 306 1219 278 1181 q 354 1293 335 1258 l 383 1293 q 403 1224 389 1265 q 433 1143 417 1182 q 461 1082 450 1104 l 460 1071 l 446 1071 q 416 1120 432 1093 q 386 1178 400 1147 q 361 1239 372 1208 q 292 1154 332 1199 q 204 1071 251 1110 l 190 1071 l 192 1082 z "},"ŷ":{"ha":408,"x_min":-160,"x_max":478,"o":"m -101 -337 q -137 -333 -122 -337 q -160 -324 -153 -329 l -151 -289 q -129 -299 -142 -294 q -99 -303 -117 -303 q -23 -272 -54 -303 q 42 -164 8 -240 l 121 18 l 113 731 l 149 731 l 153 196 q 153 161 153 181 q 153 120 153 142 q 151 79 153 99 l 154 79 q 172 122 163 100 q 190 165 181 144 q 206 200 199 185 l 440 731 l 478 731 l 76 -175 q 26 -269 51 -233 q -30 -321 0 -304 q -101 -337 -60 -337 m 168 853 q 224 915 194 879 q 283 990 254 951 q 331 1064 311 1029 l 360 1064 q 379 994 365 1036 q 410 914 393 953 q 438 853 426 875 l 436 842 l 422 842 q 392 891 408 864 q 363 949 376 918 q 338 1010 349 979 q 268 925 308 969 q 181 842 228 881 l 167 842 l 168 853 z "},"Ÿ":{"ha":401,"x_min":88,"x_max":518,"o":"m 88 0 l 169 386 l 114 992 l 150 992 l 197 443 l 478 992 l 518 992 l 206 386 l 124 0 l 88 0 m 417 1128 q 399 1136 406 1128 q 392 1160 392 1144 q 401 1198 392 1178 q 428 1218 410 1218 q 446 1210 439 1218 q 453 1186 453 1201 q 444 1149 453 1169 q 417 1128 435 1128 m 242 1128 q 224 1136 231 1128 q 217 1160 217 1144 q 226 1198 217 1178 q 253 1218 235 1218 q 267 1215 261 1218 q 275 1204 272 1211 q 278 1186 278 1197 q 269 1149 278 1169 q 242 1128 260 1128 z "},"Ź":{"ha":424,"x_min":-58,"x_max":521,"o":"m -58 0 l -51 33 l 457 956 l 161 956 l 169 992 l 506 992 l 499 957 l -8 35 l 311 35 l 304 0 l -58 0 m 311 1108 q 378 1180 346 1142 q 438 1255 411 1218 q 479 1319 464 1292 l 521 1319 l 521 1308 q 484 1257 507 1286 q 434 1198 461 1228 q 379 1142 407 1168 q 326 1097 351 1115 l 313 1097 l 311 1108 z "},"ź":{"ha":319,"x_min":-46,"x_max":413,"o":"m -46 0 l -39 33 l 319 696 l 122 696 l 129 731 l 364 731 l 357 697 l -1 35 l 219 35 l 213 0 l -46 0 m 203 847 q 270 919 238 881 q 329 994 303 957 q 371 1058 356 1031 l 413 1058 l 413 1047 q 376 996 399 1025 q 326 937 353 967 q 271 881 299 907 q 218 836 243 854 l 204 836 l 203 847 z "},"Ż":{"ha":424,"x_min":-58,"x_max":506,"o":"m -58 0 l -51 33 l 457 956 l 161 956 l 169 992 l 506 992 l 499 957 l -8 35 l 311 35 l 304 0 l -58 0 m 344 1122 q 326 1131 333 1122 q 319 1156 319 1140 q 329 1197 319 1175 q 360 1218 339 1218 q 374 1215 368 1218 q 382 1203 379 1211 q 385 1183 385 1196 q 375 1144 385 1165 q 344 1122 365 1122 z "},"ż":{"ha":319,"x_min":-46,"x_max":364,"o":"m -46 0 l -39 33 l 319 696 l 122 696 l 129 731 l 364 731 l 357 697 l -1 35 l 219 35 l 213 0 l -46 0 m 281 893 q 263 902 269 893 q 256 926 256 911 q 265 967 256 946 q 296 989 275 989 q 310 985 304 989 q 318 974 315 982 q 321 954 321 967 q 311 915 321 936 q 281 893 301 893 z "},"Ž":{"ha":424,"x_min":-58,"x_max":529,"o":"m -58 0 l -51 33 l 457 956 l 161 956 l 169 992 l 506 992 l 499 957 l -8 35 l 311 35 l 304 0 l -58 0 m 336 1071 q 317 1141 331 1100 q 287 1222 303 1182 q 258 1282 271 1261 l 260 1293 l 274 1293 q 303 1244 288 1272 q 334 1186 319 1217 q 358 1125 349 1156 q 428 1210 388 1165 q 515 1293 468 1254 l 529 1293 l 528 1282 q 472 1219 503 1256 q 413 1145 442 1183 q 365 1071 385 1107 l 336 1071 z "},"ž":{"ha":319,"x_min":-46,"x_max":449,"o":"m -46 0 l -39 33 l 319 696 l 122 696 l 129 731 l 364 731 l 357 697 l -1 35 l 219 35 l 213 0 l -46 0 m 256 842 q 236 912 250 871 q 206 992 222 953 q 178 1053 190 1032 l 179 1064 l 193 1064 q 223 1015 207 1043 q 253 957 239 988 q 278 896 268 926 q 347 981 307 936 q 435 1064 388 1025 l 449 1064 l 447 1053 q 392 990 422 1026 q 333 916 361 954 q 285 842 304 878 l 256 842 z "},"ſ":{"ha":199,"x_min":-201,"x_max":400,"o":"m -149 -333 q -180 -331 -167 -333 q -201 -325 -193 -328 l -201 -290 q -178 -297 -190 -294 q -149 -299 -167 -299 q -72 -256 -96 -299 q -35 -144 -49 -212 l 186 882 q 219 983 200 943 q 265 1043 238 1024 q 336 1063 293 1063 q 372 1058 353 1063 q 400 1049 390 1053 l 386 1015 q 361 1024 376 1021 q 331 1028 346 1028 q 278 1010 299 1028 q 244 956 257 992 q 219 871 231 921 l 1 -149 q -26 -241 -10 -199 q -72 -308 -43 -283 q -149 -333 -100 -333 z "},"ƒ":{"ha":442,"x_min":-119,"x_max":606,"o":"m 36 -335 q -51 -312 -17 -335 q -103 -252 -86 -290 q -119 -167 -119 -214 q -117 -135 -119 -150 q -111 -106 -115 -121 l -79 -115 q -83 -140 -81 -128 q -85 -167 -85 -153 q -71 -236 -85 -206 q -30 -283 -57 -267 q 36 -300 -3 -300 q 126 -261 94 -300 q 174 -150 158 -222 l 351 696 l 268 696 l 274 724 l 358 732 l 392 882 q 415 962 403 928 q 445 1018 428 996 q 486 1051 463 1040 q 542 1063 510 1063 q 577 1058 558 1063 q 606 1049 596 1053 l 592 1015 q 567 1024 582 1021 q 536 1028 551 1028 q 465 987 488 1028 q 425 871 442 946 l 394 731 l 490 731 l 483 696 l 388 696 l 210 -153 q 151 -290 192 -244 q 36 -335 110 -335 z "},"Ǻ":{"ha":451,"x_min":-94,"x_max":504,"o":"m 268 825 q 213 865 233 836 q 193 936 193 894 q 224 1023 193 990 q 314 1056 256 1056 q 402 1022 371 1056 q 435 939 433 988 q 408 857 435 888 q 335 819 381 826 l 357 0 l 321 0 l 313 344 l 96 344 l -56 0 l -94 0 l 268 825 m 110 379 l 311 379 l 303 731 q 301 778 301 754 q 301 818 300 801 l 299 818 q 285 778 293 801 q 264 728 276 756 l 110 379 m 313 853 q 374 876 351 853 q 397 936 397 899 q 375 998 397 974 q 313 1022 353 1022 q 251 998 274 1022 q 229 936 229 974 q 249 876 229 899 q 313 853 269 853 m 294 1103 q 362 1174 329 1136 q 421 1249 394 1213 q 463 1314 447 1286 l 504 1314 l 504 1303 q 451 1233 485 1274 q 381 1153 418 1192 q 310 1092 343 1115 l 296 1092 l 294 1103 z "},"ǻ":{"ha":532,"x_min":43,"x_max":574,"o":"m 183 -14 q 103 6 135 -14 q 58 67 72 26 q 43 171 43 108 q 54 311 43 235 q 88 464 65 388 q 147 603 111 540 q 231 706 182 667 q 342 744 279 744 q 395 733 372 744 q 433 699 418 722 q 457 643 449 676 l 461 643 l 486 731 l 514 731 l 360 0 l 332 0 l 349 108 l 346 108 q 292 40 319 67 q 237 -1 264 13 q 183 -14 210 -14 m 171 22 q 269 63 228 22 q 341 170 311 104 q 392 311 371 236 q 421 445 411 379 q 431 578 431 511 q 403 673 431 638 q 331 708 376 708 q 244 673 283 708 q 174 578 204 638 q 122 447 143 519 q 90 299 101 375 q 79 157 79 224 q 99 56 79 90 q 171 22 119 22 m 358 806 q 271 837 304 806 q 238 924 238 868 q 269 1009 238 976 q 358 1042 301 1042 q 447 1010 413 1042 q 481 926 481 978 q 448 838 481 871 q 358 806 415 806 m 360 839 q 419 862 396 839 q 443 924 443 885 q 421 986 443 963 q 360 1010 399 1010 q 298 986 321 1010 q 275 924 275 963 q 296 860 275 881 q 360 839 317 839 m 367 1108 q 413 1168 389 1138 q 463 1234 438 1199 q 508 1310 488 1269 l 572 1310 l 574 1297 q 524 1236 554 1271 q 455 1166 493 1201 q 374 1097 417 1131 l 367 1097 l 367 1108 z "},"Ǽ":{"ha":656,"x_min":-100,"x_max":721,"o":"m -100 0 l 361 992 l 721 992 l 714 957 l 438 957 l 349 539 l 607 539 l 599 504 l 340 504 l 240 35 l 517 35 l 510 0 l 197 0 l 282 397 l 124 397 l -60 0 l -100 0 m 140 432 l 289 432 l 401 957 l 382 957 l 140 432 m 426 1108 q 494 1180 461 1142 q 553 1255 526 1218 q 594 1319 579 1292 l 636 1319 l 636 1308 q 599 1257 622 1286 q 549 1198 576 1228 q 494 1142 522 1168 q 442 1097 467 1115 l 428 1097 l 426 1108 z "},"ǽ":{"ha":776,"x_min":40,"x_max":775,"o":"m 175 -14 q 102 10 132 -14 q 56 79 72 33 q 40 192 40 125 q 52 332 40 257 q 88 480 64 407 q 146 613 111 553 q 227 708 181 672 q 332 744 274 744 q 396 727 371 744 q 435 681 421 710 q 453 617 449 653 l 457 617 l 483 731 l 513 731 l 485 600 q 567 705 521 665 q 665 744 614 744 q 744 716 714 744 q 775 621 775 688 q 756 524 775 572 q 698 437 738 476 q 595 373 658 397 q 442 349 532 349 l 433 349 q 424 281 428 317 q 421 204 421 244 q 451 65 421 108 q 547 21 482 21 q 608 31 579 21 q 664 57 638 42 l 664 17 q 611 -5 642 4 q 540 -14 581 -14 q 437 24 475 -14 q 389 143 399 63 l 358 0 l 329 0 l 351 125 l 349 125 q 301 51 326 82 q 246 3 276 19 q 175 -14 215 -14 m 179 21 q 253 44 221 21 q 310 110 285 68 q 353 203 335 151 q 386 311 372 256 q 415 449 403 379 q 428 578 428 519 q 402 674 428 638 q 331 710 376 710 q 242 676 282 710 q 171 585 201 642 q 119 460 140 528 q 88 322 99 392 q 78 194 78 253 q 106 61 78 101 q 179 21 135 21 m 446 383 q 617 419 553 383 q 709 510 681 456 q 738 619 738 564 q 719 686 738 663 q 664 710 701 710 q 571 666 615 710 q 492 549 526 622 q 439 383 457 475 l 446 383 m 432 847 q 499 919 467 881 q 558 994 532 957 q 600 1058 585 1031 l 642 1058 l 642 1047 q 605 996 628 1025 q 555 937 582 967 q 500 881 528 907 q 447 836 472 854 l 433 836 l 432 847 z "},"Ǿ":{"ha":622,"x_min":-33,"x_max":671,"o":"m -3 -57 l -33 -39 l 64 118 q 51 181 56 146 q 47 258 47 217 q 57 402 47 322 q 86 566 67 482 q 135 728 106 650 q 206 869 165 806 q 300 969 247 932 q 417 1006 353 1006 q 503 985 467 1006 q 560 919 539 964 l 640 1049 l 671 1031 l 575 876 q 585 820 582 851 q 589 753 589 789 q 580 610 589 690 q 553 443 571 529 q 506 276 535 357 q 435 129 476 194 q 342 25 394 64 q 222 -14 289 -14 q 138 8 174 -14 q 79 75 101 31 l -3 -57 m 226 21 q 329 58 283 21 q 411 157 375 94 q 474 297 447 219 q 517 456 500 374 q 543 614 535 538 q 551 750 551 690 q 551 793 551 774 q 547 831 550 813 l 104 115 q 152 44 121 67 q 226 21 183 21 m 536 881 q 491 949 521 928 q 414 971 461 971 q 310 934 357 971 q 228 836 264 897 q 165 699 192 775 q 120 542 138 622 q 94 390 103 463 q 85 261 85 317 q 87 209 85 233 q 92 164 89 185 l 536 881 m 410 1108 q 477 1180 444 1142 q 536 1255 510 1218 q 578 1319 563 1292 l 619 1319 l 619 1308 q 583 1257 606 1286 q 533 1198 560 1228 q 478 1142 506 1168 q 425 1097 450 1115 l 411 1097 l 410 1108 z "},"ǿ":{"ha":504,"x_min":0,"x_max":506,"o":"m 31 -86 l 0 -69 l 65 53 q 46 112 53 78 q 39 190 39 146 q 48 311 39 240 q 77 458 57 382 q 131 599 97 533 q 211 704 164 664 q 322 744 258 744 q 373 735 350 744 q 414 707 396 726 l 471 814 l 501 797 l 436 674 q 453 617 447 650 q 460 539 460 583 q 449 401 460 475 q 417 253 439 326 q 362 119 394 179 q 284 22 329 58 q 182 -14 239 -14 q 131 -5 154 -14 q 88 22 107 4 l 31 -86 m 183 21 q 271 56 232 21 q 338 150 310 92 q 385 278 367 208 q 413 416 404 347 q 422 539 422 485 q 420 589 422 567 q 413 629 418 611 l 107 58 q 140 31 121 40 q 183 21 160 21 m 394 671 q 363 700 382 690 q 319 710 344 710 q 228 672 268 710 q 160 572 189 633 q 113 439 132 510 q 85 302 94 368 q 76 190 76 236 q 80 139 76 163 q 89 96 83 115 l 394 671 m 296 847 q 363 919 331 881 q 422 994 396 957 q 464 1058 449 1031 l 506 1058 l 506 1047 q 469 996 492 1025 q 419 937 446 967 q 364 881 392 907 q 311 836 336 854 l 297 836 l 296 847 z "},"Ș":{"ha":474,"x_min":-40,"x_max":510,"o":"m 125 -14 q 29 -3 71 -14 q -40 22 -12 8 l -40 63 q 33 33 -8 44 q 128 21 74 21 q 218 36 178 21 q 287 81 258 51 q 330 154 315 111 q 344 253 344 197 q 332 332 344 296 q 294 405 319 368 q 228 488 268 442 q 165 568 192 531 q 122 649 138 606 q 107 750 107 693 q 126 862 107 814 q 177 942 144 910 q 253 990 210 974 q 349 1006 297 1006 q 445 992 403 1006 q 510 963 488 978 l 490 929 q 432 958 468 944 q 346 971 396 971 q 265 957 301 971 q 201 915 228 943 q 159 847 174 888 q 144 753 144 807 q 158 665 144 704 q 197 587 171 625 q 265 501 224 549 q 326 425 300 464 q 367 344 351 386 q 382 254 382 303 q 364 141 382 190 q 313 57 346 92 q 231 4 279 22 q 125 -14 183 -14 m 39 -286 q 83 -231 58 -267 q 129 -156 107 -196 q 161 -85 151 -115 l 197 -85 l 197 -100 q 161 -168 186 -129 q 108 -244 136 -207 q 53 -307 79 -282 l 39 -307 l 39 -286 z "},"ș":{"ha":381,"x_min":-22,"x_max":393,"o":"m 106 -14 q 28 -3 61 -14 q -22 17 -6 7 l -22 60 q 31 33 -3 46 q 106 21 64 21 q 189 40 157 21 q 237 97 221 60 q 253 186 253 133 q 243 248 253 221 q 214 303 233 275 q 165 367 194 331 q 123 424 143 396 q 91 487 103 453 q 79 564 79 521 q 101 656 79 615 q 163 720 122 696 q 258 744 203 744 q 339 732 307 744 q 393 706 371 719 l 371 674 q 326 698 353 686 q 256 710 299 710 q 154 671 192 710 q 117 567 117 632 q 125 506 117 535 q 150 451 133 478 q 190 394 167 425 q 244 325 222 356 q 278 263 267 294 q 290 188 290 231 q 268 77 290 122 q 205 9 246 32 q 106 -14 164 -14 m -8 -286 q 35 -231 11 -267 q 82 -156 60 -196 q 114 -85 104 -115 l 150 -85 l 150 -100 q 114 -168 139 -129 q 60 -244 89 -207 q 6 -307 32 -282 l -8 -307 l -8 -286 z "},"ˆ":{"ha":382,"x_min":158,"x_max":429,"o":"m 160 853 q 216 915 186 879 q 274 990 246 951 q 322 1064 303 1029 l 351 1064 q 371 994 357 1036 q 401 914 385 953 q 429 853 418 875 l 428 842 l 414 842 q 384 891 400 864 q 354 949 368 918 q 329 1010 340 979 q 260 925 300 969 q 172 842 219 881 l 158 842 l 160 853 z "},"ˇ":{"ha":382,"x_min":203,"x_max":474,"o":"m 281 842 q 261 912 275 871 q 231 992 247 953 q 203 1053 215 1032 l 204 1064 l 218 1064 q 248 1015 232 1043 q 278 957 264 988 q 303 896 293 926 q 372 981 332 936 q 460 1064 413 1025 l 474 1064 l 472 1053 q 417 990 447 1026 q 358 916 386 954 q 310 842 329 878 l 281 842 z "},"ˉ":{"ha":408,"x_min":158,"x_max":463,"o":"m 158 850 l 165 885 l 463 885 l 454 850 l 158 850 z "},"˘":{"ha":386,"x_min":188,"x_max":463,"o":"m 313 844 q 237 861 264 844 q 199 906 210 878 q 188 967 188 935 q 188 978 188 974 q 188 986 188 983 l 215 986 q 223 928 215 953 q 252 891 231 904 q 313 878 274 878 q 397 902 369 878 q 433 986 424 926 l 463 986 q 419 881 453 917 q 313 844 385 844 z "},"˙":{"ha":174,"x_min":176,"x_max":242,"o":"m 201 893 q 183 902 190 893 q 176 926 176 911 q 186 967 176 946 q 217 989 196 989 q 231 985 225 989 q 239 974 236 982 q 242 954 242 967 q 232 915 242 936 q 201 893 222 893 z "},"˚":{"ha":357,"x_min":188,"x_max":426,"o":"m 307 850 q 219 882 251 850 q 188 969 188 914 q 219 1055 188 1021 q 307 1089 251 1089 q 397 1054 367 1089 q 426 969 426 1019 q 394 885 426 919 q 307 850 363 850 m 307 883 q 369 907 347 883 q 392 969 392 931 q 370 1031 392 1007 q 307 1056 349 1056 q 244 1031 267 1056 q 222 969 222 1006 q 244 907 222 931 q 307 883 267 883 z "},"˛":{"ha":279,"x_min":-62,"x_max":118,"o":"m 33 -299 q -37 -273 -12 -299 q -62 -208 -62 -247 q -50 -142 -62 -174 q -6 -76 -37 -111 q 81 0 25 -42 l 118 0 q 33 -77 64 -43 q -12 -141 1 -111 q -25 -203 -25 -171 q -9 -249 -25 -233 q 39 -264 7 -264 q 66 -261 53 -264 q 90 -256 79 -258 l 85 -289 q 63 -295 75 -292 q 33 -299 51 -299 z "},"˜":{"ha":454,"x_min":160,"x_max":528,"o":"m 160 849 q 181 921 167 893 q 219 963 196 949 q 272 976 242 976 q 319 963 300 976 q 355 931 339 949 q 386 899 371 913 q 422 885 401 885 q 467 906 450 885 q 493 976 485 928 l 528 976 q 508 906 522 935 q 471 864 493 878 q 419 850 449 850 q 372 864 392 850 q 338 896 353 878 q 306 928 322 914 q 268 942 290 942 q 218 917 235 942 q 194 849 201 893 l 160 849 z "},"˝":{"ha":467,"x_min":160,"x_max":557,"o":"m 344 853 q 412 924 379 886 q 471 999 444 963 q 513 1064 497 1036 l 557 1064 l 557 1053 q 519 1001 543 1031 q 468 942 496 972 q 413 886 440 913 q 360 842 385 860 l 346 842 l 344 853 m 160 853 q 227 924 194 886 q 286 999 260 963 q 328 1064 313 1036 l 372 1064 l 372 1053 q 335 1001 358 1031 q 283 942 311 972 q 228 886 256 913 q 175 842 200 860 l 161 842 l 160 853 z "},"΄":{"ha":221,"x_min":157,"x_max":315,"o":"m 157 842 l 161 858 l 274 1074 l 315 1074 l 313 1064 l 178 842 l 157 842 z "},"΅":{"ha":683,"x_min":260,"x_max":533,"o":"m 340 842 l 344 858 l 450 1074 l 492 1074 l 489 1064 l 361 842 l 340 842 m 289 876 q 266 890 272 876 q 263 921 260 903 q 278 953 267 939 q 307 967 290 967 q 328 953 322 967 q 331 921 335 940 q 315 889 326 901 q 289 876 304 876 m 485 876 q 463 890 469 876 q 460 922 456 904 q 475 953 463 940 q 503 967 488 967 q 526 954 518 967 q 529 922 533 942 q 513 890 525 903 q 485 876 500 876 z "},"Ά":{"ha":467,"x_min":-81,"x_max":374,"o":"m -81 0 l 328 996 l 374 996 l 371 0 l 335 0 l 336 394 l 121 394 l -42 0 l -81 0 m 133 429 l 335 429 l 339 842 q 339 897 339 871 q 340 942 339 924 l 338 942 q 322 899 332 924 q 299 840 313 874 l 133 429 m 47 760 l 51 776 l 164 992 l 206 992 l 203 982 l 68 760 l 47 760 z "},"·":{"ha":236,"x_min":156,"x_max":221,"o":"m 181 639 q 163 648 169 639 q 156 672 156 657 q 165 713 156 692 q 196 735 175 735 q 214 726 207 735 q 221 700 221 718 q 211 660 221 682 q 181 639 201 639 z "},"Έ":{"ha":592,"x_min":97,"x_max":649,"o":"m 125 0 l 336 992 l 649 992 l 642 957 l 365 957 l 276 539 l 535 539 l 526 504 l 268 504 l 168 35 l 444 35 l 438 0 l 125 0 m 97 760 l 101 776 l 214 992 l 256 992 l 253 982 l 118 760 l 97 760 z "},"Ή":{"ha":733,"x_min":97,"x_max":753,"o":"m 125 0 l 336 992 l 372 992 l 276 539 l 621 539 l 717 992 l 753 992 l 542 0 l 506 0 l 613 504 l 268 504 l 161 0 l 125 0 m 97 760 l 101 776 l 214 992 l 256 992 l 253 982 l 118 760 l 97 760 z "},"Ί":{"ha":379,"x_min":69,"x_max":478,"o":"m 69 0 l 75 26 l 158 31 l 356 960 l 275 965 l 281 992 l 478 992 l 472 965 l 390 960 l 193 31 l 272 26 l 267 0 l 69 0 m 97 760 l 101 776 l 214 992 l 256 992 l 253 982 l 118 760 l 97 760 z "},"Ό":{"ha":711,"x_min":97,"x_max":683,"o":"m 317 -14 q 221 15 260 -14 q 162 105 182 44 q 142 258 142 165 q 151 402 142 322 q 181 566 161 482 q 230 728 200 650 q 301 869 260 806 q 394 969 342 932 q 511 1006 447 1006 q 639 947 594 1006 q 683 753 683 888 q 674 610 683 690 q 647 443 665 529 q 600 276 629 357 q 530 129 571 194 q 436 25 489 64 q 317 -14 383 -14 m 321 21 q 424 58 378 21 q 506 157 469 94 q 568 297 542 219 q 612 456 594 374 q 638 614 629 538 q 646 750 646 690 q 613 919 646 868 q 508 971 579 971 q 405 934 451 971 q 322 836 358 897 q 259 699 286 775 q 215 542 232 622 q 188 390 197 463 q 179 261 179 317 q 195 124 179 176 q 243 46 211 71 q 321 21 275 21 m 97 760 l 101 776 l 214 992 l 256 992 l 253 982 l 118 760 l 97 760 z "},"Ύ":{"ha":583,"x_min":97,"x_max":700,"o":"m 269 0 l 351 386 l 296 992 l 332 992 l 379 443 l 660 992 l 700 992 l 388 386 l 306 0 l 269 0 m 97 760 l 101 776 l 214 992 l 256 992 l 253 982 l 118 760 l 97 760 z "},"Ώ":{"ha":782,"x_min":97,"x_max":769,"o":"m 150 0 l 158 35 l 333 35 q 260 149 286 81 q 231 312 235 218 q 243 522 226 406 q 308 792 267 685 q 413 952 349 899 q 565 1006 476 1006 q 701 953 654 1006 q 759 793 749 901 q 746 518 769 685 q 694 304 729 397 q 610 144 660 211 q 496 35 560 78 l 669 35 l 661 0 l 429 0 l 435 22 q 566 137 511 65 q 657 305 621 208 q 710 519 693 401 q 723 771 731 671 q 676 921 715 871 q 561 971 636 971 q 429 919 485 971 q 336 769 374 868 q 278 522 299 669 q 267 302 261 401 q 303 132 274 203 q 383 22 332 61 l 378 0 l 150 0 m 97 760 l 101 776 l 214 992 l 256 992 l 253 982 l 118 760 l 97 760 z "},"ΐ":{"ha":278,"x_min":29,"x_max":408,"o":"m 104 -14 q 65 -6 82 -14 q 39 22 49 3 q 29 75 29 40 q 31 108 29 90 q 38 149 33 126 l 161 731 l 197 731 l 75 160 q 67 118 69 138 q 65 83 65 99 q 76 38 65 53 q 113 22 88 22 q 135 25 124 22 q 154 32 146 28 l 146 -6 q 130 -11 140 -8 q 104 -14 119 -14 m 215 840 l 219 857 l 325 1072 l 367 1072 l 364 1063 l 236 840 l 215 840 m 164 875 q 141 888 147 875 q 138 919 135 901 q 153 951 142 938 q 182 965 165 965 q 203 952 197 965 q 206 919 210 939 q 190 888 201 900 q 164 875 179 875 m 360 875 q 338 889 344 875 q 335 921 331 903 q 350 952 338 939 q 378 965 363 965 q 401 953 393 965 q 404 921 408 940 q 388 888 400 901 q 360 875 375 875 z "},"Α":{"ha":453,"x_min":-94,"x_max":360,"o":"m -94 0 l 314 996 l 360 996 l 357 0 l 321 0 l 322 394 l 107 394 l -56 0 l -94 0 m 119 429 l 321 429 l 325 842 q 325 897 325 871 q 326 942 325 924 l 324 942 q 308 899 318 924 q 285 840 299 874 l 119 429 z "},"Β":{"ha":519,"x_min":6,"x_max":525,"o":"m 6 0 l 214 992 l 343 992 q 447 969 407 992 q 506 906 486 946 q 525 811 525 865 q 504 685 525 747 q 440 579 483 624 q 328 519 396 535 l 328 517 q 413 460 381 506 q 446 336 446 414 q 415 168 446 244 q 319 46 383 92 q 153 0 254 0 l 6 0 m 154 35 q 306 79 250 35 q 385 192 361 124 q 408 332 408 260 q 361 466 408 428 q 238 504 314 504 l 149 504 l 49 35 l 154 35 m 250 539 q 390 580 338 539 q 465 683 442 621 q 488 808 488 746 q 451 919 488 881 q 336 957 414 957 l 243 957 l 156 539 l 250 539 z "},"Γ":{"ha":399,"x_min":3,"x_max":493,"o":"m 3 0 l 214 992 l 493 992 l 486 957 l 243 957 l 39 0 l 3 0 z "},"Ε":{"ha":469,"x_min":3,"x_max":526,"o":"m 3 0 l 214 992 l 526 992 l 519 957 l 243 957 l 154 539 l 413 539 l 404 504 l 146 504 l 46 35 l 322 35 l 315 0 l 3 0 z "},"Ζ":{"ha":424,"x_min":-58,"x_max":506,"o":"m -58 0 l -51 33 l 457 956 l 161 956 l 169 992 l 506 992 l 499 957 l -8 35 l 311 35 l 304 0 l -58 0 z "},"Η":{"ha":611,"x_min":3,"x_max":631,"o":"m 3 0 l 214 992 l 250 992 l 154 539 l 499 539 l 594 992 l 631 992 l 419 0 l 383 0 l 490 504 l 146 504 l 39 0 l 3 0 z "},"Θ":{"ha":617,"x_min":47,"x_max":589,"o":"m 176 483 l 185 518 l 461 518 l 453 483 l 176 483 m 222 -14 q 126 15 165 -14 q 67 105 88 44 q 47 258 47 165 q 57 402 47 322 q 86 566 67 482 q 135 728 106 650 q 206 869 165 806 q 300 969 247 932 q 417 1006 353 1006 q 544 947 500 1006 q 589 753 589 888 q 580 610 589 690 q 553 443 571 529 q 506 276 535 357 q 435 129 476 194 q 342 25 394 64 q 222 -14 289 -14 m 226 21 q 329 58 283 21 q 411 157 375 94 q 474 297 447 219 q 517 456 500 374 q 543 614 535 538 q 551 750 551 690 q 518 919 551 868 q 414 971 485 971 q 310 934 357 971 q 228 836 264 897 q 165 699 192 775 q 120 542 138 622 q 94 390 103 463 q 85 261 85 317 q 101 124 85 176 q 149 46 117 71 q 226 21 181 21 z "},"Ι":{"ha":229,"x_min":-81,"x_max":328,"o":"m -81 0 l -75 26 l 8 31 l 206 960 l 125 965 l 131 992 l 328 992 l 322 965 l 240 960 l 43 31 l 122 26 l 117 0 l -81 0 z "},"Κ":{"ha":481,"x_min":3,"x_max":581,"o":"m 3 0 l 214 992 l 250 992 l 133 442 l 229 575 l 536 992 l 581 992 l 258 556 l 386 0 l 346 0 l 229 524 l 122 392 l 39 0 l 3 0 z "},"Λ":{"ha":472,"x_min":-94,"x_max":376,"o":"m -94 0 l 328 992 l 376 992 l 376 0 l 340 0 l 343 839 q 344 897 343 869 q 346 956 344 925 l 343 956 q 322 897 332 925 q 296 831 311 868 l -56 0 l -94 0 z "},"Μ":{"ha":815,"x_min":3,"x_max":835,"o":"m 3 0 l 214 992 l 267 992 l 318 44 l 322 44 l 776 992 l 835 992 l 624 0 l 588 0 l 757 797 q 765 835 761 817 q 775 876 769 854 q 786 925 781 899 l 783 925 l 340 0 l 283 0 l 236 926 l 233 926 q 225 878 229 899 q 217 841 221 858 q 210 803 214 824 l 39 0 l 3 0 z "},"Ν":{"ha":640,"x_min":3,"x_max":660,"o":"m 3 0 l 214 992 l 260 992 l 428 82 l 431 82 q 444 145 438 114 q 456 205 450 176 q 465 253 461 233 l 622 992 l 660 992 l 449 0 l 404 0 l 238 921 l 235 921 q 229 891 232 907 q 222 856 226 875 q 213 813 218 836 q 201 760 208 789 l 40 0 l 3 0 z "},"Ξ":{"ha":490,"x_min":-1,"x_max":547,"o":"m -1 0 l 7 35 l 343 35 l 336 0 l -1 0 m 122 504 l 129 539 l 433 539 l 425 504 l 122 504 m 204 957 l 213 992 l 547 992 l 540 957 l 204 957 z "},"Ο":{"ha":617,"x_min":47,"x_max":589,"o":"m 222 -14 q 126 15 165 -14 q 67 105 88 44 q 47 258 47 165 q 57 402 47 322 q 86 566 67 482 q 135 728 106 650 q 206 869 165 806 q 300 969 247 932 q 417 1006 353 1006 q 544 947 500 1006 q 589 753 589 888 q 580 610 589 690 q 553 443 571 529 q 506 276 535 357 q 435 129 476 194 q 342 25 394 64 q 222 -14 289 -14 m 226 21 q 329 58 283 21 q 411 157 375 94 q 474 297 447 219 q 517 456 500 374 q 543 614 535 538 q 551 750 551 690 q 518 919 551 868 q 414 971 485 971 q 310 934 357 971 q 228 836 264 897 q 165 699 192 775 q 120 542 138 622 q 94 390 103 463 q 85 261 85 317 q 101 124 85 176 q 149 46 117 71 q 226 21 181 21 z "},"Π":{"ha":611,"x_min":3,"x_max":631,"o":"m 3 0 l 214 992 l 631 992 l 419 0 l 383 0 l 588 957 l 243 957 l 39 0 l 3 0 z "},"Ρ":{"ha":489,"x_min":4,"x_max":508,"o":"m 4 0 l 214 992 l 304 992 q 419 968 374 992 q 486 899 464 944 q 508 789 508 854 q 488 643 508 710 q 427 528 467 576 q 330 452 388 479 q 197 425 272 425 l 131 425 l 40 0 l 4 0 m 194 460 q 351 503 290 460 q 441 622 413 547 q 469 788 469 697 q 432 911 469 865 q 300 957 394 957 l 244 957 l 138 460 l 194 460 z "},"Σ":{"ha":424,"x_min":-58,"x_max":506,"o":"m -58 0 l -51 31 l 242 522 l 179 967 l 185 992 l 506 992 l 499 957 l 283 957 q 263 957 272 957 q 242 957 253 957 q 215 957 231 957 l 275 525 l 272 511 l -14 32 q 28 34 1 33 q 103 35 56 35 l 311 35 l 304 0 l -58 0 z "},"Τ":{"ha":408,"x_min":90,"x_max":515,"o":"m 90 0 l 294 957 l 118 957 l 125 992 l 515 992 l 508 957 l 331 957 l 126 0 l 90 0 z "},"Υ":{"ha":401,"x_min":88,"x_max":518,"o":"m 88 0 l 169 386 l 114 992 l 150 992 l 197 443 l 478 992 l 518 992 l 206 386 l 124 0 l 88 0 z "},"Φ":{"ha":818,"x_min":54,"x_max":789,"o":"m 293 0 l 319 125 q 188 162 242 131 q 103 247 133 193 q 63 373 72 300 q 67 535 54 446 q 113 699 81 629 q 197 815 146 769 q 321 882 249 861 q 485 899 393 903 l 504 992 l 539 992 l 519 899 q 653 863 599 893 q 740 778 708 832 q 780 652 771 725 q 776 489 789 579 q 730 324 763 394 q 645 207 697 253 q 520 140 593 161 q 354 125 447 119 l 328 0 l 293 0 m 326 158 l 478 867 q 293 836 371 872 q 168 724 215 800 q 104 532 121 647 q 100 381 93 449 q 134 266 107 314 q 209 190 161 218 q 326 158 257 163 m 361 157 q 548 187 469 151 q 675 299 626 222 q 739 492 724 376 q 742 644 750 576 q 707 760 735 711 q 631 835 679 808 q 513 867 583 863 l 361 157 z "},"Χ":{"ha":421,"x_min":-81,"x_max":519,"o":"m -81 0 l 217 526 l 164 992 l 200 992 l 246 560 l 481 992 l 519 992 l 260 517 l 308 0 l 272 0 l 229 479 l -42 0 l -81 0 z "},"Ψ":{"ha":686,"x_min":101,"x_max":714,"o":"m 231 0 l 289 271 q 197 289 238 275 q 133 338 157 303 q 105 434 108 372 q 122 596 101 496 l 207 992 l 243 992 l 160 603 q 141 439 139 504 q 179 341 143 374 q 296 304 215 308 l 442 992 l 478 992 l 332 304 q 451 331 401 304 q 534 422 500 358 q 592 596 568 486 l 678 992 l 714 992 l 626 589 q 581 438 607 499 q 518 340 554 376 q 434 287 482 303 q 324 271 386 271 l 267 0 l 231 0 z "},"Ϊ":{"ha":229,"x_min":-81,"x_max":385,"o":"m -81 0 l -75 26 l 8 31 l 206 960 l 125 965 l 131 992 l 328 992 l 322 965 l 240 960 l 43 31 l 122 26 l 117 0 l -81 0 m 349 1160 q 331 1168 338 1160 q 324 1192 324 1176 q 333 1230 324 1210 q 360 1250 342 1250 q 378 1242 371 1250 q 385 1218 385 1233 q 376 1181 385 1201 q 349 1160 367 1160 m 174 1160 q 156 1168 163 1160 q 149 1192 149 1176 q 158 1230 149 1210 q 185 1250 167 1250 q 199 1247 193 1250 q 207 1236 204 1243 q 210 1218 210 1229 q 201 1181 210 1201 q 174 1160 192 1160 z "},"Ϋ":{"ha":401,"x_min":88,"x_max":518,"o":"m 88 0 l 169 386 l 114 992 l 150 992 l 197 443 l 478 992 l 518 992 l 206 386 l 124 0 l 88 0 m 417 1128 q 399 1136 406 1128 q 392 1160 392 1144 q 401 1198 392 1178 q 428 1218 410 1218 q 446 1210 439 1218 q 453 1186 453 1201 q 444 1149 453 1169 q 417 1128 435 1128 m 242 1128 q 224 1136 231 1128 q 217 1160 217 1144 q 226 1198 217 1178 q 253 1218 235 1218 q 267 1215 261 1218 q 275 1204 272 1211 q 278 1186 278 1197 q 269 1149 278 1169 q 242 1128 260 1128 z "},"ά":{"ha":560,"x_min":38,"x_max":510,"o":"m 172 -14 q 73 39 108 -14 q 38 192 38 92 q 49 326 38 251 q 83 474 60 400 q 140 608 106 547 q 219 707 174 669 q 324 744 265 744 q 388 728 361 744 q 431 683 415 713 q 450 611 447 653 l 453 611 l 490 731 l 510 731 l 404 232 q 386 146 394 186 q 378 78 378 106 q 388 36 378 51 q 421 21 397 21 q 440 22 428 21 q 472 31 451 24 l 465 -4 q 443 -10 453 -7 q 426 -13 433 -12 q 411 -14 418 -14 q 364 4 379 -14 q 346 54 349 22 q 349 125 343 86 l 346 125 q 298 49 324 79 q 241 2 272 18 q 172 -14 210 -14 m 174 21 q 270 64 229 21 q 340 174 311 107 q 386 311 368 242 q 415 449 406 385 q 425 550 425 513 q 399 670 425 631 q 322 710 372 710 q 234 675 274 710 q 165 583 194 640 q 115 456 135 525 q 85 319 96 388 q 75 194 75 250 q 102 61 75 101 q 174 21 129 21 m 340 840 l 344 857 l 457 1072 l 499 1072 l 496 1063 l 361 840 l 340 840 z "},"έ":{"ha":354,"x_min":28,"x_max":444,"o":"m 175 -14 q 83 16 117 -14 q 38 97 49 46 q 36 207 28 147 q 81 325 47 282 q 164 379 115 368 l 164 382 q 109 444 129 397 q 100 569 89 490 q 133 668 108 629 q 194 726 157 707 q 275 746 231 746 q 333 735 307 746 q 378 707 360 725 l 363 675 q 326 701 349 690 q 272 711 303 711 q 201 692 229 711 q 159 640 174 672 q 139 569 144 608 q 147 447 129 496 q 229 397 164 397 l 278 397 l 271 363 l 225 363 q 147 345 178 363 q 98 294 115 328 q 72 210 81 261 q 83 72 60 122 q 179 21 107 21 q 238 26 215 21 q 279 42 261 32 l 279 7 q 234 -8 260 -3 q 175 -14 208 -14 m 286 840 l 290 857 l 403 1072 l 444 1072 l 442 1063 l 307 840 l 286 840 z "},"ή":{"ha":496,"x_min":8,"x_max":454,"o":"m 393 471 q 410 553 401 511 q 418 629 418 594 q 396 690 418 669 q 336 710 374 710 q 266 690 297 710 q 210 632 235 671 q 166 535 186 593 q 129 399 146 476 l 44 0 l 8 0 l 163 731 l 192 731 l 172 622 l 175 622 q 204 674 188 651 q 242 712 221 696 q 289 736 264 728 q 340 744 314 744 q 400 732 375 744 q 440 694 425 719 q 454 632 454 669 q 445 550 454 600 q 426 457 436 500 l 258 -333 l 222 -333 l 393 471 m 269 840 l 274 857 l 386 1072 l 428 1072 l 425 1063 l 290 840 l 269 840 z "},"ί":{"ha":226,"x_min":29,"x_max":351,"o":"m 104 -14 q 65 -6 82 -14 q 39 22 49 3 q 29 75 29 40 q 31 108 29 90 q 38 149 33 126 l 161 731 l 197 731 l 75 160 q 67 118 69 138 q 65 83 65 99 q 76 38 65 53 q 113 22 88 22 q 135 25 124 22 q 154 32 146 28 l 146 -6 q 130 -11 140 -8 q 104 -14 119 -14 m 193 840 l 197 857 l 310 1072 l 351 1072 l 349 1063 l 214 840 l 193 840 z "},"ΰ":{"ha":499,"x_min":32,"x_max":519,"o":"m 154 -14 q 70 10 99 -14 q 37 80 42 33 q 47 197 32 126 l 163 731 l 199 731 l 83 197 q 81 59 61 97 q 158 21 101 21 q 314 108 253 21 q 401 339 375 194 q 421 467 414 410 q 430 571 428 524 q 431 658 432 618 q 426 731 429 697 l 461 731 q 468 628 468 688 q 461 494 468 568 q 438 335 454 421 q 377 142 417 219 q 282 25 338 64 q 154 -14 226 -14 m 326 840 l 331 857 l 436 1072 l 478 1072 l 475 1063 l 347 840 l 326 840 m 275 875 q 252 888 258 875 q 249 919 246 901 q 265 951 253 938 q 293 965 276 965 q 315 952 308 965 q 317 919 321 939 q 301 888 313 900 q 275 875 290 875 m 471 875 q 449 889 456 875 q 446 921 442 903 q 461 952 449 939 q 489 965 474 965 q 512 953 504 965 q 515 921 519 940 q 499 888 511 901 q 471 875 486 875 z "},"α":{"ha":560,"x_min":38,"x_max":510,"o":"m 172 -14 q 73 39 108 -14 q 38 192 38 92 q 49 326 38 251 q 83 474 60 400 q 140 608 106 547 q 219 707 174 669 q 324 744 265 744 q 388 728 361 744 q 431 683 415 713 q 450 611 447 653 l 453 611 l 490 731 l 510 731 l 404 232 q 386 146 394 186 q 378 78 378 106 q 388 36 378 51 q 421 21 397 21 q 440 22 428 21 q 472 31 451 24 l 465 -4 q 443 -10 453 -7 q 426 -13 433 -12 q 411 -14 418 -14 q 364 4 379 -14 q 346 54 349 22 q 349 125 343 86 l 346 125 q 298 49 324 79 q 241 2 272 18 q 172 -14 210 -14 m 174 21 q 270 64 229 21 q 340 174 311 107 q 386 311 368 242 q 415 449 406 385 q 425 550 425 513 q 399 670 425 631 q 322 710 372 710 q 234 675 274 710 q 165 583 194 640 q 115 456 135 525 q 85 319 96 388 q 75 194 75 250 q 102 61 75 101 q 174 21 129 21 z "},"β":{"ha":518,"x_min":-58,"x_max":542,"o":"m -58 -317 l 183 813 q 227 950 201 894 q 294 1034 253 1006 q 396 1063 335 1063 q 472 1044 439 1063 q 523 989 504 1026 q 542 892 542 951 q 520 741 542 814 q 453 618 499 668 q 332 556 407 568 q 428 487 393 542 q 463 349 463 432 q 448 225 463 289 q 402 107 433 161 q 320 19 371 53 q 199 -14 269 -14 q 114 4 151 -14 q 56 42 76 22 l -22 -317 l -58 -317 m 199 21 q 302 51 260 21 q 372 128 344 81 q 413 233 400 176 q 425 344 425 290 q 406 453 425 410 q 352 518 388 496 q 265 540 317 540 l 249 540 l 256 575 l 274 575 q 381 603 338 575 q 452 676 425 631 q 492 778 479 722 q 504 890 504 835 q 475 994 504 961 q 393 1028 446 1028 q 315 1005 347 1028 q 259 934 282 982 q 219 810 236 886 l 65 81 q 123 39 88 57 q 199 21 158 21 z "},"γ":{"ha":422,"x_min":21,"x_max":439,"o":"m 21 -281 l 83 15 l 79 731 l 114 731 l 117 213 q 117 174 117 201 q 117 116 117 147 q 115 58 117 85 l 119 58 q 245 247 188 146 q 344 469 303 349 q 401 731 386 589 l 439 731 q 378 458 424 585 q 267 220 333 331 q 119 13 201 110 l 57 -281 l 21 -281 z "},"δ":{"ha":510,"x_min":35,"x_max":560,"o":"m 203 -14 q 116 10 154 -14 q 56 81 78 33 q 35 204 35 129 q 66 390 35 300 q 161 547 97 479 q 321 649 225 615 q 265 751 288 701 q 242 868 242 800 q 264 966 242 925 q 328 1029 286 1007 q 426 1051 369 1051 q 510 1036 476 1051 q 560 1010 544 1021 l 539 979 q 493 1004 522 992 q 421 1017 464 1017 q 317 978 356 1017 q 279 869 279 939 q 290 795 279 829 q 319 728 300 761 q 363 654 338 694 q 414 556 394 604 q 442 456 433 508 q 451 343 451 404 q 438 217 451 281 q 394 102 424 154 q 318 18 365 50 q 203 -14 271 -14 m 207 21 q 306 52 267 21 q 369 133 346 83 q 403 238 393 182 q 414 344 414 294 q 406 447 414 399 q 382 538 399 494 q 339 619 365 581 q 187 524 246 588 q 100 377 128 460 q 72 207 72 294 q 89 101 72 143 q 136 40 106 60 q 207 21 167 21 z "},"ε":{"ha":354,"x_min":28,"x_max":378,"o":"m 175 -14 q 83 16 117 -14 q 38 97 49 46 q 36 207 28 147 q 81 325 47 282 q 164 379 115 368 l 164 382 q 109 444 129 397 q 100 569 89 490 q 133 668 108 629 q 194 726 157 707 q 275 746 231 746 q 333 735 307 746 q 378 707 360 725 l 363 675 q 326 701 349 690 q 272 711 303 711 q 201 692 229 711 q 159 640 174 672 q 139 569 144 608 q 147 447 129 496 q 229 397 164 397 l 278 397 l 271 363 l 225 363 q 147 345 178 363 q 98 294 115 328 q 72 210 81 261 q 83 72 60 122 q 179 21 107 21 q 238 26 215 21 q 279 42 261 32 l 279 7 q 234 -8 260 -3 q 175 -14 208 -14 z "},"ζ":{"ha":371,"x_min":18,"x_max":482,"o":"m 211 -281 q 258 -219 236 -249 q 286 -139 279 -189 q 285 -82 290 -108 q 258 -33 279 -56 q 190 6 236 -11 q 90 64 129 29 q 34 151 50 99 q 29 281 18 204 q 52 376 36 328 q 97 481 68 424 q 174 615 126 539 q 289 793 221 690 l 443 1025 q 415 1024 431 1025 q 386 1023 400 1024 q 361 1022 372 1022 l 168 1022 l 175 1056 l 482 1056 l 476 1028 l 311 778 q 183 575 235 663 q 103 417 132 488 q 65 281 75 347 q 66 177 57 224 q 109 95 75 131 q 207 35 143 60 q 279 -8 253 18 q 315 -66 306 -33 q 319 -139 325 -99 q 306 -190 315 -167 q 283 -235 297 -214 q 247 -281 268 -257 l 211 -281 z "},"η":{"ha":496,"x_min":8,"x_max":454,"o":"m 393 471 q 410 553 401 511 q 418 629 418 594 q 396 690 418 669 q 336 710 374 710 q 266 690 297 710 q 210 632 235 671 q 166 535 186 593 q 129 399 146 476 l 44 0 l 8 0 l 163 731 l 192 731 l 172 622 l 175 622 q 204 674 188 651 q 242 712 221 696 q 289 736 264 728 q 340 744 314 744 q 400 732 375 744 q 440 694 425 719 q 454 632 454 669 q 445 550 454 600 q 426 457 436 500 l 258 -333 l 222 -333 l 393 471 z "},"θ":{"ha":504,"x_min":43,"x_max":517,"o":"m 43 231 q 48 325 43 271 q 62 442 53 379 q 85 571 71 506 q 132 751 104 663 q 197 911 160 839 q 283 1026 235 983 q 388 1069 331 1069 q 463 1047 435 1069 q 503 975 490 1024 q 517 850 517 926 q 513 748 517 804 q 500 629 508 692 q 479 501 492 567 q 433 313 461 406 q 367 147 404 221 q 283 28 329 72 q 179 -17 236 -17 q 104 8 135 -17 q 58 86 74 32 q 43 231 43 140 m 81 232 q 107 63 81 107 q 178 18 133 18 q 267 63 226 18 q 342 181 308 107 q 402 347 376 256 q 444 531 428 438 l 115 531 q 90 365 99 443 q 81 232 81 286 m 122 565 l 450 565 q 472 722 465 647 q 479 850 479 797 q 458 995 479 956 q 388 1035 436 1035 q 300 994 340 1035 q 226 886 260 954 q 167 735 193 818 q 122 565 140 651 z "},"ι":{"ha":226,"x_min":29,"x_max":197,"o":"m 104 -14 q 65 -6 82 -14 q 39 22 49 3 q 29 75 29 40 q 31 108 29 90 q 38 149 33 126 l 161 731 l 197 731 l 75 160 q 67 118 69 138 q 65 83 65 99 q 76 38 65 53 q 113 22 88 22 q 135 25 124 22 q 154 32 146 28 l 146 -6 q 130 -11 140 -8 q 104 -14 119 -14 z "},"κ":{"ha":411,"x_min":7,"x_max":461,"o":"m 7 0 l 167 731 l 203 731 l 151 501 q 131 408 142 457 q 111 325 119 360 l 113 325 l 421 732 l 461 732 l 249 449 l 321 0 l 285 0 l 218 413 l 99 263 l 43 0 l 7 0 z "},"λ":{"ha":478,"x_min":-62,"x_max":396,"o":"m 354 -14 q 303 0 322 -14 q 277 45 285 14 q 269 131 269 76 l 272 536 q 273 599 272 578 q 273 630 274 621 q 273 644 272 639 q 274 661 274 650 l 268 661 q 253 626 261 643 q 236 589 246 608 l -25 0 l -62 0 l 271 740 l 276 925 q 260 1006 279 986 q 210 1026 242 1026 q 183 1023 197 1026 q 156 1013 168 1019 l 164 1051 q 176 1056 168 1054 q 194 1060 183 1058 q 218 1063 206 1063 q 267 1052 246 1063 q 299 1015 288 1042 q 311 939 311 989 l 307 131 q 313 64 307 88 q 331 31 318 40 q 363 21 343 21 q 382 23 374 21 q 396 26 390 25 l 388 -8 q 379 -11 383 -10 q 369 -13 375 -12 q 354 -14 364 -14 z "},"ν":{"ha":422,"x_min":79,"x_max":439,"o":"m 83 0 l 79 731 l 114 731 l 117 213 q 117 174 117 201 q 117 116 117 147 q 115 58 117 85 l 119 58 q 245 247 188 146 q 344 469 303 349 q 401 731 386 589 l 439 731 q 378 458 424 585 q 266 217 333 331 q 115 0 199 104 l 83 0 z "},"ξ":{"ha":456,"x_min":38,"x_max":501,"o":"m 228 -281 q 267 -227 250 -251 q 294 -176 283 -203 q 304 -110 304 -149 q 284 -45 304 -74 q 208 3 264 -17 q 110 55 149 25 q 55 127 72 85 q 38 226 38 169 q 64 387 38 314 q 139 508 90 460 q 254 565 188 556 l 254 568 q 190 629 208 592 q 172 724 172 667 q 185 821 172 772 q 224 911 199 869 q 285 983 249 953 q 367 1026 321 1014 q 338 1024 353 1025 q 310 1023 324 1024 q 286 1022 297 1022 l 197 1022 l 204 1056 l 501 1056 l 497 1028 l 468 1028 q 376 1010 417 1028 q 303 960 335 992 q 251 890 272 929 q 219 808 229 850 q 208 725 208 765 q 224 645 208 678 q 269 596 239 613 q 342 579 299 579 l 396 579 l 389 544 l 321 544 q 213 519 260 544 q 135 450 167 494 q 89 349 104 406 q 74 228 74 292 q 91 140 76 176 q 138 79 106 104 q 226 33 171 54 q 290 -1 265 19 q 326 -48 314 -22 q 338 -106 338 -74 q 328 -171 338 -140 q 302 -228 318 -201 q 264 -281 286 -254 l 228 -281 z "},"ο":{"ha":499,"x_min":39,"x_max":460,"o":"m 182 -14 q 106 7 139 -14 q 56 73 74 28 q 39 190 39 118 q 48 311 39 240 q 77 458 57 382 q 131 599 97 533 q 211 704 164 664 q 322 744 258 744 q 396 723 365 744 q 443 656 426 701 q 460 539 460 611 q 449 401 460 475 q 417 253 439 326 q 362 119 394 179 q 284 22 329 58 q 182 -14 239 -14 m 183 21 q 271 56 232 21 q 338 150 310 92 q 385 278 367 208 q 413 416 404 347 q 422 539 422 485 q 410 634 422 596 q 376 691 399 672 q 319 710 354 710 q 228 672 268 710 q 160 572 189 633 q 113 439 132 510 q 85 302 94 368 q 76 190 76 236 q 104 63 76 106 q 183 21 132 21 z "}}}
